CSLSans-Medium.ufo
<glyph name="ampersand" format="2">
  <advance width="707"/>
  <unicode hex="0026"/>
  <outline>
    <contour>
      <point x="300" y="81" type="qcurve" smooth="yes"/>
      <point x="379" y="81"/>
      <point x="430" y="134" type="qcurve"/>
      <point x="260" y="317" type="line"/>
      <point x="221" y="297"/>
      <point x="175" y="244"/>
      <point x="175" y="199" type="qcurve" smooth="yes"/>
      <point x="175" y="81"/>
    </contour>
    <contour>
      <point x="295" y="425" type="qcurve"/>
      <point x="338" y="448"/>
      <point x="397" y="505"/>
      <point x="397" y="542" type="qcurve" smooth="yes"/>
      <point x="397" y="550" type="line" smooth="yes"/>
      <point x="397" y="585"/>
      <point x="353" y="623"/>
      <point x="317" y="623" type="qcurve" smooth="yes"/>
      <point x="281" y="623"/>
      <point x="231" y="580"/>
      <point x="231" y="545" type="qcurve" smooth="yes"/>
      <point x="231" y="514"/>
      <point x="257" y="466"/>
    </contour>
    <contour>
      <point x="287" y="-12" type="qcurve" smooth="yes"/>
      <point x="182" y="-12"/>
      <point x="63" y="97"/>
      <point x="63" y="182" type="qcurve" smooth="yes"/>
      <point x="63" y="252"/>
      <point x="143" y="346"/>
      <point x="205" y="378" type="qcurve"/>
      <point x="126" y="460"/>
      <point x="126" y="542" type="qcurve" smooth="yes"/>
      <point x="126" y="614"/>
      <point x="230" y="710"/>
      <point x="317" y="710" type="qcurve" smooth="yes"/>
      <point x="393" y="710"/>
      <point x="502" y="630"/>
      <point x="502" y="556" type="qcurve" smooth="yes"/>
      <point x="502" y="511"/>
      <point x="460" y="443"/>
      <point x="392" y="389"/>
      <point x="350" y="365" type="qcurve"/>
      <point x="486" y="218" type="line"/>
      <point x="514" y="291"/>
      <point x="518" y="375" type="qcurve"/>
      <point x="667" y="375" type="line"/>
      <point x="667" y="283" type="line"/>
      <point x="599" y="283" type="line"/>
      <point x="584" y="207"/>
      <point x="553" y="148" type="qcurve"/>
      <point x="690" y="0" type="line"/>
      <point x="554" y="0" type="line"/>
      <point x="489" y="71" type="line"/>
      <point x="472" y="53"/>
      <point x="417" y="15"/>
      <point x="339" y="-12"/>
    </contour>
  </outline>
</glyph>
<glyph name="parenleft" format="2">
  <advance width="336"/>
  <unicode hex="0028"/>
  <outline>
    <contour>
      <point x="241" y="-138" type="line"/>
      <point x="161" y="-69"/>
      <point x="63" y="170"/>
      <point x="63" y="311" type="qcurve" smooth="yes"/>
      <point x="63" y="452"/>
      <point x="161" y="691"/>
      <point x="241" y="760" type="qcurve"/>
      <point x="344" y="760" type="line"/>
      <point x="258" y="679"/>
      <point x="166" y="461"/>
      <point x="166" y="351" type="qcurve" smooth="yes"/>
      <point x="166" y="271" type="line" smooth="yes"/>
      <point x="166" y="155"/>
      <point x="264" y="-65"/>
      <point x="344" y="-138" type="qcurve"/>
    </contour>
  </outline>
</glyph>
<glyph name="comma" format="2">
  <advance width="300"/>
  <unicode hex="002C"/>
  <outline>
    <contour>
      <point x="44" y="-138" type="line"/>
      <point x="108" y="-78"/>
      <point x="129" y="-9" type="qcurve"/>
      <point x="103" y="-3"/>
      <point x="77" y="31"/>
      <point x="77" y="55" type="qcurve" smooth="yes"/>
      <point x="77" y="71" type="line" smooth="yes"/>
      <point x="77" y="101"/>
      <point x="113" y="139"/>
      <point x="150" y="139" type="qcurve" smooth="yes"/>
      <point x="187" y="139"/>
      <point x="223" y="101"/>
      <point x="223" y="71" type="qcurve" smooth="yes"/>
      <point x="223" y="55" type="line" smooth="yes"/>
      <point x="223" y="6"/>
      <point x="171" y="-100"/>
      <point x="125" y="-138" type="qcurve"/>
    </contour>
  </outline>
</glyph>
<glyph name="zero" format="2">
  <advance width="600"/>
  <unicode hex="0030"/>
  <outline>
    <contour>
      <point x="300" y="-12" type="qcurve"/>
      <point x="47" y="-11"/>
      <point x="47" y="349" type="qcurve" smooth="yes"/>
      <point x="47" y="457"/>
      <point x="98" y="619"/>
      <point x="209" y="710"/>
      <point x="300" y="710" type="qcurve" smooth="yes"/>
      <point x="430" y="710"/>
      <point x="553" y="520"/>
      <point x="553" y="349" type="qcurve" smooth="yes"/>
      <point x="553" y="178"/>
      <point x="430" y="-12"/>
    </contour>
    <contour>
      <point x="300" y="84" type="qcurve" smooth="yes"/>
      <point x="394" y="84"/>
      <point x="421" y="183" type="qcurve" smooth="yes"/>
      <point x="433" y="229"/>
      <point x="433" y="288" type="qcurve" smooth="yes"/>
      <point x="433" y="410" type="line" smooth="yes"/>
      <point x="433" y="614"/>
      <point x="300" y="614" type="qcurve" smooth="yes"/>
      <point x="206" y="614"/>
      <point x="179" y="515" type="qcurve" smooth="yes"/>
      <point x="167" y="469"/>
      <point x="167" y="410" type="qcurve" smooth="yes"/>
      <point x="167" y="288" type="line" smooth="yes"/>
      <point x="167" y="84"/>
    </contour>
  </outline>
</glyph>
<glyph name="one" format="2">
  <advance width="600"/>
  <unicode hex="0031"/>
  <outline>
    <contour>
      <point x="402" y="0" type="line"/>
      <point x="291" y="0" type="line"/>
      <point x="291" y="596" type="line"/>
      <point x="141" y="509" type="line"/>
      <point x="141" y="617" type="line"/>
      <point x="283" y="698" type="line"/>
      <point x="402" y="698" type="line"/>
    </contour>
  </outline>
</glyph>
<glyph name="nine" format="2">
  <advance width="600"/>
  <unicode hex="0039"/>
  <outline>
    <contour>
      <point x="144" y="0" type="line"/>
      <point x="262" y="83"/>
      <point x="402" y="247"/>
      <point x="427" y="357" type="qcurve"/>
      <point x="420" y="359" type="line"/>
      <point x="399" y="317"/>
      <point x="325" y="257"/>
      <point x="258" y="257" type="qcurve" smooth="yes"/>
      <point x="170" y="257"/>
      <point x="53" y="376"/>
      <point x="53" y="473" type="qcurve" smooth="yes"/>
      <point x="53" y="579"/>
      <point x="188" y="710"/>
      <point x="298" y="710" type="qcurve" smooth="yes"/>
      <point x="419" y="710"/>
      <point x="544" y="558"/>
      <point x="544" y="438" type="qcurve" smooth="yes"/>
      <point x="544" y="338"/>
      <point x="467" y="167"/>
      <point x="353" y="38"/>
      <point x="294" y="0" type="qcurve"/>
    </contour>
    <contour>
      <point x="298" y="348" type="qcurve" smooth="yes"/>
      <point x="427" y="350"/>
      <point x="427" y="476" type="qcurve" smooth="yes"/>
      <point x="427" y="490" type="line" smooth="yes"/>
      <point x="427" y="553"/>
      <point x="359" y="618"/>
      <point x="298" y="618" type="qcurve" smooth="yes"/>
      <point x="169" y="616"/>
      <point x="169" y="490" type="qcurve" smooth="yes"/>
      <point x="169" y="476" type="line" smooth="yes"/>
      <point x="169" y="413"/>
      <point x="237" y="348"/>
    </contour>
  </outline>
</glyph>
<glyph name="colon" format="2">
  <advance width="300"/>
  <unicode hex="003A"/>
  <outline>
    <contour>
      <point x="150" y="-12" type="qcurve" smooth="yes"/>
      <point x="113" y="-12"/>
      <point x="77" y="27"/>
      <point x="77" y="56" type="qcurve" smooth="yes"/>
      <point x="77" y="71" type="line" smooth="yes"/>
      <point x="77" y="100"/>
      <point x="113" y="139"/>
      <point x="150" y="139" type="qcurve" smooth="yes"/>
      <point x="187" y="139"/>
      <point x="223" y="100"/>
      <point x="223" y="71" type="qcurve" smooth="yes"/>
      <point x="223" y="56" type="line" smooth="yes"/>
      <point x="223" y="27"/>
      <point x="187" y="-12"/>
    </contour>
    <contour>
      <point x="150" y="376" type="qcurve" smooth="yes"/>
      <point x="113" y="376"/>
      <point x="77" y="415"/>
      <point x="77" y="444" type="qcurve" smooth="yes"/>
      <point x="77" y="459" type="line" smooth="yes"/>
      <point x="77" y="488"/>
      <point x="113" y="527"/>
      <point x="150" y="527" type="qcurve" smooth="yes"/>
      <point x="187" y="527"/>
      <point x="223" y="488"/>
      <point x="223" y="459" type="qcurve" smooth="yes"/>
      <point x="223" y="444" type="line" smooth="yes"/>
      <point x="223" y="415"/>
      <point x="187" y="376"/>
    </contour>
  </outline>
</glyph>
<glyph name="semicolon" format="2">
  <advance width="309"/>
  <unicode hex="003B"/>
  <outline>
    <contour>
      <point x="48" y="-138" type="line"/>
      <point x="112" y="-78"/>
      <point x="133" y="-9" type="qcurve"/>
      <point x="107" y="-3"/>
      <point x="81" y="31"/>
      <point x="81" y="55" type="qcurve" smooth="yes"/>
      <point x="81" y="71" type="line" smooth="yes"/>
      <point x="81" y="101"/>
      <point x="117" y="139"/>
      <point x="154" y="139" type="qcurve" smooth="yes"/>
      <point x="191" y="139"/>
      <point x="227" y="101"/>
      <point x="227" y="71" type="qcurve" smooth="yes"/>
      <point x="227" y="55" type="line" smooth="yes"/>
      <point x="227" y="6"/>
      <point x="175" y="-100"/>
      <point x="129" y="-138" type="qcurve"/>
    </contour>
    <contour>
      <point x="155" y="376" type="qcurve" smooth="yes"/>
      <point x="118" y="376"/>
      <point x="82" y="415"/>
      <point x="82" y="444" type="qcurve" smooth="yes"/>
      <point x="82" y="459" type="line" smooth="yes"/>
      <point x="82" y="488"/>
      <point x="118" y="527"/>
      <point x="155" y="527" type="qcurve" smooth="yes"/>
      <point x="192" y="527"/>
      <point x="228" y="488"/>
      <point x="228" y="459" type="qcurve" smooth="yes"/>
      <point x="228" y="444" type="line" smooth="yes"/>
      <point x="228" y="415"/>
      <point x="192" y="376"/>
    </contour>
  </outline>
</glyph>
<glyph name="g" format="2">
  <advance width="543"/>
  <unicode hex="0067"/>
  <outline>
    <contour>
      <point x="305" y="-133" type="line" smooth="yes"/>
      <point x="432" y="-133"/>
      <point x="432" y="-61" type="qcurve" smooth="yes"/>
      <point x="432" y="-33"/>
      <point x="389" y="-2"/>
      <point x="337" y="-2" type="qcurve" smooth="yes"/>
      <point x="161" y="-2" type="line"/>
      <point x="125" y="-23"/>
      <point x="125" y="-62" type="qcurve" smooth="yes"/>
      <point x="125" y="-133"/>
      <point x="237" y="-133" type="qcurve" smooth="yes"/>
    </contour>
    <contour>
      <point x="269" y="257" type="qcurve" smooth="yes"/>
      <point x="370" y="257"/>
      <point x="370" y="345" type="qcurve" smooth="yes"/>
      <point x="370" y="377"/>
      <point x="361" y="417"/>
      <point x="344" y="432" type="qcurve"/>
      <point x="317" y="453"/>
      <point x="269" y="453" type="qcurve" smooth="yes"/>
      <point x="168" y="453"/>
      <point x="168" y="365" type="qcurve" smooth="yes"/>
      <point x="168" y="333"/>
      <point x="177" y="293"/>
      <point x="195" y="279" type="qcurve"/>
      <point x="221" y="257"/>
    </contour>
    <contour>
      <point x="270" y="-212" type="qcurve" smooth="yes"/>
      <point x="145" y="-212"/>
      <point x="34" y="-147"/>
      <point x="34" y="-87" type="qcurve" smooth="yes"/>
      <point x="34" y="-5"/>
      <point x="123" y="13" type="qcurve"/>
      <point x="123" y="24" type="line"/>
      <point x="64" y="43"/>
      <point x="64" y="104" type="qcurve" smooth="yes"/>
      <point x="64" y="174"/>
      <point x="157" y="196" type="qcurve"/>
      <point x="157" y="200" type="line"/>
      <point x="61" y="245"/>
      <point x="61" y="354" type="qcurve" smooth="yes"/>
      <point x="61" y="430"/>
      <point x="164" y="532"/>
      <point x="268" y="532" type="qcurve" smooth="yes"/>
      <point x="316" y="532"/>
      <point x="355" y="520" type="qcurve"/>
      <point x="522" y="520" type="line"/>
      <point x="522" y="441" type="line"/>
      <point x="449" y="441" type="line"/>
      <point x="477" y="405"/>
      <point x="477" y="354" type="qcurve" smooth="yes"/>
      <point x="477" y="279"/>
      <point x="374" y="178"/>
      <point x="269" y="178" type="qcurve" smooth="yes"/>
      <point x="233" y="178"/>
      <point x="201" y="186" type="qcurve"/>
      <point x="151" y="170"/>
      <point x="151" y="134" type="qcurve" smooth="yes"/>
      <point x="151" y="95"/>
      <point x="224" y="95" type="qcurve" smooth="yes"/>
      <point x="352" y="95" type="line" smooth="yes"/>
      <point x="534" y="95"/>
      <point x="534" y="-49" type="qcurve" smooth="yes"/>
      <point x="534" y="-134"/>
      <point x="403" y="-212"/>
    </contour>
  </outline>
</glyph>
<glyph name="cent" format="2">
  <advance width="529"/>
  <unicode hex="00A2"/>
  <outline>
    <contour>
      <point x="235" y="-114" type="line"/>
      <point x="235" y="-8" type="line"/>
      <point x="144" y="8"/>
      <point x="44" y="147"/>
      <point x="44" y="258" type="qcurve" smooth="yes"/>
      <point x="44" y="370"/>
      <point x="144" y="509"/>
      <point x="235" y="524" type="qcurve"/>
      <point x="235" y="630" type="line"/>
      <point x="322" y="630" type="line"/>
      <point x="322" y="526" type="line"/>
      <point x="445" y="506"/>
      <point x="485" y="406" type="qcurve"/>
      <point x="403" y="361" type="line"/>
      <point x="379" y="422"/>
      <point x="317" y="437" type="qcurve"/>
      <point x="317" y="79" type="line"/>
      <point x="384" y="93"/>
      <point x="414" y="159" type="qcurve"/>
      <point x="492" y="111" type="line"/>
      <point x="448" y="9"/>
      <point x="322" y="-10" type="qcurve"/>
      <point x="322" y="-114" type="line"/>
    </contour>
    <contour>
      <point x="240" y="435" type="line"/>
      <point x="197" y="423"/>
      <point x="153" y="352"/>
      <point x="153" y="301" type="qcurve" smooth="yes"/>
      <point x="153" y="215" type="line" smooth="yes"/>
      <point x="153" y="165"/>
      <point x="196" y="94"/>
      <point x="240" y="81" type="qcurve"/>
    </contour>
  </outline>
</glyph>
<glyph name="ordmasculine" format="2">
  <advance width="414"/>
  <unicode hex="00BA"/>
  <outline>
    <contour>
      <point x="207" y="405" type="qcurve" smooth="yes"/>
      <point x="247" y="405"/>
      <point x="288" y="454"/>
      <point x="288" y="496" type="qcurve" smooth="yes"/>
      <point x="288" y="556" type="line"/>
      <point x="287" y="647"/>
      <point x="207" y="647" type="qcurve" smooth="yes"/>
      <point x="167" y="647"/>
      <point x="126" y="598"/>
      <point x="126" y="556" type="qcurve" smooth="yes"/>
      <point x="126" y="496" type="line"/>
      <point x="128" y="405"/>
    </contour>
    <contour>
      <point x="207" y="342" type="qcurve" smooth="yes"/>
      <point x="129" y="342"/>
      <point x="41" y="440"/>
      <point x="41" y="526" type="qcurve" smooth="yes"/>
      <point x="41" y="612"/>
      <point x="129" y="710"/>
      <point x="207" y="710" type="qcurve" smooth="yes"/>
      <point x="285" y="710"/>
      <point x="373" y="612"/>
      <point x="373" y="526" type="qcurve" smooth="yes"/>
      <point x="373" y="440"/>
      <point x="285" y="342"/>
    </contour>
  </outline>
</glyph>
<glyph name="onehalf" format="2">
  <advance width="800"/>
  <unicode hex="00BD"/>
  <outline>
    <contour>
      <point x="769" y="0" type="line"/>
      <point x="490" y="0" type="line"/>
      <point x="490" y="70" type="line"/>
      <point x="611" y="166" type="line"/>
      <point x="648" y="194"/>
      <point x="675" y="235"/>
      <point x="675" y="261" type="qcurve" smooth="yes"/>
      <point x="675" y="285"/>
      <point x="644" y="309"/>
      <point x="619" y="309" type="qcurve" smooth="yes"/>
      <point x="567" y="309"/>
      <point x="551" y="256" type="qcurve"/>
      <point x="482" y="282" type="line"/>
      <point x="495" y="321"/>
      <point x="565" y="375"/>
      <point x="626" y="375" type="qcurve" smooth="yes"/>
      <point x="690" y="375"/>
      <point x="760" y="313"/>
      <point x="760" y="264" type="qcurve" smooth="yes"/>
      <point x="760" y="218"/>
      <point x="701" y="150"/>
      <point x="617" y="93"/>
      <point x="576" y="64" type="qcurve"/>
      <point x="769" y="64" type="line"/>
    </contour>
    <contour>
      <point x="171" y="0" type="line"/>
      <point x="82" y="0" type="line"/>
      <point x="587" y="698" type="line"/>
      <point x="675" y="698" type="line"/>
    </contour>
    <contour>
      <point x="234" y="329" type="line"/>
      <point x="155" y="329" type="line"/>
      <point x="155" y="628" type="line"/>
      <point x="75" y="588" type="line"/>
      <point x="75" y="660" type="line"/>
      <point x="150" y="698" type="line"/>
      <point x="234" y="698" type="line"/>
    </contour>
  </outline>
</glyph>
<glyph name="questiondown" format="2">
  <advance width="479"/>
  <unicode hex="00BF"/>
  <outline>
    <contour>
      <point x="264" y="383" type="qcurve" smooth="yes"/>
      <point x="226" y="383"/>
      <point x="191" y="420"/>
      <point x="191" y="449" type="qcurve" smooth="yes"/>
      <point x="191" y="466" type="line" smooth="yes"/>
      <point x="191" y="495"/>
      <point x="226" y="532"/>
      <point x="264" y="532" type="qcurve" smooth="yes"/>
      <point x="302" y="532"/>
      <point x="337" y="495"/>
      <point x="337" y="466" type="qcurve" smooth="yes"/>
      <point x="337" y="449" type="line" smooth="yes"/>
      <point x="337" y="420"/>
      <point x="302" y="383"/>
    </contour>
    <contour>
      <point x="248" y="-190" type="qcurve" smooth="yes"/>
      <point x="146" y="-190"/>
      <point x="33" y="-79"/>
      <point x="33" y="6" type="qcurve" smooth="yes"/>
      <point x="33" y="65"/>
      <point x="85" y="150"/>
      <point x="166" y="201"/>
      <point x="213" y="209" type="qcurve"/>
      <point x="213" y="301" type="line"/>
      <point x="317" y="301" type="line"/>
      <point x="317" y="142" type="line"/>
      <point x="149" y="135"/>
      <point x="149" y="17" type="qcurve" smooth="yes"/>
      <point x="149" y="3" type="line" smooth="yes"/>
      <point x="149" y="-43"/>
      <point x="205" y="-94"/>
      <point x="252" y="-94" type="qcurve" smooth="yes"/>
      <point x="302" y="-94"/>
      <point x="362" y="-37"/>
      <point x="373" y="9" type="qcurve"/>
      <point x="468" y="-29" type="line"/>
      <point x="456" y="-71"/>
      <point x="401" y="-144"/>
      <point x="311" y="-190"/>
    </contour>
  </outline>
</glyph>
<glyph name="Aring" format="2">
  <advance width="662"/>
  <unicode hex="00C5"/>
  <outline>
    <contour>
      <point x="331" y="594" type="line"/>
      <point x="326" y="594" type="line"/>
      <point x="225" y="286" type="line"/>
      <point x="431" y="286" type="line"/>
    </contour>
    <contour>
      <point x="330" y="795" type="qcurve"/>
      <point x="385" y="799"/>
      <point x="385" y="848" type="qcurve" smooth="yes"/>
      <point x="385" y="875" type="line"/>
      <point x="383" y="928"/>
      <point x="330" y="928" type="qcurve"/>
      <point x="275" y="925"/>
      <point x="275" y="875" type="qcurve" smooth="yes"/>
      <point x="275" y="848" type="line"/>
      <point x="278" y="795"/>
    </contour>
    <contour>
      <point x="522" y="0" type="line"/>
      <point x="459" y="189" type="line"/>
      <point x="198" y="189" type="line"/>
      <point x="137" y="0" type="line"/>
      <point x="22" y="0" type="line"/>
      <point x="260" y="698" type="line"/>
      <point x="402" y="698" type="line"/>
      <point x="640" y="0" type="line"/>
    </contour>
    <contour>
      <point x="330" y="734" type="qcurve" smooth="yes"/>
      <point x="273" y="734"/>
      <point x="200" y="808"/>
      <point x="200" y="861" type="qcurve" smooth="yes"/>
      <point x="200" y="914"/>
      <point x="273" y="988"/>
      <point x="330" y="988" type="qcurve" smooth="yes"/>
      <point x="386" y="988"/>
      <point x="460" y="916"/>
      <point x="460" y="861" type="qcurve" smooth="yes"/>
      <point x="460" y="806"/>
      <point x="386" y="734"/>
    </contour>
  </outline>
</glyph>
<glyph name="Ccedilla" format="2">
  <advance width="634"/>
  <unicode hex="00C7"/>
  <outline>
    <contour>
      <point x="349" y="-209" type="qcurve" smooth="yes"/>
      <point x="272" y="-209"/>
      <point x="239" y="-167" type="qcurve"/>
      <point x="281" y="-119" type="line"/>
      <point x="302" y="-148"/>
      <point x="344" y="-148" type="qcurve" smooth="yes"/>
      <point x="363" y="-148"/>
      <point x="388" y="-134"/>
      <point x="388" y="-119" type="qcurve" smooth="yes"/>
      <point x="388" y="-107"/>
      <point x="375" y="-95" type="qcurve"/>
      <point x="356" y="-81"/>
      <point x="292" y="-76" type="qcurve"/>
      <point x="305" y="-9" type="line"/>
      <point x="186" y="6"/>
      <point x="55" y="187"/>
      <point x="55" y="349" type="qcurve" smooth="yes"/>
      <point x="55" y="530"/>
      <point x="216" y="710"/>
      <point x="348" y="710" type="qcurve" smooth="yes"/>
      <point x="526" y="710"/>
      <point x="597" y="552" type="qcurve"/>
      <point x="502" y="500" type="line"/>
      <point x="464" y="609"/>
      <point x="348" y="609" type="qcurve" smooth="yes"/>
      <point x="267" y="609"/>
      <point x="175" y="499"/>
      <point x="175" y="402" type="qcurve" smooth="yes"/>
      <point x="175" y="296" type="line" smooth="yes"/>
      <point x="175" y="199"/>
      <point x="267" y="89"/>
      <point x="348" y="89" type="qcurve" smooth="yes"/>
      <point x="411" y="89"/>
      <point x="490" y="153"/>
      <point x="509" y="205" type="qcurve"/>
      <point x="600" y="150" type="line"/>
      <point x="534" y="0"/>
      <point x="362" y="-12" type="qcurve"/>
      <point x="353" y="-58" type="line"/>
      <point x="356" y="-62" type="line"/>
      <point x="377" y="-55"/>
      <point x="399" y="-55" type="qcurve" smooth="yes"/>
      <point x="428" y="-55"/>
      <point x="469" y="-88"/>
      <point x="469" y="-123" type="qcurve" smooth="yes"/>
      <point x="469" y="-168"/>
      <point x="396" y="-209"/>
    </contour>
  </outline>
</glyph>
<glyph name="Iacute" format="2">
  <advance width="285"/>
  <unicode hex="00CD"/>
  <outline>
    <contour>
      <point x="96" y="781" type="line"/>
      <point x="187" y="961" type="line"/>
      <point x="282" y="915" type="line"/>
      <point x="164" y="749" type="line"/>
    </contour>
    <contour>
      <point x="96" y="0" type="line"/>
      <point x="96" y="698" type="line"/>
      <point x="209" y="698" type="line"/>
      <point x="209" y="0" type="line"/>
    </contour>
  </outline>
</glyph>
<glyph name="Udieresis" format="2">
  <advance width="686"/>
  <unicode hex="00DC"/>
  <outline>
    <contour>
      <point x="243" y="776" type="qcurve" smooth="yes"/>
      <point x="209" y="776"/>
      <point x="180" y="807"/>
      <point x="180" y="830" type="qcurve" smooth="yes"/>
      <point x="180" y="848" type="line" smooth="yes"/>
      <point x="180" y="871"/>
      <point x="209" y="902"/>
      <point x="243" y="902" type="qcurve" smooth="yes"/>
      <point x="277" y="902"/>
      <point x="306" y="871"/>
      <point x="306" y="848" type="qcurve" smooth="yes"/>
      <point x="306" y="830" type="line" smooth="yes"/>
      <point x="306" y="807"/>
      <point x="277" y="776"/>
    </contour>
    <contour>
      <point x="443" y="776" type="qcurve" smooth="yes"/>
      <point x="409" y="776"/>
      <point x="380" y="807"/>
      <point x="380" y="830" type="qcurve" smooth="yes"/>
      <point x="380" y="848" type="line" smooth="yes"/>
      <point x="380" y="871"/>
      <point x="409" y="902"/>
      <point x="443" y="902" type="qcurve" smooth="yes"/>
      <point x="477" y="902"/>
      <point x="506" y="871"/>
      <point x="506" y="848" type="qcurve" smooth="yes"/>
      <point x="506" y="830" type="line" smooth="yes"/>
      <point x="506" y="807"/>
      <point x="477" y="776"/>
    </contour>
    <contour>
      <point x="343" y="-12" type="qcurve" smooth="yes"/>
      <point x="200" y="-12"/>
      <point x="82" y="133"/>
      <point x="82" y="286" type="qcurve" smooth="yes"/>
      <point x="82" y="698" type="line"/>
      <point x="193" y="698" type="line"/>
      <point x="193" y="268" type="line" smooth="yes"/>
      <point x="193" y="179"/>
      <point x="261" y="89"/>
      <point x="343" y="89" type="qcurve" smooth="yes"/>
      <point x="425" y="89"/>
      <point x="493" y="179"/>
      <point x="493" y="268" type="qcurve" smooth="yes"/>
      <point x="493" y="698" type="line"/>
      <point x="604" y="698" type="line"/>
      <point x="604" y="286" type="line" smooth="yes"/>
      <point x="604" y="133"/>
      <point x="486" y="-12"/>
    </contour>
  </outline>
</glyph>
<glyph name="igrave" format="2">
  <advance width="265"/>
  <unicode hex="00EC"/>
  <outline>
    <contour>
      <point x="78" y="0" type="line"/>
      <point x="78" y="520" type="line"/>
      <point x="187" y="520" type="line"/>
      <point x="187" y="0" type="line"/>
    </contour>
    <contour>
      <point x="5" y="749" type="line"/>
      <point x="100" y="795" type="line"/>
      <point x="191" y="615" type="line"/>
      <point x="123" y="582" type="line"/>
    </contour>
  </outline>
</glyph>
<glyph name="oacute" format="2">
  <advance width="564"/>
  <unicode hex="00F3"/>
  <outline>
    <contour>
      <point x="282" y="78" type="qcurve" smooth="yes"/>
      <point x="338" y="78"/>
      <point x="406" y="147"/>
      <point x="406" y="216" type="qcurve" smooth="yes"/>
      <point x="406" y="304" type="line" smooth="yes"/>
      <point x="406" y="373"/>
      <point x="338" y="442"/>
      <point x="282" y="442" type="qcurve" smooth="yes"/>
      <point x="226" y="442"/>
      <point x="158" y="373"/>
      <point x="158" y="304" type="qcurve" smooth="yes"/>
      <point x="158" y="216" type="line" smooth="yes"/>
      <point x="158" y="147"/>
      <point x="226" y="78"/>
    </contour>
    <contour>
      <point x="282" y="-12" type="qcurve" smooth="yes"/>
      <point x="170" y="-12"/>
      <point x="43" y="140"/>
      <point x="43" y="260" type="qcurve" smooth="yes"/>
      <point x="43" y="388"/>
      <point x="176" y="532"/>
      <point x="282" y="532" type="qcurve" smooth="yes"/>
      <point x="388" y="532"/>
      <point x="521" y="388"/>
      <point x="521" y="260" type="qcurve" smooth="yes"/>
      <point x="521" y="140"/>
      <point x="394" y="-12"/>
    </contour>
    <contour>
      <point x="225" y="615" type="line"/>
      <point x="316" y="795" type="line"/>
      <point x="411" y="749" type="line"/>
      <point x="293" y="582" type="line"/>
    </contour>
  </outline>
</glyph>
<glyph name="udieresis" format="2">
  <advance width="580"/>
  <unicode hex="00FC"/>
  <outline>
    <contour>
      <point x="243" y="-12" type="qcurve" smooth="yes"/>
      <point x="162" y="-12"/>
      <point x="73" y="92"/>
      <point x="73" y="189" type="qcurve" smooth="yes"/>
      <point x="73" y="520" type="line"/>
      <point x="182" y="520" type="line"/>
      <point x="182" y="203" type="line" smooth="yes"/>
      <point x="182" y="82"/>
      <point x="282" y="82" type="qcurve" smooth="yes"/>
      <point x="324" y="82"/>
      <point x="393" y="126"/>
      <point x="393" y="172" type="qcurve" smooth="yes"/>
      <point x="393" y="520" type="line"/>
      <point x="502" y="520" type="line"/>
      <point x="502" y="0" type="line"/>
      <point x="393" y="0" type="line"/>
      <point x="393" y="86" type="line"/>
      <point x="389" y="86" type="line"/>
      <point x="357" y="-12"/>
    </contour>
    <contour>
      <point x="189" y="610" type="qcurve" smooth="yes"/>
      <point x="127" y="610"/>
      <point x="127" y="663" type="qcurve" smooth="yes"/>
      <point x="127" y="681" type="line" smooth="yes"/>
      <point x="127" y="734"/>
      <point x="189" y="734" type="qcurve" smooth="yes"/>
      <point x="251" y="734"/>
      <point x="251" y="681" type="qcurve" smooth="yes"/>
      <point x="251" y="663" type="line" smooth="yes"/>
      <point x="251" y="610"/>
    </contour>
    <contour>
      <point x="389" y="610" type="qcurve" smooth="yes"/>
      <point x="327" y="610"/>
      <point x="327" y="663" type="qcurve" smooth="yes"/>
      <point x="327" y="681" type="line" smooth="yes"/>
      <point x="327" y="734"/>
      <point x="389" y="734" type="qcurve" smooth="yes"/>
      <point x="451" y="734"/>
      <point x="451" y="681" type="qcurve" smooth="yes"/>
      <point x="451" y="663" type="line" smooth="yes"/>
      <point x="451" y="610"/>
    </contour>
  </outline>
</glyph>
<glyph name="Ebreve" format="2">
  <advance width="593"/>
  <unicode hex="0114"/>
  <outline>
    <contour>
      <point x="86" y="0" type="line"/>
      <point x="86" y="698" type="line"/>
      <point x="533" y="698" type="line"/>
      <point x="533" y="598" type="line"/>
      <point x="199" y="598" type="line"/>
      <point x="199" y="404" type="line"/>
      <point x="502" y="404" type="line"/>
      <point x="502" y="304" type="line"/>
      <point x="199" y="304" type="line"/>
      <point x="199" y="100" type="line"/>
      <point x="533" y="100" type="line"/>
      <point x="533" y="0" type="line"/>
    </contour>
    <contour>
      <point x="308" y="755" type="qcurve" smooth="yes"/>
      <point x="253" y="755"/>
      <point x="186" y="802"/>
      <point x="148" y="868"/>
      <point x="140" y="899" type="qcurve"/>
      <point x="200" y="930" type="line"/>
      <point x="220" y="897" type="line"/>
      <point x="236" y="868"/>
      <point x="274" y="835"/>
      <point x="308" y="835" type="qcurve" smooth="yes"/>
      <point x="342" y="835"/>
      <point x="380" y="868"/>
      <point x="396" y="897" type="qcurve"/>
      <point x="416" y="930" type="line"/>
      <point x="476" y="899" type="line"/>
      <point x="466" y="867"/>
      <point x="429" y="801"/>
      <point x="364" y="755"/>
    </contour>
  </outline>
</glyph>
<glyph name="edot" format="2">
  <advance width="556"/>
  <unicode hex="0117"/>
  <outline>
    <contour>
      <point x="284" y="605" type="qcurve" smooth="yes"/>
      <point x="217" y="605"/>
      <point x="217" y="662" type="qcurve" smooth="yes"/>
      <point x="217" y="680" type="line" smooth="yes"/>
      <point x="217" y="737"/>
      <point x="284" y="737" type="qcurve" smooth="yes"/>
      <point x="351" y="737"/>
      <point x="351" y="680" type="qcurve" smooth="yes"/>
      <point x="351" y="662" type="line" smooth="yes"/>
      <point x="351" y="605"/>
    </contour>
    <contour>
      <point x="282" y="-12" type="qcurve" smooth="yes"/>
      <point x="173" y="-12"/>
      <point x="43" y="133"/>
      <point x="43" y="260" type="qcurve" smooth="yes"/>
      <point x="43" y="379"/>
      <point x="166" y="532"/>
      <point x="282" y="532" type="qcurve" smooth="yes"/>
      <point x="362" y="532"/>
      <point x="464" y="459"/>
      <point x="513" y="341"/>
      <point x="513" y="273" type="qcurve" smooth="yes"/>
      <point x="513" y="232" type="line"/>
      <point x="156" y="232" type="line"/>
      <point x="156" y="215" type="line" smooth="yes"/>
      <point x="156" y="155"/>
      <point x="227" y="78"/>
      <point x="293" y="78" type="qcurve" smooth="yes"/>
      <point x="381" y="78"/>
      <point x="430" y="156" type="qcurve"/>
      <point x="494" y="93" type="line"/>
      <point x="464" y="44"/>
      <point x="355" y="-12"/>
    </contour>
    <contour>
      <point x="398" y="314" type="line" smooth="yes"/>
      <point x="398" y="374"/>
      <point x="336" y="447"/>
      <point x="282" y="447" type="qcurve" smooth="yes"/>
      <point x="227" y="447"/>
      <point x="156" y="371"/>
      <point x="156" y="304" type="qcurve"/>
      <point x="398" y="304" type="line"/>
    </contour>
  </outline>
</glyph>
<glyph name="eogonek" format="2">
  <advance width="555"/>
  <unicode hex="0119"/>
  <outline>
    <contour>
      <point x="397" y="314" type="line" smooth="yes"/>
      <point x="397" y="374"/>
      <point x="336" y="447"/>
      <point x="281" y="447" type="qcurve" smooth="yes"/>
      <point x="224" y="447"/>
      <point x="156" y="371"/>
      <point x="156" y="311" type="qcurve" smooth="yes"/>
      <point x="156" y="304" type="line"/>
      <point x="397" y="304" type="line"/>
    </contour>
    <contour>
      <point x="347" y="-209" type="qcurve" smooth="yes"/>
      <point x="303" y="-209"/>
      <point x="241" y="-171"/>
      <point x="241" y="-129" type="qcurve" smooth="yes"/>
      <point x="241" y="-85"/>
      <point x="305" y="-28"/>
      <point x="348" y="-5" type="qcurve"/>
      <point x="346" y="-1" type="line"/>
      <point x="322" y="-12"/>
      <point x="281" y="-12" type="qcurve" smooth="yes"/>
      <point x="169" y="-12"/>
      <point x="43" y="137"/>
      <point x="43" y="260" type="qcurve" smooth="yes"/>
      <point x="43" y="386"/>
      <point x="171" y="532"/>
      <point x="280" y="532" type="qcurve" smooth="yes"/>
      <point x="360" y="532"/>
      <point x="463" y="460"/>
      <point x="512" y="342"/>
      <point x="512" y="273" type="qcurve" smooth="yes"/>
      <point x="512" y="232" type="line"/>
      <point x="156" y="232" type="line"/>
      <point x="156" y="215" type="line" smooth="yes"/>
      <point x="156" y="155"/>
      <point x="226" y="78"/>
      <point x="294" y="78" type="qcurve" smooth="yes"/>
      <point x="385" y="78"/>
      <point x="430" y="155" type="qcurve"/>
      <point x="494" y="93" type="line"/>
      <point x="477" y="66"/>
      <point x="429" y="26" type="qcurve"/>
      <point x="400" y="-2" type="line"/>
      <point x="368" y="-31"/>
      <point x="320" y="-87"/>
      <point x="320" y="-115" type="qcurve" smooth="yes"/>
      <point x="320" y="-147"/>
      <point x="354" y="-147" type="qcurve" smooth="yes"/>
      <point x="384" y="-147"/>
      <point x="405" y="-121" type="qcurve"/>
      <point x="449" y="-165" type="line"/>
      <point x="425" y="-209"/>
    </contour>
  </outline>
</glyph>
<glyph name="Ecaron" format="2">
  <advance width="593"/>
  <unicode hex="011A"/>
  <outline>
    <contour>
      <point x="254" y="760" type="line"/>
      <point x="134" y="910" type="line"/>
      <point x="190" y="952" type="line"/>
      <point x="309" y="836" type="line"/>
      <point x="428" y="952" type="line"/>
      <point x="484" y="910" type="line"/>
      <point x="364" y="760" type="line"/>
    </contour>
    <contour>
      <point x="86" y="0" type="line"/>
      <point x="86" y="698" type="line"/>
      <point x="533" y="698" type="line"/>
      <point x="533" y="598" type="line"/>
      <point x="199" y="598" type="line"/>
      <point x="199" y="404" type="line"/>
      <point x="502" y="404" type="line"/>
      <point x="502" y="304" type="line"/>
      <point x="199" y="304" type="line"/>
      <point x="199" y="100" type="line"/>
      <point x="533" y="100" type="line"/>
      <point x="533" y="0" type="line"/>
    </contour>
  </outline>
</glyph>
<glyph name="Gdotaccent" format="2">
  <advance width="674"/>
  <unicode hex="0120"/>
  <outline>
    <contour>
      <point x="46" y="349" type="qcurve" smooth="yes"/>
      <point x="46" y="438"/>
      <point x="87" y="573"/>
      <point x="165" y="664"/>
      <point x="277" y="710"/>
      <point x="347" y="710" type="qcurve" smooth="yes"/>
      <point x="397" y="710"/>
      <point x="478" y="686"/>
      <point x="543" y="643"/>
      <point x="591" y="584"/>
      <point x="607" y="549" type="qcurve"/>
      <point x="516" y="500" type="line"/>
      <point x="499" y="548"/>
      <point x="418" y="615"/>
      <point x="348" y="615" type="qcurve" smooth="yes"/>
      <point x="303" y="615"/>
      <point x="235" y="584"/>
      <point x="189" y="529"/>
      <point x="165" y="453"/>
      <point x="165" y="408" type="qcurve" smooth="yes"/>
      <point x="165" y="298" type="line" smooth="yes"/>
      <point x="165" y="251"/>
      <point x="185" y="172"/>
      <point x="230" y="115"/>
      <point x="300" y="83"/>
      <point x="350" y="83" type="qcurve" smooth="yes"/>
      <point x="386" y="83"/>
      <point x="445" y="103"/>
      <point x="489" y="142"/>
      <point x="513" y="200"/>
      <point x="513" y="238" type="qcurve" smooth="yes"/>
      <point x="513" y="275" type="line"/>
      <point x="331" y="275" type="line"/>
      <point x="331" y="371" type="line"/>
      <point x="621" y="371" type="line"/>
      <point x="621" y="262" type="line" smooth="yes"/>
      <point x="621" y="186"/>
      <point x="570" y="81"/>
      <point x="489" y="17"/>
      <point x="388" y="-12"/>
      <point x="337" y="-12" type="qcurve" smooth="yes"/>
      <point x="276" y="-12"/>
      <point x="170" y="30"/>
      <point x="91" y="119"/>
      <point x="46" y="255"/>
    </contour>
    <contour>
      <point x="351" y="773" type="qcurve" smooth="yes"/>
      <point x="318" y="773"/>
      <point x="287" y="805"/>
      <point x="287" y="830" type="qcurve" smooth="yes"/>
      <point x="287" y="848" type="line" smooth="yes"/>
      <point x="287" y="873"/>
      <point x="318" y="905"/>
      <point x="351" y="905" type="qcurve" smooth="yes"/>
      <point x="385" y="905"/>
      <point x="415" y="873"/>
      <point x="415" y="848" type="qcurve" smooth="yes"/>
      <point x="415" y="830" type="line" smooth="yes"/>
      <point x="415" y="805"/>
      <point x="385" y="773"/>
    </contour>
  </outline>
</glyph>
<glyph name="Imacron" format="2">
  <advance width="285"/>
  <unicode hex="012A"/>
  <outline>
    <contour>
      <point x="86" y="0" type="line"/>
      <point x="86" y="698" type="line"/>
      <point x="199" y="698" type="line"/>
      <point x="199" y="0" type="line"/>
    </contour>
    <contour>
      <point x="-3" y="798" type="line"/>
      <point x="-3" y="881" type="line"/>
      <point x="289" y="881" type="line"/>
      <point x="289" y="798" type="line"/>
    </contour>
  </outline>
</glyph>
<glyph name="ibreve" format="2">
  <advance width="265"/>
  <unicode hex="012D"/>
  <outline>
    <contour>
      <point x="78" y="0" type="line"/>
      <point x="78" y="520" type="line"/>
      <point x="187" y="520" type="line"/>
      <point x="187" y="0" type="line"/>
    </contour>
    <contour>
      <point x="133" y="589" type="qcurve" smooth="yes"/>
      <point x="77" y="589"/>
      <point x="12" y="635"/>
      <point x="-25" y="701"/>
      <point x="-35" y="733" type="qcurve"/>
      <point x="25" y="763" type="line"/>
      <point x="46" y="730" type="line"/>
      <point x="62" y="702"/>
      <point x="100" y="669"/>
      <point x="133" y="669" type="qcurve" smooth="yes"/>
      <point x="166" y="669"/>
      <point x="204" y="702"/>
      <point x="220" y="730" type="qcurve"/>
      <point x="241" y="763" type="line"/>
      <point x="301" y="733" type="line"/>
      <point x="291" y="701"/>
      <point x="254" y="635"/>
      <point x="189" y="589"/>
    </contour>
  </outline>
</glyph>
<glyph name="iogonek" format="2">
  <advance width="265"/>
  <unicode hex="012F"/>
  <outline>
    <contour>
      <point x="133" y="613" type="qcurve" smooth="yes"/>
      <point x="99" y="613"/>
      <point x="68" y="645"/>
      <point x="68" y="670" type="qcurve" smooth="yes"/>
      <point x="68" y="687" type="line" smooth="yes"/>
      <point x="68" y="712"/>
      <point x="99" y="744"/>
      <point x="133" y="744" type="qcurve" smooth="yes"/>
      <point x="167" y="744"/>
      <point x="197" y="712"/>
      <point x="197" y="687" type="qcurve" smooth="yes"/>
      <point x="197" y="670" type="line" smooth="yes"/>
      <point x="197" y="645"/>
      <point x="167" y="613"/>
    </contour>
    <contour>
      <point x="110" y="-209" type="qcurve" smooth="yes"/>
      <point x="66" y="-209"/>
      <point x="3" y="-171"/>
      <point x="3" y="-129" type="qcurve" smooth="yes"/>
      <point x="3" y="-89"/>
      <point x="64" y="-31"/>
      <point x="112" y="-4" type="qcurve"/>
      <point x="111" y="0" type="line"/>
      <point x="78" y="0" type="line"/>
      <point x="78" y="520" type="line"/>
      <point x="187" y="520" type="line"/>
      <point x="187" y="0" type="line"/>
      <point x="123" y="-49"/>
      <point x="82" y="-96"/>
      <point x="82" y="-115" type="qcurve" smooth="yes"/>
      <point x="82" y="-147"/>
      <point x="116" y="-147" type="qcurve" smooth="yes"/>
      <point x="148" y="-147"/>
      <point x="167" y="-121" type="qcurve"/>
      <point x="213" y="-165" type="line"/>
      <point x="189" y="-209"/>
    </contour>
  </outline>
</glyph>
<glyph name="Kcommaaccent" format="2">
  <advance width="660"/>
  <unicode hex="0136"/>
  <outline>
    <contour>
      <point x="274" y="-258" type="line"/>
      <point x="318" y="-219"/>
      <point x="329" y="-171" type="qcurve"/>
      <point x="307" y="-168"/>
      <point x="288" y="-139"/>
      <point x="288" y="-120" type="qcurve" smooth="yes"/>
      <point x="288" y="-109" type="line"/>
      <point x="289" y="-56"/>
      <point x="347" y="-56" type="qcurve" smooth="yes"/>
      <point x="406" y="-56"/>
      <point x="406" y="-109" type="qcurve" smooth="yes"/>
      <point x="406" y="-121" type="line" smooth="yes"/>
      <point x="406" y="-161"/>
      <point x="370" y="-234"/>
      <point x="343" y="-258" type="qcurve"/>
    </contour>
    <contour>
      <point x="507" y="0" type="line"/>
      <point x="295" y="326" type="line"/>
      <point x="199" y="216" type="line"/>
      <point x="199" y="0" type="line"/>
      <point x="86" y="0" type="line"/>
      <point x="86" y="698" type="line"/>
      <point x="199" y="698" type="line"/>
      <point x="199" y="344" type="line"/>
      <point x="203" y="344" type="line"/>
      <point x="300" y="467" type="line" smooth="yes"/>
      <point x="333" y="509"/>
      <point x="372" y="555" type="qcurve" smooth="yes"/>
      <point x="491" y="698" type="line"/>
      <point x="623" y="698" type="line"/>
      <point x="374" y="404" type="line"/>
      <point x="643" y="0" type="line"/>
    </contour>
  </outline>
</glyph>
<glyph name="kcommaaccent" format="2">
  <advance width="547"/>
  <unicode hex="0137"/>
  <outline>
    <contour>
      <point x="232" y="-258" type="line"/>
      <point x="276" y="-219"/>
      <point x="287" y="-171" type="qcurve"/>
      <point x="265" y="-168"/>
      <point x="246" y="-139"/>
      <point x="246" y="-120" type="qcurve" smooth="yes"/>
      <point x="246" y="-109" type="line"/>
      <point x="247" y="-56"/>
      <point x="305" y="-56" type="qcurve" smooth="yes"/>
      <point x="364" y="-56"/>
      <point x="364" y="-109" type="qcurve" smooth="yes"/>
      <point x="364" y="-121" type="line" smooth="yes"/>
      <point x="364" y="-161"/>
      <point x="328" y="-234"/>
      <point x="301" y="-258" type="qcurve"/>
    </contour>
    <contour>
      <point x="408" y="0" type="line"/>
      <point x="259" y="248" type="line"/>
      <point x="187" y="170" type="line"/>
      <point x="187" y="0" type="line"/>
      <point x="78" y="0" type="line"/>
      <point x="78" y="740" type="line"/>
      <point x="187" y="740" type="line"/>
      <point x="187" y="286" type="line"/>
      <point x="192" y="286" type="line"/>
      <point x="264" y="379" type="line"/>
      <point x="389" y="520" type="line"/>
      <point x="516" y="520" type="line"/>
      <point x="334" y="319" type="line"/>
      <point x="538" y="0" type="line"/>
    </contour>
  </outline>
</glyph>
<glyph name="lacute" format="2">
  <advance width="285"/>
  <unicode hex="013A"/>
  <outline>
    <contour>
      <point x="77" y="815" type="line"/>
      <point x="168" y="995" type="line"/>
      <point x="263" y="949" type="line"/>
      <point x="145" y="782" type="line"/>
    </contour>
    <contour>
      <point x="189" y="0" type="line" smooth="yes"/>
      <point x="133" y="0"/>
      <point x="78" y="57"/>
      <point x="78" y="108" type="qcurve" smooth="yes"/>
      <point x="78" y="740" type="line"/>
      <point x="187" y="740" type="line"/>
      <point x="187" y="89" type="line"/>
      <point x="259" y="89" type="line"/>
      <point x="259" y="0" type="line"/>
    </contour>
  </outline>
</glyph>
<glyph name="u013C" format="2">
  <advance width="285"/>
  <unicode hex="013C"/>
  <outline>
    <contour>
      <point x="95" y="-258" type="line"/>
      <point x="139" y="-219"/>
      <point x="150" y="-171" type="qcurve"/>
      <point x="128" y="-168"/>
      <point x="109" y="-139"/>
      <point x="109" y="-120" type="qcurve" smooth="yes"/>
      <point x="109" y="-109" type="line"/>
      <point x="110" y="-56"/>
      <point x="168" y="-56" type="qcurve" smooth="yes"/>
      <point x="227" y="-56"/>
      <point x="227" y="-109" type="qcurve" smooth="yes"/>
      <point x="227" y="-121" type="line" smooth="yes"/>
      <point x="227" y="-161"/>
      <point x="191" y="-234"/>
      <point x="164" y="-258" type="qcurve"/>
    </contour>
    <contour>
      <point x="189" y="0" type="line" smooth="yes"/>
      <point x="133" y="0"/>
      <point x="78" y="57"/>
      <point x="78" y="108" type="qcurve" smooth="yes"/>
      <point x="78" y="740" type="line"/>
      <point x="187" y="740" type="line"/>
      <point x="187" y="89" type="line"/>
      <point x="259" y="89" type="line"/>
      <point x="259" y="0" type="line"/>
    </contour>
  </outline>
</glyph>
<glyph name="nacute" format="2">
  <advance width="580"/>
  <unicode hex="0144"/>
  <outline>
    <contour>
      <point x="398" y="0" type="line"/>
      <point x="398" y="316" type="line" smooth="yes"/>
      <point x="398" y="438"/>
      <point x="300" y="438" type="qcurve" smooth="yes"/>
      <point x="258" y="438"/>
      <point x="187" y="395"/>
      <point x="187" y="348" type="qcurve" smooth="yes"/>
      <point x="187" y="0" type="line"/>
      <point x="78" y="0" type="line"/>
      <point x="78" y="520" type="line"/>
      <point x="187" y="520" type="line"/>
      <point x="187" y="434" type="line"/>
      <point x="192" y="434" type="line"/>
      <point x="230" y="532"/>
      <point x="338" y="532" type="qcurve" smooth="yes"/>
      <point x="418" y="532"/>
      <point x="507" y="427"/>
      <point x="507" y="330" type="qcurve" smooth="yes"/>
      <point x="507" y="0" type="line"/>
    </contour>
    <contour>
      <point x="237" y="615" type="line"/>
      <point x="328" y="795" type="line"/>
      <point x="423" y="749" type="line"/>
      <point x="305" y="582" type="line"/>
    </contour>
  </outline>
</glyph>
<glyph name="ncedilla" format="2">
  <advance width="580"/>
  <unicode hex="0146"/>
  <outline>
    <contour>
      <point x="398" y="0" type="line"/>
      <point x="398" y="316" type="line" smooth="yes"/>
      <point x="398" y="438"/>
      <point x="300" y="438" type="qcurve" smooth="yes"/>
      <point x="258" y="438"/>
      <point x="187" y="395"/>
      <point x="187" y="348" type="qcurve" smooth="yes"/>
      <point x="187" y="0" type="line"/>
      <point x="78" y="0" type="line"/>
      <point x="78" y="520" type="line"/>
      <point x="187" y="520" type="line"/>
      <point x="187" y="434" type="line"/>
      <point x="192" y="434" type="line"/>
      <point x="230" y="532"/>
      <point x="338" y="532" type="qcurve" smooth="yes"/>
      <point x="418" y="532"/>
      <point x="507" y="427"/>
      <point x="507" y="330" type="qcurve" smooth="yes"/>
      <point x="507" y="0" type="line"/>
    </contour>
    <contour>
      <point x="219" y="-258" type="line"/>
      <point x="263" y="-219"/>
      <point x="274" y="-171" type="qcurve"/>
      <point x="252" y="-168"/>
      <point x="233" y="-139"/>
      <point x="233" y="-120" type="qcurve" smooth="yes"/>
      <point x="233" y="-109" type="line"/>
      <point x="234" y="-56"/>
      <point x="292" y="-56" type="qcurve" smooth="yes"/>
      <point x="351" y="-56"/>
      <point x="351" y="-109" type="qcurve" smooth="yes"/>
      <point x="351" y="-121" type="line" smooth="yes"/>
      <point x="351" y="-161"/>
      <point x="315" y="-234"/>
      <point x="288" y="-258" type="qcurve"/>
    </contour>
  </outline>
</glyph>
<glyph name="ncaron" format="2">
  <advance width="580"/>
  <unicode hex="0148"/>
  <outline>
    <contour>
      <point x="398" y="0" type="line"/>
      <point x="398" y="316" type="line" smooth="yes"/>
      <point x="398" y="438"/>
      <point x="300" y="438" type="qcurve" smooth="yes"/>
      <point x="258" y="438"/>
      <point x="187" y="395"/>
      <point x="187" y="348" type="qcurve" smooth="yes"/>
      <point x="187" y="0" type="line"/>
      <point x="78" y="0" type="line"/>
      <point x="78" y="520" type="line"/>
      <point x="187" y="520" type="line"/>
      <point x="187" y="434" type="line"/>
      <point x="192" y="434" type="line"/>
      <point x="230" y="532"/>
      <point x="338" y="532" type="qcurve" smooth="yes"/>
      <point x="418" y="532"/>
      <point x="507" y="427"/>
      <point x="507" y="330" type="qcurve" smooth="yes"/>
      <point x="507" y="0" type="line"/>
    </contour>
    <contour>
      <point x="239" y="594" type="line"/>
      <point x="119" y="744" type="line"/>
      <point x="175" y="786" type="line"/>
      <point x="294" y="670" type="line"/>
      <point x="413" y="786" type="line"/>
      <point x="469" y="744" type="line"/>
      <point x="349" y="594" type="line"/>
    </contour>
  </outline>
</glyph>
<glyph name="Obreve" format="2">
  <advance width="712"/>
  <unicode hex="014E"/>
  <outline>
    <contour>
      <point x="355" y="755" type="qcurve" smooth="yes"/>
      <point x="300" y="755"/>
      <point x="233" y="802"/>
      <point x="195" y="868"/>
      <point x="187" y="899" type="qcurve"/>
      <point x="247" y="930" type="line"/>
      <point x="267" y="897" type="line"/>
      <point x="283" y="868"/>
      <point x="321" y="835"/>
      <point x="355" y="835" type="qcurve" smooth="yes"/>
      <point x="389" y="835"/>
      <point x="427" y="868"/>
      <point x="443" y="897" type="qcurve"/>
      <point x="463" y="930" type="line"/>
      <point x="523" y="899" type="line"/>
      <point x="513" y="867"/>
      <point x="476" y="801"/>
      <point x="411" y="755"/>
    </contour>
    <contour>
      <point x="356" y="-12" type="qcurve" smooth="yes"/>
      <point x="215" y="-12"/>
      <point x="55" y="180"/>
      <point x="55" y="349" type="qcurve" smooth="yes"/>
      <point x="55" y="518"/>
      <point x="214" y="710"/>
      <point x="356" y="710" type="qcurve" smooth="yes"/>
      <point x="443" y="710"/>
      <point x="579" y="631"/>
      <point x="657" y="471"/>
      <point x="657" y="349" type="qcurve" smooth="yes"/>
      <point x="657" y="177"/>
      <point x="496" y="-12"/>
    </contour>
    <contour>
      <point x="356" y="89" type="qcurve" smooth="yes"/>
      <point x="433" y="89"/>
      <point x="536" y="194"/>
      <point x="536" y="294" type="qcurve" smooth="yes"/>
      <point x="536" y="404" type="line" smooth="yes"/>
      <point x="536" y="502"/>
      <point x="437" y="609"/>
      <point x="356" y="609" type="qcurve" smooth="yes"/>
      <point x="271" y="609"/>
      <point x="176" y="496"/>
      <point x="176" y="404" type="qcurve" smooth="yes"/>
      <point x="176" y="294" type="line" smooth="yes"/>
      <point x="176" y="199"/>
      <point x="275" y="89"/>
    </contour>
  </outline>
</glyph>
<glyph name="Rcedilla" format="2">
  <advance width="655"/>
  <unicode hex="0156"/>
  <outline>
    <contour>
      <point x="478" y="0" type="line"/>
      <point x="338" y="282" type="line"/>
      <point x="199" y="282" type="line"/>
      <point x="199" y="0" type="line"/>
      <point x="86" y="0" type="line"/>
      <point x="86" y="698" type="line"/>
      <point x="387" y="698" type="line" smooth="yes"/>
      <point x="481" y="698"/>
      <point x="589" y="585"/>
      <point x="589" y="488" type="qcurve" smooth="yes"/>
      <point x="589" y="338"/>
      <point x="453" y="294" type="qcurve"/>
      <point x="604" y="0" type="line"/>
    </contour>
    <contour>
      <point x="379" y="377" type="line"/>
      <point x="470" y="380"/>
      <point x="470" y="464" type="qcurve" smooth="yes"/>
      <point x="470" y="512" type="line" smooth="yes"/>
      <point x="470" y="554"/>
      <point x="422" y="599"/>
      <point x="379" y="599" type="qcurve" smooth="yes"/>
      <point x="199" y="599" type="line"/>
      <point x="199" y="377" type="line"/>
    </contour>
    <contour>
      <point x="263" y="-258" type="line"/>
      <point x="307" y="-219"/>
      <point x="318" y="-171" type="qcurve"/>
      <point x="296" y="-168"/>
      <point x="277" y="-139"/>
      <point x="277" y="-120" type="qcurve" smooth="yes"/>
      <point x="277" y="-109" type="line"/>
      <point x="278" y="-56"/>
      <point x="336" y="-56" type="qcurve" smooth="yes"/>
      <point x="395" y="-56"/>
      <point x="395" y="-109" type="qcurve" smooth="yes"/>
      <point x="395" y="-121" type="line" smooth="yes"/>
      <point x="395" y="-161"/>
      <point x="359" y="-234"/>
      <point x="332" y="-258" type="qcurve"/>
    </contour>
  </outline>
</glyph>
<glyph name="u0157" format="2">
  <advance width="383"/>
  <unicode hex="0157"/>
  <outline>
    <contour>
      <point x="60" y="-258" type="line"/>
      <point x="104" y="-219"/>
      <point x="115" y="-171" type="qcurve"/>
      <point x="93" y="-168"/>
      <point x="74" y="-139"/>
      <point x="74" y="-120" type="qcurve" smooth="yes"/>
      <point x="74" y="-109" type="line"/>
      <point x="75" y="-56"/>
      <point x="133" y="-56" type="qcurve" smooth="yes"/>
      <point x="192" y="-56"/>
      <point x="192" y="-109" type="qcurve" smooth="yes"/>
      <point x="192" y="-121" type="line" smooth="yes"/>
      <point x="192" y="-161"/>
      <point x="156" y="-234"/>
      <point x="129" y="-258" type="qcurve"/>
    </contour>
    <contour>
      <point x="78" y="0" type="line"/>
      <point x="78" y="520" type="line"/>
      <point x="187" y="520" type="line"/>
      <point x="187" y="420" type="line"/>
      <point x="192" y="420" type="line"/>
      <point x="203" y="461"/>
      <point x="273" y="520"/>
      <point x="335" y="520" type="qcurve" smooth="yes"/>
      <point x="364" y="520" type="line"/>
      <point x="364" y="415" type="line"/>
      <point x="321" y="415" type="line" smooth="yes"/>
      <point x="187" y="415"/>
      <point x="187" y="332" type="qcurve" smooth="yes"/>
      <point x="187" y="0" type="line"/>
    </contour>
  </outline>
</glyph>
<glyph name="Scedilla" format="2">
  <advance width="598"/>
  <unicode hex="015E"/>
  <outline>
    <contour>
      <point x="307" y="-209" type="qcurve" smooth="yes"/>
      <point x="262" y="-209"/>
      <point x="209" y="-182"/>
      <point x="198" y="-167" type="qcurve"/>
      <point x="239" y="-119" type="line"/>
      <point x="260" y="-148"/>
      <point x="302" y="-148" type="qcurve" smooth="yes"/>
      <point x="321" y="-148"/>
      <point x="346" y="-134"/>
      <point x="346" y="-119" type="qcurve" smooth="yes"/>
      <point x="346" y="-107"/>
      <point x="333" y="-95" type="qcurve"/>
      <point x="314" y="-81"/>
      <point x="250" y="-76" type="qcurve"/>
      <point x="263" y="-11" type="line"/>
      <point x="116" y="4"/>
      <point x="40" y="106" type="qcurve"/>
      <point x="118" y="179" type="line"/>
      <point x="187" y="88"/>
      <point x="301" y="88" type="qcurve" smooth="yes"/>
      <point x="368" y="88"/>
      <point x="436" y="148"/>
      <point x="436" y="199" type="qcurve" smooth="yes"/>
      <point x="436" y="240"/>
      <point x="387" y="288"/>
      <point x="327" y="300" type="qcurve"/>
      <point x="265" y="311" type="line" smooth="yes"/>
      <point x="163" y="329"/>
      <point x="61" y="426"/>
      <point x="61" y="510" type="qcurve" smooth="yes"/>
      <point x="61" y="597"/>
      <point x="187" y="710"/>
      <point x="305" y="710" type="qcurve" smooth="yes"/>
      <point x="457" y="710"/>
      <point x="541" y="603" type="qcurve"/>
      <point x="462" y="533" type="line"/>
      <point x="405" y="610"/>
      <point x="299" y="610" type="qcurve"/>
      <point x="173" y="608"/>
      <point x="173" y="516" type="qcurve" smooth="yes"/>
      <point x="173" y="472"/>
      <point x="227" y="428"/>
      <point x="284" y="418" type="qcurve"/>
      <point x="346" y="405" type="line"/>
      <point x="451" y="385"/>
      <point x="548" y="289"/>
      <point x="548" y="205" type="qcurve" smooth="yes"/>
      <point x="548" y="112"/>
      <point x="429" y="-3"/>
      <point x="320" y="-11" type="qcurve"/>
      <point x="311" y="-58" type="line"/>
      <point x="314" y="-62" type="line"/>
      <point x="335" y="-55"/>
      <point x="357" y="-55" type="qcurve" smooth="yes"/>
      <point x="387" y="-55"/>
      <point x="427" y="-88"/>
      <point x="427" y="-123" type="qcurve" smooth="yes"/>
      <point x="427" y="-168"/>
      <point x="354" y="-209"/>
    </contour>
  </outline>
</glyph>
<glyph name="scedilla" format="2">
  <advance width="494"/>
  <unicode hex="015F"/>
  <outline>
    <contour>
      <point x="256" y="-209" type="qcurve" smooth="yes"/>
      <point x="211" y="-209"/>
      <point x="158" y="-182"/>
      <point x="147" y="-167" type="qcurve"/>
      <point x="188" y="-119" type="line"/>
      <point x="209" y="-148"/>
      <point x="251" y="-148" type="qcurve" smooth="yes"/>
      <point x="270" y="-148"/>
      <point x="295" y="-134"/>
      <point x="295" y="-119" type="qcurve" smooth="yes"/>
      <point x="295" y="-107"/>
      <point x="282" y="-95" type="qcurve"/>
      <point x="263" y="-81"/>
      <point x="199" y="-76" type="qcurve"/>
      <point x="212" y="-11" type="line"/>
      <point x="94" y="2"/>
      <point x="32" y="86" type="qcurve"/>
      <point x="102" y="150" type="line"/>
      <point x="131" y="115"/>
      <point x="202" y="76"/>
      <point x="249" y="76" type="qcurve" smooth="yes"/>
      <point x="297" y="76"/>
      <point x="344" y="113"/>
      <point x="344" y="146" type="qcurve" smooth="yes"/>
      <point x="344" y="172"/>
      <point x="311" y="205"/>
      <point x="270" y="211" type="qcurve" smooth="yes"/>
      <point x="222" y="217" type="line" smooth="yes"/>
      <point x="141" y="228"/>
      <point x="51" y="300"/>
      <point x="51" y="372" type="qcurve" smooth="yes"/>
      <point x="51" y="446"/>
      <point x="156" y="532"/>
      <point x="244" y="532" type="qcurve" smooth="yes"/>
      <point x="314" y="532"/>
      <point x="404" y="488"/>
      <point x="438" y="449" type="qcurve"/>
      <point x="371" y="385" type="line"/>
      <point x="351" y="410"/>
      <point x="286" y="444"/>
      <point x="244" y="444" type="qcurve" smooth="yes"/>
      <point x="199" y="444"/>
      <point x="156" y="408"/>
      <point x="156" y="379" type="qcurve" smooth="yes"/>
      <point x="156" y="349"/>
      <point x="194" y="318"/>
      <point x="236" y="312" type="qcurve" smooth="yes"/>
      <point x="284" y="306" type="line"/>
      <point x="370" y="293"/>
      <point x="449" y="218"/>
      <point x="449" y="155" type="qcurve" smooth="yes"/>
      <point x="449" y="85"/>
      <point x="353" y="-3"/>
      <point x="269" y="-11" type="qcurve"/>
      <point x="260" y="-58" type="line"/>
      <point x="263" y="-62" type="line"/>
      <point x="284" y="-55"/>
      <point x="306" y="-55" type="qcurve" smooth="yes"/>
      <point x="336" y="-55"/>
      <point x="376" y="-88"/>
      <point x="376" y="-123" type="qcurve" smooth="yes"/>
      <point x="376" y="-168"/>
      <point x="303" y="-209"/>
    </contour>
  </outline>
</glyph>
<glyph name="u0162" format="2">
  <advance width="577"/>
  <unicode hex="0162"/>
  <outline>
    <contour>
      <point x="214" y="-258" type="line"/>
      <point x="258" y="-219"/>
      <point x="269" y="-171" type="qcurve"/>
      <point x="247" y="-168"/>
      <point x="228" y="-139"/>
      <point x="228" y="-120" type="qcurve" smooth="yes"/>
      <point x="228" y="-109" type="line"/>
      <point x="229" y="-56"/>
      <point x="287" y="-56" type="qcurve" smooth="yes"/>
      <point x="346" y="-56"/>
      <point x="346" y="-109" type="qcurve" smooth="yes"/>
      <point x="346" y="-121" type="line" smooth="yes"/>
      <point x="346" y="-161"/>
      <point x="310" y="-234"/>
      <point x="283" y="-258" type="qcurve"/>
    </contour>
    <contour>
      <point x="232" y="0" type="line"/>
      <point x="232" y="598" type="line"/>
      <point x="24" y="598" type="line"/>
      <point x="24" y="698" type="line"/>
      <point x="553" y="698" type="line"/>
      <point x="553" y="598" type="line"/>
      <point x="345" y="598" type="line"/>
      <point x="345" y="0" type="line"/>
    </contour>
  </outline>
</glyph>
<glyph name="tcedilla" format="2">
  <advance width="365"/>
  <unicode hex="0163"/>
  <outline>
    <contour>
      <point x="146" y="-258" type="line"/>
      <point x="190" y="-219"/>
      <point x="201" y="-171" type="qcurve"/>
      <point x="179" y="-168"/>
      <point x="160" y="-139"/>
      <point x="160" y="-120" type="qcurve" smooth="yes"/>
      <point x="160" y="-109" type="line"/>
      <point x="161" y="-56"/>
      <point x="219" y="-56" type="qcurve" smooth="yes"/>
      <point x="278" y="-56"/>
      <point x="278" y="-109" type="qcurve" smooth="yes"/>
      <point x="278" y="-121" type="line" smooth="yes"/>
      <point x="278" y="-161"/>
      <point x="242" y="-234"/>
      <point x="215" y="-258" type="qcurve"/>
    </contour>
    <contour>
      <point x="222" y="0" type="line" smooth="yes"/>
      <point x="165" y="0"/>
      <point x="107" y="59"/>
      <point x="107" y="113" type="qcurve" smooth="yes"/>
      <point x="107" y="431" type="line"/>
      <point x="26" y="431" type="line"/>
      <point x="26" y="520" type="line"/>
      <point x="75" y="520" type="line" smooth="yes"/>
      <point x="118" y="520"/>
      <point x="118" y="571" type="qcurve" smooth="yes"/>
      <point x="118" y="662" type="line"/>
      <point x="216" y="662" type="line"/>
      <point x="216" y="520" type="line"/>
      <point x="325" y="520" type="line"/>
      <point x="325" y="431" type="line"/>
      <point x="216" y="431" type="line"/>
      <point x="216" y="89" type="line"/>
      <point x="317" y="89" type="line"/>
      <point x="317" y="0" type="line"/>
    </contour>
  </outline>
</glyph>
<glyph name="tcaron" format="2">
  <advance width="367"/>
  <unicode hex="0165"/>
  <outline>
    <contour>
      <point x="222" y="0" type="line" smooth="yes"/>
      <point x="165" y="0"/>
      <point x="107" y="59"/>
      <point x="107" y="113" type="qcurve" smooth="yes"/>
      <point x="107" y="431" type="line"/>
      <point x="26" y="431" type="line"/>
      <point x="26" y="520" type="line"/>
      <point x="75" y="520" type="line" smooth="yes"/>
      <point x="118" y="520"/>
      <point x="118" y="571" type="qcurve" smooth="yes"/>
      <point x="118" y="662" type="line"/>
      <point x="216" y="662" type="line"/>
      <point x="216" y="520" type="line"/>
      <point x="325" y="520" type="line"/>
      <point x="325" y="431" type="line"/>
      <point x="216" y="431" type="line"/>
      <point x="216" y="89" type="line"/>
      <point x="317" y="89" type="line"/>
      <point x="317" y="0" type="line"/>
    </contour>
    <contour>
      <point x="280" y="569" type="line"/>
      <point x="290" y="767" type="line"/>
      <point x="410" y="767" type="line"/>
      <point x="352" y="569" type="line"/>
    </contour>
  </outline>
</glyph>
<glyph name="Tbar" format="2">
  <advance width="589"/>
  <unicode hex="0166"/>
  <outline>
    <contour>
      <point x="238" y="0" type="line"/>
      <point x="238" y="314" type="line"/>
      <point x="84" y="314" type="line"/>
      <point x="84" y="399" type="line"/>
      <point x="238" y="399" type="line"/>
      <point x="238" y="598" type="line"/>
      <point x="30" y="598" type="line"/>
      <point x="30" y="698" type="line"/>
      <point x="559" y="698" type="line"/>
      <point x="559" y="598" type="line"/>
      <point x="351" y="598" type="line"/>
      <point x="351" y="399" type="line"/>
      <point x="505" y="399" type="line"/>
      <point x="505" y="314" type="line"/>
      <point x="351" y="314" type="line"/>
      <point x="351" y="0" type="line"/>
    </contour>
  </outline>
</glyph>
<glyph name="Utilde" format="2">
  <advance width="686"/>
  <unicode hex="0168"/>
  <outline>
    <contour>
      <point x="343" y="-12" type="qcurve" smooth="yes"/>
      <point x="200" y="-12"/>
      <point x="82" y="133"/>
      <point x="82" y="286" type="qcurve" smooth="yes"/>
      <point x="82" y="698" type="line"/>
      <point x="193" y="698" type="line"/>
      <point x="193" y="268" type="line" smooth="yes"/>
      <point x="193" y="179"/>
      <point x="261" y="89"/>
      <point x="343" y="89" type="qcurve" smooth="yes"/>
      <point x="425" y="89"/>
      <point x="493" y="179"/>
      <point x="493" y="268" type="qcurve" smooth="yes"/>
      <point x="493" y="698" type="line"/>
      <point x="604" y="698" type="line"/>
      <point x="604" y="286" type="line" smooth="yes"/>
      <point x="604" y="133"/>
      <point x="486" y="-12"/>
    </contour>
    <contour>
      <point x="417" y="773" type="qcurve" smooth="yes"/>
      <point x="395" y="773"/>
      <point x="362" y="785"/>
      <point x="347" y="793" type="qcurve"/>
      <point x="339" y="797" type="line"/>
      <point x="297" y="820"/>
      <point x="265" y="820" type="qcurve" smooth="yes"/>
      <point x="248" y="820"/>
      <point x="222" y="807"/>
      <point x="207" y="794" type="qcurve"/>
      <point x="166" y="846" type="line"/>
      <point x="202" y="904"/>
      <point x="269" y="904" type="qcurve" smooth="yes"/>
      <point x="291" y="904"/>
      <point x="324" y="892"/>
      <point x="339" y="884" type="qcurve"/>
      <point x="347" y="880" type="line"/>
      <point x="390" y="857"/>
      <point x="421" y="857" type="qcurve" smooth="yes"/>
      <point x="438" y="857"/>
      <point x="464" y="870"/>
      <point x="479" y="883" type="qcurve"/>
      <point x="520" y="831" type="line"/>
      <point x="484" y="773"/>
    </contour>
  </outline>
</glyph>
<glyph name="udblacute" format="2">
  <advance width="580"/>
  <unicode hex="0171"/>
  <outline>
    <contour>
      <point x="147" y="612" type="line"/>
      <point x="238" y="793" type="line"/>
      <point x="327" y="749" type="line"/>
      <point x="209" y="583" type="line"/>
    </contour>
    <contour>
      <point x="326" y="612" type="line"/>
      <point x="417" y="793" type="line"/>
      <point x="506" y="749" type="line"/>
      <point x="388" y="583" type="line"/>
    </contour>
    <contour>
      <point x="243" y="-12" type="qcurve" smooth="yes"/>
      <point x="162" y="-12"/>
      <point x="73" y="92"/>
      <point x="73" y="189" type="qcurve" smooth="yes"/>
      <point x="73" y="520" type="line"/>
      <point x="182" y="520" type="line"/>
      <point x="182" y="203" type="line" smooth="yes"/>
      <point x="182" y="82"/>
      <point x="282" y="82" type="qcurve" smooth="yes"/>
      <point x="324" y="82"/>
      <point x="393" y="126"/>
      <point x="393" y="172" type="qcurve" smooth="yes"/>
      <point x="393" y="520" type="line"/>
      <point x="502" y="520" type="line"/>
      <point x="502" y="0" type="line"/>
      <point x="393" y="0" type="line"/>
      <point x="393" y="86" type="line"/>
      <point x="389" y="86" type="line"/>
      <point x="357" y="-12"/>
    </contour>
  </outline>
</glyph>
<glyph name="Ydieresis" format="2">
  <advance width="617"/>
  <unicode hex="0178"/>
  <outline>
    <contour>
      <point x="209" y="776" type="qcurve" smooth="yes"/>
      <point x="175" y="776"/>
      <point x="146" y="807"/>
      <point x="146" y="830" type="qcurve" smooth="yes"/>
      <point x="146" y="848" type="line" smooth="yes"/>
      <point x="146" y="871"/>
      <point x="175" y="902"/>
      <point x="209" y="902" type="qcurve" smooth="yes"/>
      <point x="243" y="902"/>
      <point x="272" y="871"/>
      <point x="272" y="848" type="qcurve" smooth="yes"/>
      <point x="272" y="830" type="line" smooth="yes"/>
      <point x="272" y="807"/>
      <point x="243" y="776"/>
    </contour>
    <contour>
      <point x="409" y="776" type="qcurve" smooth="yes"/>
      <point x="375" y="776"/>
      <point x="346" y="807"/>
      <point x="346" y="830" type="qcurve" smooth="yes"/>
      <point x="346" y="848" type="line" smooth="yes"/>
      <point x="346" y="871"/>
      <point x="375" y="902"/>
      <point x="409" y="902" type="qcurve" smooth="yes"/>
      <point x="443" y="902"/>
      <point x="472" y="871"/>
      <point x="472" y="848" type="qcurve" smooth="yes"/>
      <point x="472" y="830" type="line" smooth="yes"/>
      <point x="472" y="807"/>
      <point x="443" y="776"/>
    </contour>
    <contour>
      <point x="251" y="0" type="line"/>
      <point x="251" y="275" type="line"/>
      <point x="11" y="698" type="line"/>
      <point x="140" y="698" type="line"/>
      <point x="310" y="387" type="line"/>
      <point x="313" y="387" type="line"/>
      <point x="482" y="698" type="line"/>
      <point x="606" y="698" type="line"/>
      <point x="364" y="277" type="line"/>
      <point x="364" y="0" type="line"/>
    </contour>
  </outline>
</glyph>
<glyph name="zdot" format="2">
  <advance width="487"/>
  <unicode hex="017C"/>
  <outline>
    <contour>
      <point x="245" y="605" type="qcurve" smooth="yes"/>
      <point x="178" y="605"/>
      <point x="178" y="662" type="qcurve" smooth="yes"/>
      <point x="178" y="680" type="line" smooth="yes"/>
      <point x="178" y="737"/>
      <point x="245" y="737" type="qcurve" smooth="yes"/>
      <point x="312" y="737"/>
      <point x="312" y="680" type="qcurve" smooth="yes"/>
      <point x="312" y="662" type="line" smooth="yes"/>
      <point x="312" y="605"/>
    </contour>
    <contour>
      <point x="36" y="0" type="line"/>
      <point x="36" y="88" type="line"/>
      <point x="315" y="431" type="line"/>
      <point x="45" y="431" type="line"/>
      <point x="45" y="520" type="line"/>
      <point x="444" y="520" type="line"/>
      <point x="444" y="436" type="line"/>
      <point x="161" y="89" type="line"/>
      <point x="451" y="89" type="line"/>
      <point x="451" y="0" type="line"/>
    </contour>
  </outline>
</glyph>
<glyph name="zcaron" format="2">
  <advance width="487"/>
  <unicode hex="017E"/>
  <outline>
    <contour>
      <point x="190" y="594" type="line"/>
      <point x="70" y="744" type="line"/>
      <point x="126" y="786" type="line"/>
      <point x="245" y="670" type="line"/>
      <point x="364" y="786" type="line"/>
      <point x="420" y="744" type="line"/>
      <point x="300" y="594" type="line"/>
    </contour>
    <contour>
      <point x="36" y="0" type="line"/>
      <point x="36" y="88" type="line"/>
      <point x="315" y="431" type="line"/>
      <point x="45" y="431" type="line"/>
      <point x="45" y="520" type="line"/>
      <point x="444" y="520" type="line"/>
      <point x="444" y="436" type="line"/>
      <point x="161" y="89" type="line"/>
      <point x="451" y="89" type="line"/>
      <point x="451" y="0" type="line"/>
    </contour>
  </outline>
</glyph>
<glyph name="Uhorn" format="2">
  <advance width="686"/>
  <unicode hex="01AF"/>
  <outline>
    <contour>
      <point x="343" y="-12" type="qcurve" smooth="yes"/>
      <point x="200" y="-12"/>
      <point x="82" y="133"/>
      <point x="82" y="286" type="qcurve" smooth="yes"/>
      <point x="82" y="698" type="line"/>
      <point x="193" y="698" type="line"/>
      <point x="193" y="268" type="line" smooth="yes"/>
      <point x="193" y="179"/>
      <point x="261" y="89"/>
      <point x="343" y="89" type="qcurve" smooth="yes"/>
      <point x="425" y="89"/>
      <point x="493" y="179"/>
      <point x="493" y="268" type="qcurve" smooth="yes"/>
      <point x="493" y="698" type="line"/>
      <point x="579" y="698" type="line"/>
      <point x="579" y="807" type="line"/>
      <point x="672" y="807" type="line"/>
      <point x="672" y="709" type="line" smooth="yes"/>
      <point x="672" y="674"/>
      <point x="643" y="633"/>
      <point x="604" y="630" type="qcurve"/>
      <point x="604" y="286" type="line" smooth="yes"/>
      <point x="604" y="133"/>
      <point x="486" y="-12"/>
    </contour>
  </outline>
</glyph>
<glyph name="Oslashacute" format="2">
  <advance width="712"/>
  <unicode hex="01FE"/>
  <outline>
    <contour>
      <point x="356" y="84" type="qcurve" smooth="yes"/>
      <point x="435" y="84"/>
      <point x="539" y="192"/>
      <point x="539" y="292" type="qcurve" smooth="yes"/>
      <point x="539" y="406" type="line" smooth="yes"/>
      <point x="539" y="469"/>
      <point x="516" y="517" type="qcurve"/>
      <point x="248" y="118" type="line"/>
      <point x="293" y="84"/>
    </contour>
    <contour>
      <point x="464" y="580" type="line"/>
      <point x="419" y="614"/>
      <point x="356" y="614" type="qcurve" smooth="yes"/>
      <point x="277" y="614"/>
      <point x="173" y="506"/>
      <point x="173" y="406" type="qcurve" smooth="yes"/>
      <point x="173" y="292" type="line" smooth="yes"/>
      <point x="173" y="229"/>
      <point x="196" y="181" type="qcurve"/>
    </contour>
    <contour>
      <point x="64" y="-3" type="line"/>
      <point x="129" y="91" type="line"/>
      <point x="55" y="181"/>
      <point x="55" y="349" type="qcurve" smooth="yes"/>
      <point x="55" y="518"/>
      <point x="214" y="710"/>
      <point x="356" y="710" type="qcurve" smooth="yes"/>
      <point x="451" y="710"/>
      <point x="519" y="666" type="qcurve"/>
      <point x="576" y="748" type="line"/>
      <point x="648" y="701" type="line"/>
      <point x="583" y="607" type="line"/>
      <point x="657" y="517"/>
      <point x="657" y="349" type="qcurve" smooth="yes"/>
      <point x="657" y="177"/>
      <point x="496" y="-12"/>
      <point x="356" y="-12" type="qcurve" smooth="yes"/>
      <point x="262" y="-12"/>
      <point x="193" y="32" type="qcurve"/>
      <point x="136" y="-50" type="line"/>
    </contour>
    <contour>
      <point x="299" y="781" type="line"/>
      <point x="390" y="961" type="line"/>
      <point x="485" y="915" type="line"/>
      <point x="367" y="749" type="line"/>
    </contour>
  </outline>
</glyph>
<glyph name="u02BB" format="2">
  <advance width="600"/>
  <unicode hex="02BB"/>
  <outline>
    <contour>
      <point x="301" y="587" type="qcurve"/>
      <point x="242" y="591"/>
      <point x="242" y="640" type="qcurve" smooth="yes"/>
      <point x="242" y="653" type="line" smooth="yes"/>
      <point x="242" y="693"/>
      <point x="278" y="765"/>
      <point x="305" y="789" type="qcurve"/>
      <point x="374" y="789" type="line"/>
      <point x="330" y="751"/>
      <point x="319" y="702" type="qcurve"/>
      <point x="341" y="699"/>
      <point x="360" y="670"/>
      <point x="360" y="651" type="qcurve" smooth="yes"/>
      <point x="360" y="640" type="line" smooth="yes"/>
      <point x="360" y="587"/>
    </contour>
  </outline>
</glyph>
<glyph name="apostrophemod" format="2">
  <advance width="600"/>
  <unicode hex="02BC"/>
  <outline>
    <contour>
      <point x="230" y="542" type="line"/>
      <point x="240" y="740" type="line"/>
      <point x="360" y="740" type="line"/>
      <point x="302" y="542" type="line"/>
    </contour>
  </outline>
</glyph>
<glyph name="u02BC" format="2">
  <advance width="600"/>
  <unicode hex="02BC"/>
  <outline>
    <contour>
      <point x="230" y="542" type="line"/>
      <point x="240" y="740" type="line"/>
      <point x="360" y="740" type="line"/>
      <point x="302" y="542" type="line"/>
    </contour>
  </outline>
</glyph>
<glyph name="acutecmb" format="2">
  <unicode hex="0301"/>
  <outline>
    <contour>
      <point x="-56" y="615" type="line"/>
      <point x="35" y="795" type="line"/>
      <point x="130" y="749" type="line"/>
      <point x="12" y="582" type="line"/>
    </contour>
  </outline>
</glyph>
<glyph name="tildecomb" format="2">
  <advance width="0"/>
  <unicode hex="0303"/>
  <outline>
    <contour>
      <point x="75" y="607" type="qcurve" smooth="yes"/>
      <point x="53" y="607"/>
      <point x="20" y="619"/>
      <point x="5" y="627" type="qcurve"/>
      <point x="-3" y="631" type="line"/>
      <point x="-45" y="655"/>
      <point x="-77" y="655" type="qcurve" smooth="yes"/>
      <point x="-94" y="655"/>
      <point x="-120" y="641"/>
      <point x="-135" y="628" type="qcurve"/>
      <point x="-176" y="680" type="line"/>
      <point x="-140" y="738"/>
      <point x="-73" y="738" type="qcurve" smooth="yes"/>
      <point x="-51" y="738"/>
      <point x="-18" y="726"/>
      <point x="-3" y="718" type="qcurve"/>
      <point x="5" y="714" type="line"/>
      <point x="48" y="690"/>
      <point x="79" y="690" type="qcurve" smooth="yes"/>
      <point x="96" y="690"/>
      <point x="122" y="704"/>
      <point x="137" y="717" type="qcurve"/>
      <point x="178" y="665" type="line"/>
      <point x="142" y="607"/>
    </contour>
  </outline>
</glyph>
<glyph name="macroncmb" format="2">
  <unicode hex="0304"/>
  <outline>
    <contour>
      <point x="-145" y="631" type="line"/>
      <point x="-145" y="714" type="line"/>
      <point x="147" y="714" type="line"/>
      <point x="147" y="631" type="line"/>
    </contour>
  </outline>
</glyph>
<glyph name="brevecomb" format="2">
  <unicode hex="0306"/>
  <outline>
    <contour>
      <point x="0" y="589" type="qcurve" smooth="yes"/>
      <point x="-56" y="589"/>
      <point x="-121" y="635"/>
      <point x="-158" y="701"/>
      <point x="-168" y="733" type="qcurve"/>
      <point x="-108" y="763" type="line"/>
      <point x="-87" y="730" type="line"/>
      <point x="-71" y="702"/>
      <point x="-33" y="669"/>
      <point x="0" y="669" type="qcurve" smooth="yes"/>
      <point x="33" y="669"/>
      <point x="71" y="702"/>
      <point x="87" y="730" type="qcurve"/>
      <point x="108" y="763" type="line"/>
      <point x="168" y="733" type="line"/>
      <point x="158" y="701"/>
      <point x="121" y="635"/>
      <point x="56" y="589"/>
    </contour>
  </outline>
</glyph>
<glyph name="u0307" format="2">
  <advance width="0"/>
  <unicode hex="0307"/>
  <outline>
    <contour>
      <point x="1" y="605" type="qcurve" smooth="yes"/>
      <point x="-66" y="605"/>
      <point x="-66" y="662" type="qcurve" smooth="yes"/>
      <point x="-66" y="680" type="line" smooth="yes"/>
      <point x="-66" y="737"/>
      <point x="1" y="737" type="qcurve" smooth="yes"/>
      <point x="68" y="737"/>
      <point x="68" y="680" type="qcurve" smooth="yes"/>
      <point x="68" y="662" type="line" smooth="yes"/>
      <point x="68" y="605"/>
    </contour>
  </outline>
</glyph>
<glyph name="u0308" format="2">
  <unicode hex="0308"/>
  <outline>
    <contour>
      <point x="101" y="610" type="qcurve" smooth="yes"/>
      <point x="39" y="610"/>
      <point x="39" y="663" type="qcurve" smooth="yes"/>
      <point x="39" y="681" type="line" smooth="yes"/>
      <point x="39" y="734"/>
      <point x="101" y="734" type="qcurve" smooth="yes"/>
      <point x="163" y="734"/>
      <point x="163" y="681" type="qcurve" smooth="yes"/>
      <point x="163" y="663" type="line" smooth="yes"/>
      <point x="163" y="610"/>
    </contour>
    <contour>
      <point x="-99" y="610" type="qcurve" smooth="yes"/>
      <point x="-161" y="610"/>
      <point x="-161" y="663" type="qcurve" smooth="yes"/>
      <point x="-161" y="681" type="line" smooth="yes"/>
      <point x="-161" y="734"/>
      <point x="-99" y="734" type="qcurve" smooth="yes"/>
      <point x="-37" y="734"/>
      <point x="-37" y="681" type="qcurve" smooth="yes"/>
      <point x="-37" y="663" type="line" smooth="yes"/>
      <point x="-37" y="610"/>
    </contour>
  </outline>
</glyph>
<glyph name="hookabovecomb" format="2">
  <advance width="0"/>
  <unicode hex="0309"/>
  <outline>
    <contour>
      <point x="-30" y="602" type="line"/>
      <point x="20" y="701" type="line"/>
      <point x="-99" y="701" type="line"/>
      <point x="-99" y="781" type="line"/>
      <point x="24" y="781" type="line" smooth="yes"/>
      <point x="106" y="781"/>
      <point x="106" y="718" type="qcurve" smooth="yes"/>
      <point x="106" y="669"/>
      <point x="54" y="605" type="qcurve" smooth="yes"/>
      <point x="28" y="574" type="line"/>
    </contour>
  </outline>
</glyph>
<glyph name="ringcomb" format="2">
  <unicode hex="030A"/>
  <outline>
    <contour>
      <point x="1" y="628" type="qcurve"/>
      <point x="56" y="629"/>
      <point x="56" y="681" type="qcurve" smooth="yes"/>
      <point x="56" y="711" type="line" smooth="yes"/>
      <point x="56" y="762"/>
      <point x="1" y="762" type="qcurve" smooth="yes"/>
      <point x="-54" y="762"/>
      <point x="-54" y="709" type="qcurve" smooth="yes"/>
      <point x="-54" y="681" type="line" smooth="yes"/>
      <point x="-54" y="628"/>
    </contour>
    <contour>
      <point x="1" y="568" type="qcurve" smooth="yes"/>
      <point x="-56" y="568"/>
      <point x="-129" y="642"/>
      <point x="-129" y="695" type="qcurve" smooth="yes"/>
      <point x="-129" y="748"/>
      <point x="-56" y="822"/>
      <point x="1" y="822" type="qcurve" smooth="yes"/>
      <point x="57" y="822"/>
      <point x="131" y="750"/>
      <point x="131" y="695" type="qcurve" smooth="yes"/>
      <point x="131" y="640"/>
      <point x="57" y="568"/>
    </contour>
  </outline>
</glyph>
<glyph name="u030B" format="2">
  <advance width="0"/>
  <unicode hex="030B"/>
  <outline>
    <contour>
      <point x="38" y="612" type="line"/>
      <point x="129" y="793" type="line"/>
      <point x="218" y="749" type="line"/>
      <point x="100" y="583" type="line"/>
    </contour>
    <contour>
      <point x="-141" y="612" type="line"/>
      <point x="-50" y="793" type="line"/>
      <point x="39" y="749" type="line"/>
      <point x="-79" y="583" type="line"/>
    </contour>
  </outline>
</glyph>
<glyph name="u0312" format="2">
  <advance width="0"/>
  <unicode hex="0312"/>
  <outline>
    <contour>
      <point x="1" y="587" type="qcurve"/>
      <point x="-58" y="591"/>
      <point x="-58" y="640" type="qcurve" smooth="yes"/>
      <point x="-58" y="653" type="line" smooth="yes"/>
      <point x="-58" y="693"/>
      <point x="-22" y="765"/>
      <point x="5" y="789" type="qcurve"/>
      <point x="74" y="789" type="line"/>
      <point x="30" y="751"/>
      <point x="19" y="702" type="qcurve"/>
      <point x="41" y="699"/>
      <point x="60" y="670"/>
      <point x="60" y="651" type="qcurve" smooth="yes"/>
      <point x="60" y="640" type="line" smooth="yes"/>
      <point x="60" y="587"/>
    </contour>
  </outline>
</glyph>
<glyph name="u0315" format="2">
  <advance width="0"/>
  <unicode hex="0315"/>
  <outline>
    <contour>
      <point x="1" y="542" type="line"/>
      <point x="11" y="740" type="line"/>
      <point x="131" y="740" type="line"/>
      <point x="73" y="542" type="line"/>
    </contour>
  </outline>
</glyph>
<glyph name="u031B" format="2">
  <advance width="0"/>
  <unicode hex="031B"/>
  <outline>
    <contour>
      <point x="-97" y="452" type="line"/>
      <point x="-97" y="520" type="line"/>
      <point x="4" y="520" type="line"/>
      <point x="4" y="629" type="line"/>
      <point x="97" y="629" type="line"/>
      <point x="97" y="531" type="line" smooth="yes"/>
      <point x="97" y="494"/>
      <point x="66" y="452"/>
      <point x="19" y="452" type="qcurve" smooth="yes"/>
    </contour>
  </outline>
</glyph>
<glyph name="dotbelowcomb" format="2">
  <advance width="0"/>
  <unicode hex="0323"/>
  <outline>
    <contour>
      <point x="0" y="-184" type="qcurve" smooth="yes"/>
      <point x="-34" y="-184"/>
      <point x="-64" y="-154"/>
      <point x="-64" y="-131" type="qcurve" smooth="yes"/>
      <point x="-64" y="-113" type="line" smooth="yes"/>
      <point x="-64" y="-90"/>
      <point x="-34" y="-60"/>
      <point x="0" y="-60" type="qcurve" smooth="yes"/>
      <point x="34" y="-60"/>
      <point x="64" y="-90"/>
      <point x="64" y="-113" type="qcurve" smooth="yes"/>
      <point x="64" y="-131" type="line" smooth="yes"/>
      <point x="64" y="-154"/>
      <point x="34" y="-184"/>
    </contour>
  </outline>
</glyph>
<glyph name="u0326" format="2">
  <advance width="0"/>
  <unicode hex="0326"/>
  <outline>
    <contour>
      <point x="-74" y="-258" type="line"/>
      <point x="-30" y="-219"/>
      <point x="-19" y="-171" type="qcurve"/>
      <point x="-41" y="-168"/>
      <point x="-60" y="-139"/>
      <point x="-60" y="-120" type="qcurve" smooth="yes"/>
      <point x="-60" y="-109" type="line"/>
      <point x="-59" y="-56"/>
      <point x="-1" y="-56" type="qcurve" smooth="yes"/>
      <point x="58" y="-56"/>
      <point x="58" y="-109" type="qcurve" smooth="yes"/>
      <point x="58" y="-121" type="line" smooth="yes"/>
      <point x="58" y="-161"/>
      <point x="22" y="-234"/>
      <point x="-5" y="-258" type="qcurve"/>
    </contour>
  </outline>
</glyph>
<glyph name="cedillacomb" format="2">
  <unicode hex="0327"/>
  <outline>
    <contour>
      <point x="14" y="-209" type="qcurve" smooth="yes"/>
      <point x="-65" y="-209"/>
      <point x="-96" y="-167" type="qcurve"/>
      <point x="-54" y="-119" type="line"/>
      <point x="-33" y="-148"/>
      <point x="9" y="-148" type="qcurve" smooth="yes"/>
      <point x="28" y="-148"/>
      <point x="53" y="-134"/>
      <point x="53" y="-119" type="qcurve" smooth="yes"/>
      <point x="53" y="-107"/>
      <point x="39" y="-95" type="qcurve"/>
      <point x="29" y="-87"/>
      <point x="-9" y="-80"/>
      <point x="-43" y="-76" type="qcurve"/>
      <point x="-23" y="24" type="line"/>
      <point x="34" y="24" type="line"/>
      <point x="17" y="-58" type="line"/>
      <point x="21" y="-62" type="line"/>
      <point x="42" y="-55"/>
      <point x="64" y="-55" type="qcurve" smooth="yes"/>
      <point x="93" y="-55"/>
      <point x="134" y="-88"/>
      <point x="134" y="-123" type="qcurve" smooth="yes"/>
      <point x="134" y="-168"/>
      <point x="61" y="-209"/>
    </contour>
  </outline>
</glyph>
<glyph name="ogonekcmb" format="2">
  <unicode hex="0328"/>
  <outline>
    <contour>
      <point x="-55" y="-209" type="qcurve" smooth="yes"/>
      <point x="-99" y="-209"/>
      <point x="-162" y="-171"/>
      <point x="-162" y="-129" type="qcurve" smooth="yes"/>
      <point x="-162" y="-88"/>
      <point x="-103" y="-29"/>
      <point x="-51" y="1" type="qcurve"/>
      <point x="-57" y="22" type="line"/>
      <point x="13" y="22" type="line"/>
      <point x="22" y="0" type="line"/>
      <point x="-42" y="-49"/>
      <point x="-83" y="-96"/>
      <point x="-83" y="-115" type="qcurve" smooth="yes"/>
      <point x="-83" y="-147"/>
      <point x="-49" y="-147" type="qcurve" smooth="yes"/>
      <point x="-17" y="-147"/>
      <point x="2" y="-121" type="qcurve"/>
      <point x="48" y="-165" type="line"/>
      <point x="25" y="-209"/>
    </contour>
  </outline>
</glyph>
<glyph name="dieresistonos" format="2">
  <advance width="592"/>
  <unicode hex="0385"/>
  <outline>
    <contour>
      <point x="418" y="615" type="qcurve" smooth="yes"/>
      <point x="391" y="615"/>
      <point x="367" y="651"/>
      <point x="367" y="673" type="qcurve" smooth="yes"/>
      <point x="367" y="695"/>
      <point x="388" y="727"/>
      <point x="414" y="727" type="qcurve" smooth="yes"/>
      <point x="431" y="727"/>
      <point x="458" y="708"/>
      <point x="463" y="690" type="qcurve"/>
      <point x="465" y="679"/>
      <point x="465" y="669" type="qcurve" smooth="yes"/>
      <point x="465" y="646"/>
      <point x="444" y="615"/>
    </contour>
    <contour>
      <point x="304" y="583" type="line"/>
      <point x="253" y="598" type="line"/>
      <point x="280" y="789" type="line"/>
      <point x="356" y="769" type="line"/>
    </contour>
    <contour>
      <point x="181" y="615" type="qcurve" smooth="yes"/>
      <point x="143" y="615"/>
      <point x="132" y="652" type="qcurve"/>
      <point x="130" y="664"/>
      <point x="130" y="674" type="qcurve" smooth="yes"/>
      <point x="130" y="697"/>
      <point x="150" y="727"/>
      <point x="176" y="727" type="qcurve" smooth="yes"/>
      <point x="194" y="727"/>
      <point x="221" y="708"/>
      <point x="226" y="690" type="qcurve"/>
      <point x="228" y="679"/>
      <point x="228" y="669" type="qcurve" smooth="yes"/>
      <point x="228" y="646"/>
      <point x="206" y="615"/>
    </contour>
  </outline>
</glyph>
<glyph name="Etatonos" format="2">
  <advance width="755"/>
  <unicode hex="0389"/>
  <outline>
    <contour>
      <point x="665" y="0" type="line"/>
      <point x="564" y="0" type="line"/>
      <point x="564" y="308" type="line"/>
      <point x="233" y="308" type="line"/>
      <point x="233" y="0" type="line"/>
      <point x="132" y="0" type="line"/>
      <point x="132" y="698" type="line"/>
      <point x="233" y="698" type="line"/>
      <point x="233" y="397" type="line"/>
      <point x="564" y="397" type="line"/>
      <point x="564" y="698" type="line"/>
      <point x="665" y="698" type="line"/>
    </contour>
    <contour>
      <point x="45" y="583" type="line"/>
      <point x="-22" y="592" type="line"/>
      <point x="9" y="789" type="line"/>
      <point x="102" y="776" type="line"/>
    </contour>
  </outline>
</glyph>
<glyph name="Iotatonos" format="2">
  <advance width="485"/>
  <unicode hex="038A"/>
  <outline>
    <contour>
      <point x="290" y="0" type="line"/>
      <point x="185" y="0" type="line"/>
      <point x="185" y="698" type="line"/>
      <point x="290" y="698" type="line"/>
    </contour>
    <contour>
      <point x="65" y="583" type="line"/>
      <point x="-2" y="592" type="line"/>
      <point x="29" y="789" type="line"/>
      <point x="122" y="776" type="line"/>
    </contour>
  </outline>
</glyph>
<glyph name="Upsilontonos" format="2">
  <advance width="706"/>
  <unicode hex="038E"/>
  <outline>
    <contour>
      <point x="452" y="0" type="line"/>
      <point x="351" y="0" type="line"/>
      <point x="351" y="275" type="line"/>
      <point x="111" y="698" type="line"/>
      <point x="225" y="698" type="line"/>
      <point x="402" y="376" type="line"/>
      <point x="405" y="376" type="line"/>
      <point x="581" y="698" type="line"/>
      <point x="694" y="698" type="line"/>
      <point x="452" y="278" type="line"/>
    </contour>
    <contour>
      <point x="45" y="583" type="line"/>
      <point x="-22" y="592" type="line"/>
      <point x="9" y="789" type="line"/>
      <point x="102" y="776" type="line"/>
    </contour>
  </outline>
</glyph>
<glyph name="iotadieresistonos" format="2">
  <advance width="303"/>
  <unicode hex="0390"/>
  <outline>
    <contour>
      <point x="183" y="583" type="line"/>
      <point x="132" y="598" type="line"/>
      <point x="159" y="789" type="line"/>
      <point x="235" y="769" type="line"/>
    </contour>
    <contour>
      <point x="60" y="615" type="qcurve" smooth="yes"/>
      <point x="22" y="615"/>
      <point x="11" y="652" type="qcurve"/>
      <point x="9" y="664"/>
      <point x="9" y="674" type="qcurve" smooth="yes"/>
      <point x="9" y="697"/>
      <point x="29" y="727"/>
      <point x="55" y="727" type="qcurve" smooth="yes"/>
      <point x="73" y="727"/>
      <point x="100" y="708"/>
      <point x="105" y="690" type="qcurve"/>
      <point x="107" y="679"/>
      <point x="107" y="669" type="qcurve" smooth="yes"/>
      <point x="107" y="646"/>
      <point x="85" y="615"/>
    </contour>
    <contour>
      <point x="297" y="615" type="qcurve" smooth="yes"/>
      <point x="270" y="615"/>
      <point x="246" y="651"/>
      <point x="246" y="673" type="qcurve" smooth="yes"/>
      <point x="246" y="695"/>
      <point x="267" y="727"/>
      <point x="293" y="727" type="qcurve" smooth="yes"/>
      <point x="310" y="727"/>
      <point x="337" y="708"/>
      <point x="342" y="690" type="qcurve"/>
      <point x="344" y="679"/>
      <point x="344" y="669" type="qcurve" smooth="yes"/>
      <point x="344" y="646"/>
      <point x="323" y="615"/>
    </contour>
    <contour>
      <point x="325" y="0" type="line"/>
      <point x="228" y="0" type="line" smooth="yes"/>
      <point x="184" y="0"/>
      <point x="140" y="36"/>
      <point x="125" y="100"/>
      <point x="125" y="142" type="qcurve" smooth="yes"/>
      <point x="125" y="518" type="line"/>
      <point x="222" y="518" type="line"/>
      <point x="222" y="81" type="line"/>
      <point x="325" y="81" type="line"/>
    </contour>
  </outline>
</glyph>
<glyph name="Deltagreek" format="2">
  <advance width="660"/>
  <unicode hex="0394"/>
  <outline>
    <contour>
      <point x="610" y="0" type="line"/>
      <point x="50" y="0" type="line"/>
      <point x="50" y="95" type="line"/>
      <point x="255" y="698" type="line"/>
      <point x="405" y="698" type="line"/>
      <point x="610" y="95" type="line"/>
    </contour>
    <contour>
      <point x="490" y="97" type="line"/>
      <point x="333" y="588" type="line"/>
      <point x="323" y="588" type="line"/>
      <point x="167" y="97" type="line"/>
    </contour>
  </outline>
</glyph>
<glyph name="Theta" format="2">
  <advance width="713"/>
  <unicode hex="0398"/>
  <outline>
    <contour>
      <point x="492" y="307" type="line"/>
      <point x="221" y="307" type="line"/>
      <point x="221" y="399" type="line"/>
      <point x="492" y="399" type="line"/>
    </contour>
    <contour>
      <point x="356" y="80" type="qcurve" smooth="yes"/>
      <point x="406" y="80"/>
      <point x="493" y="126"/>
      <point x="547" y="221"/>
      <point x="547" y="293" type="qcurve" smooth="yes"/>
      <point x="547" y="400" type="line" smooth="yes"/>
      <point x="547" y="461"/>
      <point x="504" y="560"/>
      <point x="419" y="618"/>
      <point x="356" y="618" type="qcurve" smooth="yes"/>
      <point x="272" y="618"/>
      <point x="166" y="505"/>
      <point x="166" y="405" type="qcurve" smooth="yes"/>
      <point x="166" y="298" type="line" smooth="yes"/>
      <point x="166" y="201"/>
      <point x="264" y="80"/>
    </contour>
    <contour>
      <point x="356" y="-12" type="qcurve" smooth="yes"/>
      <point x="219" y="-12"/>
      <point x="56" y="172"/>
      <point x="56" y="349" type="qcurve" smooth="yes"/>
      <point x="56" y="517"/>
      <point x="212" y="710"/>
      <point x="356" y="710" type="qcurve" smooth="yes"/>
      <point x="445" y="710"/>
      <point x="581" y="628"/>
      <point x="657" y="467"/>
      <point x="657" y="349" type="qcurve" smooth="yes"/>
      <point x="657" y="177"/>
      <point x="496" y="-12"/>
    </contour>
  </outline>
</glyph>
<glyph name="Omicron" format="2">
  <advance width="712"/>
  <unicode hex="039F"/>
  <outline>
    <contour>
      <point x="356" y="89" type="qcurve" smooth="yes"/>
      <point x="405" y="89"/>
      <point x="487" y="133"/>
      <point x="536" y="224"/>
      <point x="536" y="294" type="qcurve" smooth="yes"/>
      <point x="536" y="404" type="line" smooth="yes"/>
      <point x="536" y="507"/>
      <point x="433" y="609"/>
      <point x="356" y="609" type="qcurve" smooth="yes"/>
      <point x="267" y="609"/>
      <point x="176" y="492"/>
      <point x="176" y="404" type="qcurve" smooth="yes"/>
      <point x="176" y="294" type="line" smooth="yes"/>
      <point x="176" y="195"/>
      <point x="278" y="89"/>
    </contour>
    <contour>
      <point x="356" y="-12" type="qcurve" smooth="yes"/>
      <point x="213" y="-12"/>
      <point x="55" y="182"/>
      <point x="55" y="349" type="qcurve" smooth="yes"/>
      <point x="55" y="513"/>
      <point x="210" y="710"/>
      <point x="356" y="710" type="qcurve" smooth="yes"/>
      <point x="441" y="710"/>
      <point x="578" y="634"/>
      <point x="657" y="474"/>
      <point x="657" y="349" type="qcurve" smooth="yes"/>
      <point x="657" y="229"/>
      <point x="581" y="68"/>
      <point x="445" y="-12"/>
    </contour>
  </outline>
</glyph>
<glyph name="Phi" format="2">
  <advance width="851"/>
  <unicode hex="03A6"/>
  <outline>
    <contour>
      <point x="477" y="-33" type="line"/>
      <point x="373" y="-33" type="line"/>
      <point x="373" y="31" type="line"/>
      <point x="220" y="31"/>
      <point x="50" y="200"/>
      <point x="50" y="354" type="qcurve" smooth="yes"/>
      <point x="50" y="445"/>
      <point x="120" y="592"/>
      <point x="257" y="677"/>
      <point x="358" y="677" type="qcurve" smooth="yes"/>
      <point x="373" y="677" type="line"/>
      <point x="373" y="729" type="line"/>
      <point x="477" y="729" type="line"/>
      <point x="477" y="677" type="line"/>
      <point x="626" y="677"/>
      <point x="801" y="510"/>
      <point x="801" y="354" type="qcurve" smooth="yes"/>
      <point x="801" y="209"/>
      <point x="636" y="31"/>
      <point x="493" y="31" type="qcurve" smooth="yes"/>
      <point x="477" y="31" type="line"/>
    </contour>
    <contour>
      <point x="376" y="117" type="line"/>
      <point x="376" y="591" type="line"/>
      <point x="213" y="591"/>
      <point x="172" y="464" type="qcurve" smooth="yes"/>
      <point x="159" y="426"/>
      <point x="159" y="385" type="qcurve" smooth="yes"/>
      <point x="159" y="323" type="line" smooth="yes"/>
      <point x="159" y="267"/>
      <point x="206" y="173"/>
      <point x="295" y="117"/>
      <point x="359" y="117" type="qcurve" smooth="yes"/>
    </contour>
    <contour>
      <point x="492" y="117" type="line" smooth="yes"/>
      <point x="545" y="117"/>
      <point x="636" y="165"/>
      <point x="692" y="257"/>
      <point x="692" y="323" type="qcurve" smooth="yes"/>
      <point x="692" y="385" type="line" smooth="yes"/>
      <point x="692" y="469"/>
      <point x="584" y="591"/>
      <point x="492" y="591" type="qcurve" smooth="yes"/>
      <point x="475" y="591" type="line"/>
      <point x="475" y="117" type="line"/>
    </contour>
  </outline>
</glyph>
<glyph name="etatonos" format="2">
  <advance width="584"/>
  <unicode hex="03AE"/>
  <outline>
    <contour>
      <point x="330" y="583" type="line"/>
      <point x="263" y="592" type="line"/>
      <point x="294" y="789" type="line"/>
      <point x="387" y="776" type="line"/>
    </contour>
    <contour>
      <point x="508" y="-200" type="line"/>
      <point x="409" y="-200" type="line"/>
      <point x="409" y="317" type="line" smooth="yes"/>
      <point x="409" y="439"/>
      <point x="315" y="443" type="qcurve" smooth="yes"/>
      <point x="293" y="444" type="line"/>
      <point x="247" y="442"/>
      <point x="187" y="395"/>
      <point x="187" y="342" type="qcurve" smooth="yes"/>
      <point x="187" y="0" type="line"/>
      <point x="88" y="0" type="line"/>
      <point x="88" y="436" type="line"/>
      <point x="32" y="436" type="line"/>
      <point x="32" y="519" type="line"/>
      <point x="94" y="519" type="line" smooth="yes"/>
      <point x="141" y="519"/>
      <point x="185" y="470"/>
      <point x="187" y="432" type="qcurve"/>
      <point x="191" y="432" type="line"/>
      <point x="207" y="477"/>
      <point x="278" y="531"/>
      <point x="338" y="531" type="qcurve" smooth="yes"/>
      <point x="416" y="531"/>
      <point x="508" y="429"/>
      <point x="508" y="330" type="qcurve" smooth="yes"/>
    </contour>
  </outline>
</glyph>
<glyph name="delta" format="2">
  <advance width="561"/>
  <unicode hex="03B4"/>
  <outline>
    <contour>
      <point x="281" y="-12" type="qcurve" smooth="yes"/>
      <point x="171" y="-12"/>
      <point x="44" y="135"/>
      <point x="44" y="250" type="qcurve" smooth="yes"/>
      <point x="44" y="366"/>
      <point x="159" y="509"/>
      <point x="250" y="509" type="qcurve"/>
      <point x="250" y="514" type="line"/>
      <point x="109" y="634" type="line"/>
      <point x="109" y="740" type="line"/>
      <point x="465" y="740" type="line"/>
      <point x="465" y="657" type="line"/>
      <point x="277" y="657" type="line"/>
      <point x="201" y="664" type="line"/>
      <point x="201" y="660" type="line"/>
      <point x="333" y="560" type="line" smooth="yes"/>
      <point x="435" y="482"/>
      <point x="517" y="346"/>
      <point x="517" y="260" type="qcurve" smooth="yes"/>
      <point x="517" y="132"/>
      <point x="386" y="-12"/>
    </contour>
    <contour>
      <point x="281" y="72" type="qcurve" smooth="yes"/>
      <point x="316" y="72"/>
      <point x="376" y="101"/>
      <point x="412" y="166"/>
      <point x="412" y="219" type="qcurve" smooth="yes"/>
      <point x="412" y="244" type="line" smooth="yes"/>
      <point x="412" y="311"/>
      <point x="368" y="411"/>
      <point x="298" y="474" type="qcurve"/>
      <point x="233" y="465"/>
      <point x="149" y="371"/>
      <point x="149" y="284" type="qcurve" smooth="yes"/>
      <point x="149" y="227" type="line" smooth="yes"/>
      <point x="149" y="149"/>
      <point x="218" y="72"/>
    </contour>
  </outline>
</glyph>
<glyph name="lambda" format="2">
  <advance width="517"/>
  <unicode hex="03BB"/>
  <outline>
    <contour>
      <point x="509" y="0" type="line"/>
      <point x="451" y="0" type="line" smooth="yes"/>
      <point x="409" y="0"/>
      <point x="364" y="31"/>
      <point x="352" y="69" type="qcurve" smooth="yes"/>
      <point x="318" y="172"/>
      <point x="296" y="240"/>
      <point x="279" y="308"/>
      <point x="252" y="412" type="qcurve"/>
      <point x="246" y="412" type="line"/>
      <point x="207" y="285"/>
      <point x="181" y="204"/>
      <point x="149" y="125"/>
      <point x="102" y="0" type="qcurve"/>
      <point x="5" y="0" type="line"/>
      <point x="206" y="519" type="line"/>
      <point x="161" y="657" type="line"/>
      <point x="62" y="657" type="line"/>
      <point x="62" y="740" type="line"/>
      <point x="156" y="740" type="line" smooth="yes"/>
      <point x="198" y="740"/>
      <point x="243" y="707"/>
      <point x="254" y="671" type="qcurve"/>
      <point x="446" y="83" type="line"/>
      <point x="509" y="83" type="line"/>
    </contour>
  </outline>
</glyph>
<glyph name="u03BC" format="2">
  <advance width="589"/>
  <unicode hex="03BC"/>
  <outline>
    <contour>
      <point x="180" y="-200" type="line"/>
      <point x="80" y="-200" type="line"/>
      <point x="80" y="519" type="line"/>
      <point x="180" y="519" type="line"/>
      <point x="180" y="201" type="line" smooth="yes"/>
      <point x="180" y="74"/>
      <point x="285" y="74" type="qcurve" smooth="yes"/>
      <point x="331" y="74"/>
      <point x="401" y="122"/>
      <point x="401" y="178" type="qcurve" smooth="yes"/>
      <point x="401" y="519" type="line"/>
      <point x="501" y="519" type="line"/>
      <point x="501" y="83" type="line"/>
      <point x="557" y="83" type="line"/>
      <point x="557" y="0" type="line"/>
      <point x="504" y="0" type="line" smooth="yes"/>
      <point x="454" y="0"/>
      <point x="406" y="49"/>
      <point x="403" y="87" type="qcurve"/>
      <point x="399" y="87" type="line"/>
      <point x="366" y="-12"/>
      <point x="278" y="-12" type="qcurve" smooth="yes"/>
      <point x="233" y="-12"/>
      <point x="176" y="32"/>
      <point x="161" y="73" type="qcurve"/>
      <point x="157" y="73" type="line"/>
      <point x="180" y="-74" type="line"/>
    </contour>
  </outline>
</glyph>
<glyph name="rho" format="2">
  <advance width="559"/>
  <unicode hex="03C1"/>
  <outline>
    <contour>
      <point x="155" y="-200" type="line"/>
      <point x="55" y="-200" type="line"/>
      <point x="55" y="287" type="line" smooth="yes"/>
      <point x="55" y="356"/>
      <point x="103" y="466"/>
      <point x="204" y="531"/>
      <point x="284" y="531" type="qcurve" smooth="yes"/>
      <point x="364" y="531"/>
      <point x="464" y="464"/>
      <point x="511" y="343"/>
      <point x="511" y="262" type="qcurve" smooth="yes"/>
      <point x="511" y="132"/>
      <point x="406" y="-12"/>
      <point x="304" y="-12" type="qcurve" smooth="yes"/>
      <point x="256" y="-12"/>
      <point x="177" y="28"/>
      <point x="159" y="67" type="qcurve"/>
      <point x="155" y="67" type="line"/>
    </contour>
    <contour>
      <point x="275" y="73" type="qcurve" smooth="yes"/>
      <point x="405" y="73"/>
      <point x="406" y="220" type="qcurve"/>
      <point x="406" y="292" type="line" smooth="yes"/>
      <point x="406" y="362"/>
      <point x="346" y="446"/>
      <point x="280" y="446" type="qcurve" smooth="yes"/>
      <point x="217" y="446"/>
      <point x="155" y="368"/>
      <point x="155" y="301" type="qcurve" smooth="yes"/>
      <point x="155" y="151" type="line" smooth="yes"/>
      <point x="155" y="115"/>
      <point x="225" y="73"/>
    </contour>
  </outline>
</glyph>
<glyph name="upsilon" format="2">
  <advance width="572"/>
  <unicode hex="03C5"/>
  <outline>
    <contour>
      <point x="286" y="-12" type="qcurve" smooth="yes"/>
      <point x="175" y="-12"/>
      <point x="74" y="117"/>
      <point x="74" y="244" type="qcurve" smooth="yes"/>
      <point x="74" y="519" type="line"/>
      <point x="173" y="519" type="line"/>
      <point x="173" y="227" type="line" smooth="yes"/>
      <point x="173" y="145"/>
      <point x="227" y="72"/>
      <point x="286" y="72" type="qcurve" smooth="yes"/>
      <point x="348" y="72"/>
      <point x="399" y="152"/>
      <point x="399" y="240" type="qcurve" smooth="yes"/>
      <point x="399" y="519" type="line"/>
      <point x="498" y="519" type="line"/>
      <point x="498" y="244" type="line" smooth="yes"/>
      <point x="498" y="116"/>
      <point x="395" y="-12"/>
    </contour>
  </outline>
</glyph>
<glyph name="omegatonos" format="2">
  <advance width="746"/>
  <unicode hex="03CE"/>
  <outline>
    <contour>
      <point x="402" y="583" type="line"/>
      <point x="335" y="592" type="line"/>
      <point x="366" y="789" type="line"/>
      <point x="459" y="776" type="line"/>
    </contour>
    <contour>
      <point x="520" y="-12" type="qcurve" smooth="yes"/>
      <point x="456" y="-12"/>
      <point x="387" y="58"/>
      <point x="375" y="118" type="qcurve"/>
      <point x="371" y="118" type="line"/>
      <point x="359" y="58"/>
      <point x="289" y="-12"/>
      <point x="226" y="-12" type="qcurve" smooth="yes"/>
      <point x="177" y="-12"/>
      <point x="97" y="37"/>
      <point x="49" y="149"/>
      <point x="49" y="244" type="qcurve" smooth="yes"/>
      <point x="49" y="459"/>
      <point x="190" y="531" type="qcurve"/>
      <point x="249" y="465" type="line"/>
      <point x="200" y="438"/>
      <point x="155" y="351"/>
      <point x="155" y="278" type="qcurve" smooth="yes"/>
      <point x="155" y="223" type="line" smooth="yes"/>
      <point x="155" y="140"/>
      <point x="194" y="72"/>
      <point x="239" y="72" type="qcurve" smooth="yes"/>
      <point x="323" y="72"/>
      <point x="323" y="207" type="qcurve"/>
      <point x="323" y="207"/>
      <point x="323" y="207" type="qcurve"/>
      <point x="323" y="207"/>
      <point x="323" y="207" type="qcurve"/>
      <point x="323" y="207"/>
      <point x="323" y="207" type="qcurve"/>
      <point x="323" y="207"/>
      <point x="323" y="208" type="qcurve"/>
      <point x="323" y="208"/>
      <point x="323" y="208" type="qcurve"/>
      <point x="323" y="208"/>
      <point x="323" y="208" type="qcurve"/>
      <point x="323" y="208"/>
      <point x="323" y="208" type="qcurve"/>
      <point x="323" y="208"/>
      <point x="323" y="208" type="qcurve"/>
      <point x="323" y="208"/>
      <point x="323" y="208" type="qcurve"/>
      <point x="323" y="209" type="line"/>
      <point x="323" y="209"/>
      <point x="323" y="209" type="qcurve"/>
      <point x="323" y="209"/>
      <point x="323" y="209" type="qcurve"/>
      <point x="323" y="209"/>
      <point x="323" y="209" type="qcurve"/>
      <point x="323" y="209"/>
      <point x="323" y="209" type="qcurve"/>
      <point x="323" y="209"/>
      <point x="323" y="209" type="qcurve"/>
      <point x="323" y="209"/>
      <point x="323" y="209" type="qcurve"/>
      <point x="323" y="210" type="line"/>
      <point x="323" y="210"/>
      <point x="323" y="210" type="qcurve"/>
      <point x="323" y="210"/>
      <point x="323" y="210" type="qcurve"/>
      <point x="323" y="210"/>
      <point x="323" y="210" type="qcurve"/>
      <point x="323" y="210"/>
      <point x="323" y="210" type="qcurve"/>
      <point x="323" y="210"/>
      <point x="323" y="210" type="qcurve"/>
      <point x="323" y="210"/>
      <point x="323" y="211" type="qcurve"/>
      <point x="323" y="211"/>
      <point x="323" y="211" type="qcurve"/>
      <point x="323" y="211"/>
      <point x="323" y="211" type="qcurve"/>
      <point x="323" y="211"/>
      <point x="323" y="211" type="qcurve"/>
      <point x="323" y="211"/>
      <point x="323" y="211" type="qcurve"/>
      <point x="323" y="211"/>
      <point x="323" y="211" type="qcurve"/>
      <point x="323" y="355" type="line"/>
      <point x="423" y="355" type="line"/>
      <point x="423" y="211" type="line" smooth="yes"/>
      <point x="423" y="137"/>
      <point x="462" y="72"/>
      <point x="507" y="72" type="qcurve" smooth="yes"/>
      <point x="591" y="72"/>
      <point x="591" y="213" type="qcurve" smooth="yes"/>
      <point x="591" y="214" type="line"/>
      <point x="591" y="214"/>
      <point x="591" y="214" type="qcurve"/>
      <point x="591" y="217" type="line"/>
      <point x="591" y="217"/>
      <point x="591" y="217" type="qcurve"/>
      <point x="591" y="217"/>
      <point x="591" y="217" type="qcurve"/>
      <point x="591" y="217"/>
      <point x="591" y="217" type="qcurve"/>
      <point x="591" y="278" type="line" smooth="yes"/>
      <point x="591" y="411"/>
      <point x="497" y="465" type="qcurve"/>
      <point x="556" y="531" type="line"/>
      <point x="625" y="498"/>
      <point x="696" y="361"/>
      <point x="696" y="244" type="qcurve" smooth="yes"/>
      <point x="696" y="112"/>
      <point x="602" y="-12"/>
    </contour>
  </outline>
</glyph>
<glyph name="Djecyr" format="2">
  <advance width="795"/>
  <unicode hex="0402"/>
  <outline>
    <contour>
      <point x="493" y="-173" type="line"/>
      <point x="493" y="-70" type="line"/>
      <point x="585" y="-70" type="line"/>
      <point x="626" y="-31"/>
      <point x="626" y="66" type="qcurve" smooth="yes"/>
      <point x="626" y="192" type="line" smooth="yes"/>
      <point x="626" y="343"/>
      <point x="482" y="343" type="qcurve" smooth="yes"/>
      <point x="394" y="343"/>
      <point x="345" y="322" type="qcurve"/>
      <point x="345" y="0" type="line"/>
      <point x="232" y="0" type="line"/>
      <point x="232" y="598" type="line"/>
      <point x="24" y="598" type="line"/>
      <point x="24" y="698" type="line"/>
      <point x="553" y="698" type="line"/>
      <point x="553" y="598" type="line"/>
      <point x="345" y="598" type="line"/>
      <point x="345" y="418" type="line"/>
      <point x="350" y="418" type="line"/>
      <point x="405" y="441"/>
      <point x="496" y="441" type="qcurve" smooth="yes"/>
      <point x="739" y="441"/>
      <point x="739" y="190" type="qcurve" smooth="yes"/>
      <point x="739" y="64" type="line" smooth="yes"/>
      <point x="739" y="-57"/>
      <point x="637" y="-173"/>
      <point x="542" y="-173" type="qcurve" smooth="yes"/>
    </contour>
  </outline>
</glyph>
<glyph name="afii10053" format="2">
  <advance width="648"/>
  <unicode hex="0404"/>
  <outline>
    <contour>
      <point x="355" y="-12" type="qcurve" smooth="yes"/>
      <point x="211" y="-12"/>
      <point x="55" y="168"/>
      <point x="55" y="345" type="qcurve" smooth="yes"/>
      <point x="55" y="522"/>
      <point x="211" y="710"/>
      <point x="355" y="710" type="qcurve" smooth="yes"/>
      <point x="451" y="710"/>
      <point x="573" y="631"/>
      <point x="610" y="556" type="qcurve"/>
      <point x="517" y="501" type="line"/>
      <point x="498" y="552"/>
      <point x="422" y="609"/>
      <point x="355" y="609" type="qcurve" smooth="yes"/>
      <point x="270" y="609"/>
      <point x="175" y="499"/>
      <point x="175" y="403" type="qcurve"/>
      <point x="442" y="403" type="line"/>
      <point x="442" y="303" type="line"/>
      <point x="175" y="303" type="line"/>
      <point x="175" y="200"/>
      <point x="263" y="89"/>
      <point x="355" y="89" type="qcurve" smooth="yes"/>
      <point x="483" y="89"/>
      <point x="523" y="204" type="qcurve"/>
      <point x="614" y="147" type="line"/>
      <point x="541" y="-12"/>
    </contour>
  </outline>
</glyph>
<glyph name="Iukrcyr" format="2">
  <advance width="285"/>
  <unicode hex="0406"/>
  <outline>
    <contour>
      <point x="86" y="0" type="line"/>
      <point x="86" y="698" type="line"/>
      <point x="199" y="698" type="line"/>
      <point x="199" y="0" type="line"/>
    </contour>
  </outline>
</glyph>
<glyph name="afii10058" format="2">
  <advance width="1028"/>
  <unicode hex="0409"/>
  <outline>
    <contour>
      <point x="14" y="-3" type="line"/>
      <point x="14" y="100" type="line"/>
      <point x="91" y="100" type="line"/>
      <point x="131" y="136"/>
      <point x="170" y="304"/>
      <point x="170" y="493" type="qcurve" smooth="yes"/>
      <point x="170" y="698" type="line"/>
      <point x="598" y="698" type="line"/>
      <point x="598" y="430" type="line"/>
      <point x="789" y="430" type="line" smooth="yes"/>
      <point x="885" y="430"/>
      <point x="991" y="315"/>
      <point x="991" y="215" type="qcurve" smooth="yes"/>
      <point x="991" y="115"/>
      <point x="885" y="0"/>
      <point x="789" y="0" type="qcurve" smooth="yes"/>
      <point x="485" y="0" type="line"/>
      <point x="485" y="598" type="line"/>
      <point x="279" y="598" type="line"/>
      <point x="279" y="480" type="line" smooth="yes"/>
      <point x="279" y="272"/>
      <point x="228" y="82"/>
      <point x="186" y="45" type="qcurve"/>
      <point x="160" y="20"/>
      <point x="100" y="-3"/>
      <point x="57" y="-3" type="qcurve" smooth="yes"/>
    </contour>
    <contour>
      <point x="781" y="99" type="line"/>
      <point x="872" y="100"/>
      <point x="872" y="191" type="qcurve" smooth="yes"/>
      <point x="872" y="239" type="line" smooth="yes"/>
      <point x="872" y="285"/>
      <point x="824" y="331"/>
      <point x="781" y="331" type="qcurve" smooth="yes"/>
      <point x="598" y="331" type="line"/>
      <point x="598" y="99" type="line"/>
    </contour>
  </outline>
</glyph>
<glyph name="afii10062" format="2">
  <advance width="610"/>
  <unicode hex="040E"/>
  <outline>
    <contour>
      <point x="311" y="755" type="qcurve" smooth="yes"/>
      <point x="251" y="755"/>
      <point x="179" y="804"/>
      <point x="159" y="847" type="qcurve" smooth="yes"/>
      <point x="139" y="891" type="line"/>
      <point x="228" y="927" type="line"/>
      <point x="262" y="837" type="line"/>
      <point x="285" y="830"/>
      <point x="311" y="830" type="qcurve" smooth="yes"/>
      <point x="337" y="830"/>
      <point x="360" y="837" type="qcurve"/>
      <point x="394" y="927" type="line"/>
      <point x="483" y="891" type="line"/>
      <point x="463" y="847" type="line" smooth="yes"/>
      <point x="443" y="804"/>
      <point x="371" y="755"/>
    </contour>
    <contour>
      <point x="133" y="0" type="line"/>
      <point x="133" y="100" type="line"/>
      <point x="243" y="100" type="line"/>
      <point x="269" y="164" type="line"/>
      <point x="17" y="698" type="line"/>
      <point x="137" y="698" type="line"/>
      <point x="265" y="423" type="line"/>
      <point x="320" y="294" type="line"/>
      <point x="324" y="294" type="line"/>
      <point x="371" y="425" type="line"/>
      <point x="480" y="698" type="line"/>
      <point x="593" y="698" type="line"/>
      <point x="348" y="93" type="line" smooth="yes"/>
      <point x="328" y="42"/>
      <point x="269" y="0"/>
      <point x="208" y="0" type="qcurve" smooth="yes"/>
    </contour>
  </outline>
</glyph>
<glyph name="u0412" format="2">
  <advance width="659"/>
  <unicode hex="0412"/>
  <outline>
    <contour>
      <point x="393" y="97" type="line"/>
      <point x="487" y="101"/>
      <point x="487" y="186" type="qcurve" smooth="yes"/>
      <point x="487" y="220" type="line" smooth="yes"/>
      <point x="487" y="263"/>
      <point x="437" y="309"/>
      <point x="393" y="309" type="qcurve" smooth="yes"/>
      <point x="199" y="309" type="line"/>
      <point x="199" y="97" type="line"/>
    </contour>
    <contour>
      <point x="374" y="403" type="line"/>
      <point x="462" y="407"/>
      <point x="462" y="486" type="qcurve" smooth="yes"/>
      <point x="462" y="518" type="line"/>
      <point x="458" y="601"/>
      <point x="374" y="601" type="qcurve" smooth="yes"/>
      <point x="199" y="601" type="line"/>
      <point x="199" y="403" type="line"/>
    </contour>
    <contour>
      <point x="86" y="0" type="line"/>
      <point x="86" y="698" type="line"/>
      <point x="395" y="698" type="line" smooth="yes"/>
      <point x="482" y="698"/>
      <point x="581" y="600"/>
      <point x="581" y="518" type="qcurve" smooth="yes"/>
      <point x="581" y="464"/>
      <point x="543" y="401"/>
      <point x="487" y="372"/>
      <point x="460" y="370" type="qcurve"/>
      <point x="460" y="364" type="line"/>
      <point x="489" y="363"/>
      <point x="556" y="331"/>
      <point x="606" y="260"/>
      <point x="606" y="201" type="qcurve" smooth="yes"/>
      <point x="606" y="120"/>
      <point x="507" y="0"/>
      <point x="426" y="0" type="qcurve" smooth="yes"/>
    </contour>
  </outline>
</glyph>
<glyph name="u0414" format="2">
  <advance width="764"/>
  <unicode hex="0414"/>
  <outline>
    <contour>
      <point x="517" y="598" type="line"/>
      <point x="284" y="598" type="line"/>
      <point x="284" y="473" type="line" smooth="yes"/>
      <point x="284" y="320"/>
      <point x="249" y="151"/>
      <point x="217" y="104" type="qcurve"/>
      <point x="217" y="100" type="line"/>
      <point x="517" y="100" type="line"/>
    </contour>
    <contour>
      <point x="629" y="-150" type="line"/>
      <point x="629" y="0" type="line"/>
      <point x="118" y="0" type="line"/>
      <point x="118" y="-150" type="line"/>
      <point x="13" y="-150" type="line"/>
      <point x="13" y="100" type="line"/>
      <point x="87" y="100" type="line"/>
      <point x="127" y="146"/>
      <point x="175" y="326"/>
      <point x="175" y="486" type="qcurve" smooth="yes"/>
      <point x="175" y="698" type="line"/>
      <point x="630" y="698" type="line"/>
      <point x="630" y="100" type="line"/>
      <point x="734" y="100" type="line"/>
      <point x="734" y="-150" type="line"/>
    </contour>
  </outline>
</glyph>
<glyph name="afii10024" format="2">
  <advance width="991"/>
  <unicode hex="0416"/>
  <outline>
    <contour>
      <point x="879" y="0" type="line" smooth="yes"/>
      <point x="844" y="0"/>
      <point x="798" y="34"/>
      <point x="776" y="78" type="qcurve" smooth="yes"/>
      <point x="662" y="305" type="line"/>
      <point x="552" y="305" type="line"/>
      <point x="552" y="0" type="line"/>
      <point x="439" y="0" type="line"/>
      <point x="439" y="305" type="line"/>
      <point x="329" y="305" type="line"/>
      <point x="215" y="78" type="line" smooth="yes"/>
      <point x="193" y="34"/>
      <point x="147" y="0"/>
      <point x="112" y="0" type="qcurve" smooth="yes"/>
      <point x="42" y="0" type="line"/>
      <point x="42" y="100" type="line"/>
      <point x="104" y="100" type="line"/>
      <point x="199" y="288" type="line"/>
      <point x="228" y="349"/>
      <point x="272" y="355" type="qcurve"/>
      <point x="272" y="360" type="line"/>
      <point x="231" y="370"/>
      <point x="203" y="425" type="qcurve"/>
      <point x="122" y="598" type="line"/>
      <point x="60" y="598" type="line"/>
      <point x="60" y="698" type="line"/>
      <point x="115" y="698" type="line" smooth="yes"/>
      <point x="192" y="698"/>
      <point x="226" y="622" type="qcurve"/>
      <point x="329" y="404" type="line"/>
      <point x="439" y="404" type="line"/>
      <point x="439" y="698" type="line"/>
      <point x="552" y="698" type="line"/>
      <point x="552" y="404" type="line"/>
      <point x="662" y="404" type="line"/>
      <point x="765" y="622" type="line" smooth="yes"/>
      <point x="800" y="698"/>
      <point x="876" y="698" type="qcurve" smooth="yes"/>
      <point x="931" y="698" type="line"/>
      <point x="931" y="598" type="line"/>
      <point x="869" y="598" type="line"/>
      <point x="788" y="425" type="line"/>
      <point x="760" y="370"/>
      <point x="719" y="360" type="qcurve"/>
      <point x="719" y="355" type="line"/>
      <point x="763" y="349"/>
      <point x="792" y="288" type="qcurve"/>
      <point x="887" y="100" type="line"/>
      <point x="949" y="100" type="line"/>
      <point x="949" y="0" type="line"/>
    </contour>
  </outline>
</glyph>
<glyph name="u041A" format="2">
  <advance width="668"/>
  <unicode hex="041A"/>
  <outline>
    <contour>
      <point x="557" y="0" type="line" smooth="yes"/>
      <point x="491" y="0"/>
      <point x="452" y="75" type="qcurve"/>
      <point x="320" y="305" type="line"/>
      <point x="199" y="305" type="line"/>
      <point x="199" y="0" type="line"/>
      <point x="86" y="0" type="line"/>
      <point x="86" y="698" type="line"/>
      <point x="199" y="698" type="line"/>
      <point x="199" y="404" type="line"/>
      <point x="320" y="404" type="line"/>
      <point x="444" y="622" type="line"/>
      <point x="482" y="698"/>
      <point x="555" y="698" type="qcurve" smooth="yes"/>
      <point x="608" y="698" type="line"/>
      <point x="608" y="598" type="line"/>
      <point x="545" y="598" type="line"/>
      <point x="445" y="422" type="line" smooth="yes"/>
      <point x="428" y="393"/>
      <point x="398" y="366"/>
      <point x="378" y="360" type="qcurve"/>
      <point x="378" y="355" type="line"/>
      <point x="402" y="351"/>
      <point x="437" y="325"/>
      <point x="454" y="294" type="qcurve" smooth="yes"/>
      <point x="565" y="100" type="line"/>
      <point x="626" y="100" type="line"/>
      <point x="626" y="0" type="line"/>
    </contour>
  </outline>
</glyph>
<glyph name="afii10044" format="2">
  <advance width="749"/>
  <unicode hex="042A"/>
  <outline>
    <contour>
      <point x="191" y="0" type="line"/>
      <point x="191" y="598" type="line"/>
      <point x="22" y="598" type="line"/>
      <point x="22" y="698" type="line"/>
      <point x="304" y="698" type="line"/>
      <point x="304" y="430" type="line"/>
      <point x="509" y="430" type="line" smooth="yes"/>
      <point x="606" y="430"/>
      <point x="712" y="315"/>
      <point x="712" y="215" type="qcurve" smooth="yes"/>
      <point x="712" y="115"/>
      <point x="606" y="0"/>
      <point x="509" y="0" type="qcurve" smooth="yes"/>
    </contour>
    <contour>
      <point x="501" y="99" type="line" smooth="yes"/>
      <point x="544" y="99"/>
      <point x="593" y="145"/>
      <point x="593" y="191" type="qcurve" smooth="yes"/>
      <point x="593" y="239" type="line" smooth="yes"/>
      <point x="593" y="285"/>
      <point x="544" y="331"/>
      <point x="501" y="331" type="qcurve" smooth="yes"/>
      <point x="304" y="331" type="line"/>
      <point x="304" y="99" type="line"/>
    </contour>
  </outline>
</glyph>
<glyph name="u042C" format="2">
  <advance width="644"/>
  <unicode hex="042C"/>
  <outline>
    <contour>
      <point x="397" y="99" type="line"/>
      <point x="488" y="100"/>
      <point x="488" y="191" type="qcurve" smooth="yes"/>
      <point x="488" y="239" type="line" smooth="yes"/>
      <point x="488" y="285"/>
      <point x="440" y="331"/>
      <point x="397" y="331" type="qcurve" smooth="yes"/>
      <point x="199" y="331" type="line"/>
      <point x="199" y="99" type="line"/>
    </contour>
    <contour>
      <point x="86" y="0" type="line"/>
      <point x="86" y="698" type="line"/>
      <point x="199" y="698" type="line"/>
      <point x="199" y="430" type="line"/>
      <point x="404" y="430" type="line" smooth="yes"/>
      <point x="501" y="430"/>
      <point x="607" y="315"/>
      <point x="607" y="215" type="qcurve" smooth="yes"/>
      <point x="607" y="115"/>
      <point x="501" y="0"/>
      <point x="404" y="0" type="qcurve" smooth="yes"/>
    </contour>
  </outline>
</glyph>
<glyph name="Ereversedcyr" format="2">
  <advance width="648"/>
  <unicode hex="042D"/>
  <outline>
    <contour>
      <point x="294" y="-12" type="qcurve" smooth="yes"/>
      <point x="107" y="-12"/>
      <point x="34" y="147" type="qcurve"/>
      <point x="125" y="204" type="line"/>
      <point x="168" y="89"/>
      <point x="294" y="89" type="qcurve" smooth="yes"/>
      <point x="379" y="89"/>
      <point x="473" y="197"/>
      <point x="473" y="292" type="qcurve" smooth="yes"/>
      <point x="473" y="303" type="line"/>
      <point x="206" y="303" type="line"/>
      <point x="206" y="403" type="line"/>
      <point x="473" y="403" type="line"/>
      <point x="473" y="411" type="line" smooth="yes"/>
      <point x="473" y="505"/>
      <point x="379" y="609"/>
      <point x="294" y="609" type="qcurve" smooth="yes"/>
      <point x="227" y="609"/>
      <point x="152" y="552"/>
      <point x="132" y="501" type="qcurve"/>
      <point x="39" y="556" type="line"/>
      <point x="76" y="631"/>
      <point x="198" y="710"/>
      <point x="294" y="710" type="qcurve" smooth="yes"/>
      <point x="437" y="710"/>
      <point x="593" y="530"/>
      <point x="593" y="353" type="qcurve" smooth="yes"/>
      <point x="593" y="176"/>
      <point x="437" y="-12"/>
    </contour>
  </outline>
</glyph>
<glyph name="Yucyr" format="2">
  <advance width="983"/>
  <unicode hex="042E"/>
  <outline>
    <contour>
      <point x="634" y="89" type="qcurve" smooth="yes"/>
      <point x="715" y="89"/>
      <point x="808" y="196"/>
      <point x="808" y="294" type="qcurve" smooth="yes"/>
      <point x="808" y="404" type="line" smooth="yes"/>
      <point x="808" y="502"/>
      <point x="715" y="609"/>
      <point x="634" y="609" type="qcurve" smooth="yes"/>
      <point x="553" y="609"/>
      <point x="460" y="502"/>
      <point x="460" y="404" type="qcurve" smooth="yes"/>
      <point x="460" y="294" type="line" smooth="yes"/>
      <point x="460" y="196"/>
      <point x="553" y="89"/>
    </contour>
    <contour>
      <point x="634" y="-12" type="qcurve" smooth="yes"/>
      <point x="503" y="-12"/>
      <point x="352" y="148"/>
      <point x="340" y="304" type="qcurve"/>
      <point x="199" y="304" type="line"/>
      <point x="199" y="0" type="line"/>
      <point x="86" y="0" type="line"/>
      <point x="86" y="698" type="line"/>
      <point x="199" y="698" type="line"/>
      <point x="199" y="404" type="line"/>
      <point x="342" y="404" type="line"/>
      <point x="355" y="557"/>
      <point x="511" y="710"/>
      <point x="634" y="710" type="qcurve" smooth="yes"/>
      <point x="775" y="710"/>
      <point x="928" y="522"/>
      <point x="928" y="349" type="qcurve" smooth="yes"/>
      <point x="928" y="176"/>
      <point x="775" y="-12"/>
    </contour>
  </outline>
</glyph>
<glyph name="u0432" format="2">
  <advance width="566"/>
  <unicode hex="0432"/>
  <outline>
    <contour>
      <point x="338" y="83" type="line"/>
      <point x="401" y="84"/>
      <point x="401" y="142" type="qcurve" smooth="yes"/>
      <point x="401" y="169" type="line"/>
      <point x="397" y="229"/>
      <point x="338" y="229" type="qcurve" smooth="yes"/>
      <point x="185" y="229" type="line"/>
      <point x="185" y="83" type="line"/>
    </contour>
    <contour>
      <point x="324" y="304" type="line"/>
      <point x="382" y="306"/>
      <point x="382" y="358" type="qcurve" smooth="yes"/>
      <point x="382" y="383" type="line"/>
      <point x="380" y="437"/>
      <point x="324" y="437" type="qcurve" smooth="yes"/>
      <point x="185" y="437" type="line"/>
      <point x="185" y="304" type="line"/>
    </contour>
    <contour>
      <point x="78" y="0" type="line"/>
      <point x="78" y="520" type="line"/>
      <point x="355" y="520" type="line" smooth="yes"/>
      <point x="422" y="520"/>
      <point x="495" y="448"/>
      <point x="495" y="388" type="qcurve" smooth="yes"/>
      <point x="495" y="291"/>
      <point x="390" y="277" type="qcurve"/>
      <point x="390" y="272" type="line"/>
      <point x="453" y="266"/>
      <point x="514" y="204"/>
      <point x="514" y="153" type="qcurve" smooth="yes"/>
      <point x="514" y="86"/>
      <point x="432" y="0"/>
      <point x="363" y="0" type="qcurve" smooth="yes"/>
    </contour>
  </outline>
</glyph>
<glyph name="afii10073" format="2">
  <advance width="514"/>
  <unicode hex="0437"/>
  <outline>
    <contour>
      <point x="240" y="-12" type="qcurve" smooth="yes"/>
      <point x="162" y="-12"/>
      <point x="61" y="40"/>
      <point x="26" y="88" type="qcurve"/>
      <point x="97" y="153" type="line"/>
      <point x="148" y="78"/>
      <point x="240" y="78" type="qcurve" smooth="yes"/>
      <point x="296" y="78"/>
      <point x="349" y="118"/>
      <point x="349" y="150" type="qcurve" smooth="yes"/>
      <point x="349" y="162" type="line"/>
      <point x="346" y="227"/>
      <point x="266" y="227" type="qcurve" smooth="yes"/>
      <point x="154" y="227" type="line"/>
      <point x="154" y="307" type="line"/>
      <point x="255" y="307" type="line"/>
      <point x="338" y="308"/>
      <point x="338" y="368" type="qcurve" smooth="yes"/>
      <point x="338" y="379" type="line" smooth="yes"/>
      <point x="338" y="442"/>
      <point x="238" y="442" type="qcurve" smooth="yes"/>
      <point x="148" y="442"/>
      <point x="105" y="372" type="qcurve"/>
      <point x="37" y="431" type="line"/>
      <point x="101" y="532"/>
      <point x="245" y="532" type="qcurve" smooth="yes"/>
      <point x="349" y="532"/>
      <point x="450" y="455"/>
      <point x="450" y="391" type="qcurve" smooth="yes"/>
      <point x="450" y="341"/>
      <point x="398" y="285"/>
      <point x="346" y="276" type="qcurve"/>
      <point x="346" y="271" type="line"/>
      <point x="403" y="264"/>
      <point x="462" y="202"/>
      <point x="462" y="153" type="qcurve" smooth="yes"/>
      <point x="462" y="76"/>
      <point x="343" y="-12"/>
    </contour>
  </outline>
</glyph>
<glyph name="u043B" format="2">
  <advance width="585"/>
  <unicode hex="043B"/>
  <outline>
    <contour>
      <point x="11" y="-3" type="line"/>
      <point x="11" y="89" type="line"/>
      <point x="79" y="89" type="line"/>
      <point x="102" y="118"/>
      <point x="128" y="246"/>
      <point x="128" y="365" type="qcurve" smooth="yes"/>
      <point x="128" y="520" type="line"/>
      <point x="506" y="520" type="line"/>
      <point x="506" y="0" type="line"/>
      <point x="397" y="0" type="line"/>
      <point x="397" y="431" type="line"/>
      <point x="233" y="431" type="line"/>
      <point x="233" y="360" type="line" smooth="yes"/>
      <point x="233" y="212"/>
      <point x="192" y="64"/>
      <point x="161" y="36" type="qcurve"/>
      <point x="125" y="-3"/>
      <point x="48" y="-3" type="qcurve" smooth="yes"/>
    </contour>
  </outline>
</glyph>
<glyph name="afii10084" format="2">
  <advance width="481"/>
  <unicode hex="0442"/>
  <outline>
    <contour>
      <point x="186" y="0" type="line"/>
      <point x="186" y="431" type="line"/>
      <point x="20" y="431" type="line"/>
      <point x="20" y="520" type="line"/>
      <point x="461" y="520" type="line"/>
      <point x="461" y="431" type="line"/>
      <point x="295" y="431" type="line"/>
      <point x="295" y="0" type="line"/>
    </contour>
  </outline>
</glyph>
<glyph name="u0447" format="2">
  <advance width="555"/>
  <unicode hex="0447"/>
  <outline>
    <contour>
      <point x="368" y="0" type="line"/>
      <point x="368" y="231" type="line"/>
      <point x="363" y="231" type="line"/>
      <point x="318" y="166"/>
      <point x="218" y="166" type="qcurve" smooth="yes"/>
      <point x="212" y="166" type="line" smooth="yes"/>
      <point x="50" y="166"/>
      <point x="50" y="337" type="qcurve" smooth="yes"/>
      <point x="50" y="520" type="line"/>
      <point x="159" y="520" type="line"/>
      <point x="159" y="344" type="line" smooth="yes"/>
      <point x="159" y="300"/>
      <point x="205" y="259"/>
      <point x="256" y="259" type="qcurve"/>
      <point x="368" y="262"/>
      <point x="368" y="317" type="qcurve" smooth="yes"/>
      <point x="368" y="520" type="line"/>
      <point x="477" y="520" type="line"/>
      <point x="477" y="0" type="line"/>
    </contour>
  </outline>
</glyph>
<glyph name="u044A" format="2">
  <advance width="612"/>
  <unicode hex="044A"/>
  <outline>
    <contour>
      <point x="384" y="85" type="line" smooth="yes"/>
      <point x="466" y="85"/>
      <point x="466" y="153" type="qcurve" smooth="yes"/>
      <point x="466" y="194" type="line" smooth="yes"/>
      <point x="466" y="261"/>
      <point x="384" y="261" type="qcurve" smooth="yes"/>
      <point x="261" y="261" type="line"/>
      <point x="261" y="85" type="line"/>
    </contour>
    <contour>
      <point x="152" y="0" type="line"/>
      <point x="152" y="431" type="line"/>
      <point x="20" y="431" type="line"/>
      <point x="20" y="520" type="line"/>
      <point x="261" y="520" type="line"/>
      <point x="261" y="346" type="line"/>
      <point x="404" y="346" type="line" smooth="yes"/>
      <point x="483" y="346"/>
      <point x="579" y="254"/>
      <point x="579" y="174" type="qcurve" smooth="yes"/>
      <point x="579" y="90"/>
      <point x="482" y="0"/>
      <point x="404" y="0" type="qcurve" smooth="yes"/>
    </contour>
  </outline>
</glyph>
<glyph name="ylongcyr" format="2">
  <advance width="760"/>
  <unicode hex="044B"/>
  <outline>
    <contour>
      <point x="300" y="85" type="line" smooth="yes"/>
      <point x="382" y="85"/>
      <point x="382" y="153" type="qcurve" smooth="yes"/>
      <point x="382" y="194" type="line" smooth="yes"/>
      <point x="382" y="261"/>
      <point x="300" y="261" type="qcurve" smooth="yes"/>
      <point x="187" y="261" type="line"/>
      <point x="187" y="85" type="line"/>
    </contour>
    <contour>
      <point x="573" y="0" type="line"/>
      <point x="573" y="520" type="line"/>
      <point x="682" y="520" type="line"/>
      <point x="682" y="0" type="line"/>
    </contour>
    <contour>
      <point x="78" y="0" type="line"/>
      <point x="78" y="520" type="line"/>
      <point x="187" y="520" type="line"/>
      <point x="187" y="346" type="line"/>
      <point x="320" y="346" type="line" smooth="yes"/>
      <point x="402" y="346"/>
      <point x="495" y="252"/>
      <point x="495" y="173" type="qcurve" smooth="yes"/>
      <point x="495" y="90"/>
      <point x="399" y="0"/>
      <point x="321" y="0" type="qcurve" smooth="yes"/>
    </contour>
  </outline>
</glyph>
<glyph name="u044C" format="2">
  <advance width="538"/>
  <unicode hex="044C"/>
  <outline>
    <contour>
      <point x="310" y="85" type="line" smooth="yes"/>
      <point x="392" y="85"/>
      <point x="392" y="153" type="qcurve" smooth="yes"/>
      <point x="392" y="194" type="line" smooth="yes"/>
      <point x="392" y="261"/>
      <point x="310" y="261" type="qcurve" smooth="yes"/>
      <point x="187" y="261" type="line"/>
      <point x="187" y="85" type="line"/>
    </contour>
    <contour>
      <point x="78" y="0" type="line"/>
      <point x="78" y="520" type="line"/>
      <point x="187" y="520" type="line"/>
      <point x="187" y="346" type="line"/>
      <point x="330" y="346" type="line" smooth="yes"/>
      <point x="408" y="346"/>
      <point x="505" y="255"/>
      <point x="505" y="173" type="qcurve" smooth="yes"/>
      <point x="505" y="90"/>
      <point x="409" y="0"/>
      <point x="331" y="0" type="qcurve" smooth="yes"/>
    </contour>
  </outline>
</glyph>
<glyph name="afii10095" format="2">
  <advance width="521"/>
  <unicode hex="044D"/>
  <outline>
    <contour>
      <point x="236" y="-12" type="qcurve" smooth="yes"/>
      <point x="153" y="-12"/>
      <point x="57" y="53"/>
      <point x="29" y="114" type="qcurve"/>
      <point x="115" y="158" type="line"/>
      <point x="145" y="78"/>
      <point x="236" y="78" type="qcurve" smooth="yes"/>
      <point x="302" y="78"/>
      <point x="364" y="151"/>
      <point x="364" y="214" type="qcurve" smooth="yes"/>
      <point x="364" y="223" type="line"/>
      <point x="166" y="223" type="line"/>
      <point x="166" y="303" type="line"/>
      <point x="364" y="303" type="line"/>
      <point x="364" y="366"/>
      <point x="304" y="442"/>
      <point x="237" y="442" type="qcurve" smooth="yes"/>
      <point x="186" y="442"/>
      <point x="128" y="400"/>
      <point x="111" y="361" type="qcurve"/>
      <point x="27" y="409" type="line"/>
      <point x="82" y="532"/>
      <point x="237" y="532" type="qcurve" smooth="yes"/>
      <point x="320" y="532"/>
      <point x="427" y="462"/>
      <point x="479" y="339"/>
      <point x="479" y="260" type="qcurve" smooth="yes"/>
      <point x="479" y="134"/>
      <point x="353" y="-12"/>
    </contour>
  </outline>
</glyph>
<glyph name="afii10097" format="2">
  <advance width="556"/>
  <unicode hex="044F"/>
  <outline>
    <contour>
      <point x="369" y="0" type="line"/>
      <point x="369" y="192" type="line"/>
      <point x="258" y="192" type="line"/>
      <point x="203" y="73" type="line" smooth="yes"/>
      <point x="184" y="32"/>
      <point x="136" y="0"/>
      <point x="103" y="0" type="qcurve" smooth="yes"/>
      <point x="41" y="0" type="line"/>
      <point x="41" y="89" type="line"/>
      <point x="97" y="89" type="line"/>
      <point x="126" y="153" type="line" smooth="yes"/>
      <point x="147" y="197"/>
      <point x="186" y="202" type="qcurve"/>
      <point x="186" y="206" type="line"/>
      <point x="51" y="223"/>
      <point x="51" y="353" type="qcurve" smooth="yes"/>
      <point x="51" y="428"/>
      <point x="144" y="520"/>
      <point x="225" y="520" type="qcurve" smooth="yes"/>
      <point x="478" y="520" type="line"/>
      <point x="478" y="0" type="line"/>
    </contour>
    <contour>
      <point x="369" y="435" type="line"/>
      <point x="246" y="435" type="line" smooth="yes"/>
      <point x="164" y="435"/>
      <point x="164" y="367" type="qcurve" smooth="yes"/>
      <point x="164" y="341" type="line" smooth="yes"/>
      <point x="164" y="308"/>
      <point x="208" y="275"/>
      <point x="246" y="275" type="qcurve" smooth="yes"/>
      <point x="369" y="275" type="line"/>
    </contour>
  </outline>
</glyph>
<glyph name="afii10071" format="2">
  <advance width="556"/>
  <unicode hex="0451"/>
  <outline>
    <contour>
      <point x="184" y="610" type="qcurve" smooth="yes"/>
      <point x="122" y="610"/>
      <point x="122" y="663" type="qcurve" smooth="yes"/>
      <point x="122" y="681" type="line" smooth="yes"/>
      <point x="122" y="734"/>
      <point x="184" y="734" type="qcurve" smooth="yes"/>
      <point x="246" y="734"/>
      <point x="246" y="681" type="qcurve" smooth="yes"/>
      <point x="246" y="663" type="line" smooth="yes"/>
      <point x="246" y="610"/>
    </contour>
    <contour>
      <point x="384" y="610" type="qcurve" smooth="yes"/>
      <point x="322" y="610"/>
      <point x="322" y="663" type="qcurve" smooth="yes"/>
      <point x="322" y="681" type="line" smooth="yes"/>
      <point x="322" y="734"/>
      <point x="384" y="734" type="qcurve" smooth="yes"/>
      <point x="446" y="734"/>
      <point x="446" y="681" type="qcurve" smooth="yes"/>
      <point x="446" y="663" type="line" smooth="yes"/>
      <point x="446" y="610"/>
    </contour>
    <contour>
      <point x="282" y="-12" type="qcurve" smooth="yes"/>
      <point x="173" y="-12"/>
      <point x="43" y="133"/>
      <point x="43" y="260" type="qcurve" smooth="yes"/>
      <point x="43" y="379"/>
      <point x="166" y="532"/>
      <point x="282" y="532" type="qcurve" smooth="yes"/>
      <point x="362" y="532"/>
      <point x="464" y="459"/>
      <point x="513" y="341"/>
      <point x="513" y="273" type="qcurve" smooth="yes"/>
      <point x="513" y="232" type="line"/>
      <point x="156" y="232" type="line"/>
      <point x="156" y="215" type="line" smooth="yes"/>
      <point x="156" y="155"/>
      <point x="227" y="78"/>
      <point x="293" y="78" type="qcurve" smooth="yes"/>
      <point x="381" y="78"/>
      <point x="430" y="156" type="qcurve"/>
      <point x="494" y="93" type="line"/>
      <point x="464" y="44"/>
      <point x="355" y="-12"/>
    </contour>
    <contour>
      <point x="398" y="314" type="line" smooth="yes"/>
      <point x="398" y="374"/>
      <point x="336" y="447"/>
      <point x="282" y="447" type="qcurve" smooth="yes"/>
      <point x="227" y="447"/>
      <point x="156" y="371"/>
      <point x="156" y="304" type="qcurve"/>
      <point x="398" y="304" type="line"/>
    </contour>
  </outline>
</glyph>
<glyph name="djecyr" format="2">
  <advance width="583"/>
  <unicode hex="0452"/>
  <outline>
    <contour>
      <point x="317" y="-200" type="line"/>
      <point x="317" y="-111" type="line"/>
      <point x="398" y="-111" type="line"/>
      <point x="398" y="317" type="line" smooth="yes"/>
      <point x="398" y="439"/>
      <point x="300" y="439" type="qcurve" smooth="yes"/>
      <point x="257" y="439"/>
      <point x="187" y="395"/>
      <point x="187" y="350" type="qcurve" smooth="yes"/>
      <point x="187" y="0" type="line"/>
      <point x="78" y="0" type="line"/>
      <point x="78" y="600" type="line"/>
      <point x="15" y="600" type="line"/>
      <point x="15" y="679" type="line"/>
      <point x="78" y="679" type="line"/>
      <point x="78" y="740" type="line"/>
      <point x="187" y="740" type="line"/>
      <point x="187" y="679" type="line"/>
      <point x="333" y="679" type="line"/>
      <point x="333" y="600" type="line"/>
      <point x="187" y="600" type="line"/>
      <point x="187" y="434" type="line"/>
      <point x="192" y="434" type="line"/>
      <point x="230" y="532"/>
      <point x="338" y="532" type="qcurve" smooth="yes"/>
      <point x="418" y="532"/>
      <point x="507" y="427"/>
      <point x="507" y="330" type="qcurve" smooth="yes"/>
      <point x="507" y="-71" type="line" smooth="yes"/>
      <point x="507" y="-131"/>
      <point x="446" y="-200"/>
      <point x="380" y="-200" type="qcurve" smooth="yes"/>
    </contour>
  </outline>
</glyph>
<glyph name="u0456" format="2">
  <advance width="265"/>
  <unicode hex="0456"/>
  <outline>
    <contour>
      <point x="78" y="0" type="line"/>
      <point x="78" y="520" type="line"/>
      <point x="187" y="520" type="line"/>
      <point x="187" y="0" type="line"/>
    </contour>
    <contour>
      <point x="133" y="613" type="qcurve" smooth="yes"/>
      <point x="99" y="613"/>
      <point x="68" y="645"/>
      <point x="68" y="670" type="qcurve" smooth="yes"/>
      <point x="68" y="687" type="line" smooth="yes"/>
      <point x="68" y="712"/>
      <point x="99" y="744"/>
      <point x="133" y="744" type="qcurve" smooth="yes"/>
      <point x="167" y="744"/>
      <point x="197" y="712"/>
      <point x="197" y="687" type="qcurve" smooth="yes"/>
      <point x="197" y="670" type="line" smooth="yes"/>
      <point x="197" y="645"/>
      <point x="167" y="613"/>
    </contour>
  </outline>
</glyph>
<glyph name="njecyr" format="2">
  <advance width="848"/>
  <unicode hex="045A"/>
  <outline>
    <contour>
      <point x="621" y="85" type="line" smooth="yes"/>
      <point x="702" y="85"/>
      <point x="702" y="153" type="qcurve" smooth="yes"/>
      <point x="702" y="194" type="line" smooth="yes"/>
      <point x="702" y="261"/>
      <point x="621" y="261" type="qcurve" smooth="yes"/>
      <point x="508" y="261" type="line"/>
      <point x="508" y="85" type="line"/>
    </contour>
    <contour>
      <point x="399" y="0" type="line"/>
      <point x="399" y="222" type="line"/>
      <point x="187" y="222" type="line"/>
      <point x="187" y="0" type="line"/>
      <point x="78" y="0" type="line"/>
      <point x="78" y="520" type="line"/>
      <point x="187" y="520" type="line"/>
      <point x="187" y="311" type="line"/>
      <point x="399" y="311" type="line"/>
      <point x="399" y="520" type="line"/>
      <point x="508" y="520" type="line"/>
      <point x="508" y="346" type="line"/>
      <point x="641" y="346" type="line" smooth="yes"/>
      <point x="716" y="346"/>
      <point x="815" y="259"/>
      <point x="815" y="173" type="qcurve" smooth="yes"/>
      <point x="815" y="90"/>
      <point x="719" y="0"/>
      <point x="641" y="0" type="qcurve" smooth="yes"/>
    </contour>
  </outline>
</glyph>
<glyph name="kjecyr" format="2">
  <advance width="568"/>
  <unicode hex="045C"/>
  <outline>
    <contour>
      <point x="466" y="0" type="line" smooth="yes"/>
      <point x="400" y="0"/>
      <point x="365" y="68" type="qcurve"/>
      <point x="279" y="222" type="line"/>
      <point x="187" y="222" type="line"/>
      <point x="187" y="0" type="line"/>
      <point x="78" y="0" type="line"/>
      <point x="78" y="520" type="line"/>
      <point x="187" y="520" type="line"/>
      <point x="187" y="310" type="line"/>
      <point x="279" y="310" type="line"/>
      <point x="365" y="455" type="line" smooth="yes"/>
      <point x="386" y="491"/>
      <point x="431" y="520"/>
      <point x="465" y="520" type="qcurve" smooth="yes"/>
      <point x="518" y="520" type="line"/>
      <point x="518" y="431" type="line"/>
      <point x="460" y="431" type="line"/>
      <point x="394" y="321" type="line"/>
      <point x="380" y="296"/>
      <point x="355" y="275"/>
      <point x="337" y="270" type="qcurve"/>
      <point x="337" y="266" type="line"/>
      <point x="357" y="263"/>
      <point x="387" y="241"/>
      <point x="401" y="215" type="qcurve" smooth="yes"/>
      <point x="471" y="89" type="line"/>
      <point x="528" y="89" type="line"/>
      <point x="528" y="0" type="line"/>
    </contour>
    <contour>
      <point x="233" y="615" type="line"/>
      <point x="324" y="795" type="line"/>
      <point x="419" y="749" type="line"/>
      <point x="301" y="582" type="line"/>
    </contour>
  </outline>
</glyph>
<glyph name="Fitacyr" format="2">
  <advance width="710"/>
  <unicode hex="0472"/>
  <outline>
    <contour>
      <point x="355" y="84" type="qcurve" smooth="yes"/>
      <point x="438" y="84"/>
      <point x="539" y="195"/>
      <point x="539" y="293" type="qcurve" smooth="yes"/>
      <point x="539" y="303" type="line"/>
      <point x="171" y="303" type="line"/>
      <point x="171" y="293" type="line" smooth="yes"/>
      <point x="171" y="195"/>
      <point x="272" y="84"/>
    </contour>
    <contour>
      <point x="539" y="402" type="line"/>
      <point x="539" y="502"/>
      <point x="440" y="614"/>
      <point x="355" y="614" type="qcurve" smooth="yes"/>
      <point x="270" y="614"/>
      <point x="171" y="502"/>
      <point x="171" y="402" type="qcurve"/>
    </contour>
    <contour>
      <point x="355" y="-12" type="qcurve" smooth="yes"/>
      <point x="213" y="-12"/>
      <point x="55" y="181"/>
      <point x="55" y="349" type="qcurve" smooth="yes"/>
      <point x="55" y="468"/>
      <point x="130" y="629"/>
      <point x="266" y="710"/>
      <point x="355" y="710" type="qcurve" smooth="yes"/>
      <point x="444" y="710"/>
      <point x="580" y="629"/>
      <point x="655" y="468"/>
      <point x="655" y="349" type="qcurve" smooth="yes"/>
      <point x="655" y="181"/>
      <point x="497" y="-12"/>
    </contour>
  </outline>
</glyph>
<glyph name="Geupcyr" format="2">
  <advance width="505"/>
  <unicode hex="0490"/>
  <outline>
    <contour>
      <point x="86" y="0" type="line"/>
      <point x="86" y="698" type="line"/>
      <point x="374" y="698" type="line"/>
      <point x="374" y="848" type="line"/>
      <point x="479" y="848" type="line"/>
      <point x="479" y="598" type="line"/>
      <point x="199" y="598" type="line"/>
      <point x="199" y="0" type="line"/>
    </contour>
  </outline>
</glyph>
<glyph name="ghemiddlehookcyrillic" format="2">
  <advance width="553"/>
  <unicode hex="0495"/>
  <outline>
    <contour>
      <point x="283" y="-200" type="line"/>
      <point x="283" y="-111" type="line"/>
      <point x="368" y="-111" type="line"/>
      <point x="382" y="-96"/>
      <point x="396" y="-40"/>
      <point x="396" y="11" type="qcurve" smooth="yes"/>
      <point x="396" y="106" type="line" smooth="yes"/>
      <point x="396" y="166"/>
      <point x="351" y="212"/>
      <point x="299" y="212" type="qcurve"/>
      <point x="187" y="209"/>
      <point x="187" y="153" type="qcurve" smooth="yes"/>
      <point x="187" y="0" type="line"/>
      <point x="78" y="0" type="line"/>
      <point x="78" y="520" type="line"/>
      <point x="417" y="520" type="line"/>
      <point x="417" y="431" type="line"/>
      <point x="187" y="431" type="line"/>
      <point x="187" y="240" type="line"/>
      <point x="192" y="240" type="line"/>
      <point x="239" y="305"/>
      <point x="337" y="305" type="qcurve" smooth="yes"/>
      <point x="422" y="305"/>
      <point x="505" y="216"/>
      <point x="505" y="113" type="qcurve" smooth="yes"/>
      <point x="505" y="-1" type="line" smooth="yes"/>
      <point x="505" y="-200"/>
      <point x="341" y="-200" type="qcurve" smooth="yes"/>
    </contour>
  </outline>
</glyph>
<glyph name="Zedescendercyrillic" format="2">
  <advance width="599"/>
  <unicode hex="0498"/>
  <outline>
    <contour>
      <point x="232" y="-150" type="line"/>
      <point x="232" y="-8" type="line"/>
      <point x="106" y="7"/>
      <point x="34" y="103" type="qcurve"/>
      <point x="111" y="174" type="line"/>
      <point x="143" y="133"/>
      <point x="226" y="89"/>
      <point x="283" y="89" type="qcurve" smooth="yes"/>
      <point x="352" y="89"/>
      <point x="426" y="141"/>
      <point x="426" y="194" type="qcurve" smooth="yes"/>
      <point x="426" y="205" type="line" smooth="yes"/>
      <point x="426" y="305"/>
      <point x="298" y="305" type="qcurve" smooth="yes"/>
      <point x="186" y="305" type="line"/>
      <point x="186" y="405" type="line"/>
      <point x="292" y="405" type="line" smooth="yes"/>
      <point x="412" y="405"/>
      <point x="412" y="507" type="qcurve" smooth="yes"/>
      <point x="412" y="520" type="line" smooth="yes"/>
      <point x="412" y="609"/>
      <point x="289" y="609" type="qcurve" smooth="yes"/>
      <point x="186" y="609"/>
      <point x="131" y="537" type="qcurve"/>
      <point x="54" y="602" type="line"/>
      <point x="141" y="710"/>
      <point x="289" y="710" type="qcurve" smooth="yes"/>
      <point x="407" y="710"/>
      <point x="532" y="608"/>
      <point x="532" y="522" type="qcurve" smooth="yes"/>
      <point x="532" y="450"/>
      <point x="456" y="373"/>
      <point x="394" y="364" type="qcurve"/>
      <point x="394" y="359" type="line"/>
      <point x="435" y="355"/>
      <point x="503" y="319"/>
      <point x="546" y="251"/>
      <point x="546" y="199" type="qcurve" smooth="yes"/>
      <point x="546" y="114"/>
      <point x="437" y="6"/>
      <point x="338" y="-8" type="qcurve"/>
      <point x="338" y="-150" type="line"/>
    </contour>
  </outline>
</glyph>
<glyph name="Kadescendercyrillic" format="2">
  <advance width="682"/>
  <unicode hex="049A"/>
  <outline>
    <contour>
      <point x="564" y="-150" type="line"/>
      <point x="564" y="0" type="line"/>
      <point x="557" y="0" type="line" smooth="yes"/>
      <point x="491" y="0"/>
      <point x="452" y="75" type="qcurve"/>
      <point x="320" y="305" type="line"/>
      <point x="199" y="305" type="line"/>
      <point x="199" y="0" type="line"/>
      <point x="86" y="0" type="line"/>
      <point x="86" y="698" type="line"/>
      <point x="199" y="698" type="line"/>
      <point x="199" y="404" type="line"/>
      <point x="320" y="404" type="line"/>
      <point x="444" y="622" type="line"/>
      <point x="482" y="698"/>
      <point x="555" y="698" type="qcurve" smooth="yes"/>
      <point x="608" y="698" type="line"/>
      <point x="608" y="598" type="line"/>
      <point x="545" y="598" type="line"/>
      <point x="445" y="422" type="line" smooth="yes"/>
      <point x="428" y="393"/>
      <point x="398" y="366"/>
      <point x="378" y="360" type="qcurve"/>
      <point x="378" y="355" type="line"/>
      <point x="402" y="351"/>
      <point x="437" y="325"/>
      <point x="454" y="294" type="qcurve" smooth="yes"/>
      <point x="565" y="100" type="line"/>
      <point x="669" y="100" type="line"/>
      <point x="669" y="-150" type="line"/>
    </contour>
  </outline>
</glyph>
<glyph name="katailcyr" format="2">
  <advance width="575"/>
  <unicode hex="049B"/>
  <outline>
    <contour>
      <point x="460" y="-140" type="line"/>
      <point x="460" y="0" type="line"/>
      <point x="456" y="0" type="line" smooth="yes"/>
      <point x="404" y="0"/>
      <point x="365" y="68" type="qcurve" smooth="yes"/>
      <point x="279" y="222" type="line"/>
      <point x="187" y="222" type="line"/>
      <point x="187" y="0" type="line"/>
      <point x="78" y="0" type="line"/>
      <point x="78" y="520" type="line"/>
      <point x="187" y="520" type="line"/>
      <point x="187" y="310" type="line"/>
      <point x="279" y="310" type="line"/>
      <point x="365" y="455" type="line" smooth="yes"/>
      <point x="386" y="491"/>
      <point x="431" y="520"/>
      <point x="465" y="520" type="qcurve" smooth="yes"/>
      <point x="518" y="520" type="line"/>
      <point x="518" y="431" type="line"/>
      <point x="460" y="431" type="line"/>
      <point x="394" y="321" type="line"/>
      <point x="380" y="296"/>
      <point x="355" y="275"/>
      <point x="337" y="270" type="qcurve"/>
      <point x="337" y="266" type="line"/>
      <point x="357" y="263"/>
      <point x="387" y="241"/>
      <point x="401" y="215" type="qcurve" smooth="yes"/>
      <point x="471" y="89" type="line"/>
      <point x="559" y="89" type="line"/>
      <point x="559" y="-140" type="line"/>
    </contour>
  </outline>
</glyph>
<glyph name="Kaverticalstrokecyr" format="2">
  <advance width="719"/>
  <unicode hex="049C"/>
  <outline>
    <contour>
      <point x="608" y="0" type="line" smooth="yes"/>
      <point x="542" y="0"/>
      <point x="505" y="75" type="qcurve"/>
      <point x="382" y="305" type="line"/>
      <point x="335" y="305" type="line"/>
      <point x="335" y="160" type="line"/>
      <point x="250" y="160" type="line"/>
      <point x="250" y="305" type="line"/>
      <point x="199" y="305" type="line"/>
      <point x="199" y="0" type="line"/>
      <point x="86" y="0" type="line"/>
      <point x="86" y="698" type="line"/>
      <point x="199" y="698" type="line"/>
      <point x="199" y="404" type="line"/>
      <point x="250" y="404" type="line"/>
      <point x="250" y="549" type="line"/>
      <point x="335" y="549" type="line"/>
      <point x="335" y="404" type="line"/>
      <point x="382" y="404" type="line"/>
      <point x="496" y="620" type="line"/>
      <point x="533" y="698"/>
      <point x="606" y="698" type="qcurve" smooth="yes"/>
      <point x="660" y="698" type="line"/>
      <point x="660" y="598" type="line"/>
      <point x="597" y="598" type="line"/>
      <point x="504" y="422" type="line" smooth="yes"/>
      <point x="477" y="369"/>
      <point x="439" y="360" type="qcurve"/>
      <point x="439" y="355" type="line"/>
      <point x="484" y="348"/>
      <point x="516" y="287" type="qcurve" smooth="yes"/>
      <point x="616" y="100" type="line"/>
      <point x="677" y="100" type="line"/>
      <point x="677" y="0" type="line"/>
    </contour>
  </outline>
</glyph>
<glyph name="kaverticalstrokecyrillic" format="2">
  <advance width="619"/>
  <unicode hex="049D"/>
  <outline>
    <contour>
      <point x="517" y="0" type="line" smooth="yes"/>
      <point x="451" y="0"/>
      <point x="416" y="70" type="qcurve" smooth="yes"/>
      <point x="340" y="222" type="line"/>
      <point x="304" y="222" type="line"/>
      <point x="304" y="106" type="line"/>
      <point x="230" y="106" type="line"/>
      <point x="230" y="222" type="line"/>
      <point x="187" y="222" type="line"/>
      <point x="187" y="0" type="line"/>
      <point x="78" y="0" type="line"/>
      <point x="78" y="520" type="line"/>
      <point x="187" y="520" type="line"/>
      <point x="187" y="310" type="line"/>
      <point x="230" y="310" type="line"/>
      <point x="230" y="427" type="line"/>
      <point x="304" y="427" type="line"/>
      <point x="304" y="310" type="line"/>
      <point x="340" y="310" type="line"/>
      <point x="415" y="450" type="line"/>
      <point x="435" y="490"/>
      <point x="481" y="520"/>
      <point x="516" y="520" type="qcurve" smooth="yes"/>
      <point x="569" y="520" type="line"/>
      <point x="569" y="431" type="line"/>
      <point x="511" y="431" type="line"/>
      <point x="452" y="321" type="line" smooth="yes"/>
      <point x="438" y="296"/>
      <point x="415" y="275"/>
      <point x="398" y="270" type="qcurve"/>
      <point x="398" y="266" type="line"/>
      <point x="418" y="263"/>
      <point x="446" y="241"/>
      <point x="460" y="215" type="qcurve"/>
      <point x="523" y="89" type="line"/>
      <point x="580" y="89" type="line"/>
      <point x="580" y="0" type="line"/>
    </contour>
  </outline>
</glyph>
<glyph name="Kabashkcyr" format="2">
  <advance width="772"/>
  <unicode hex="04A0"/>
  <outline>
    <contour>
      <point x="662" y="0" type="line" smooth="yes"/>
      <point x="596" y="0"/>
      <point x="557" y="75" type="qcurve"/>
      <point x="425" y="305" type="line"/>
      <point x="304" y="305" type="line"/>
      <point x="304" y="0" type="line"/>
      <point x="191" y="0" type="line"/>
      <point x="191" y="598" type="line"/>
      <point x="22" y="598" type="line"/>
      <point x="22" y="698" type="line"/>
      <point x="304" y="698" type="line"/>
      <point x="304" y="404" type="line"/>
      <point x="425" y="404" type="line"/>
      <point x="549" y="622" type="line"/>
      <point x="587" y="698"/>
      <point x="660" y="698" type="qcurve" smooth="yes"/>
      <point x="713" y="698" type="line"/>
      <point x="713" y="598" type="line"/>
      <point x="650" y="598" type="line"/>
      <point x="550" y="422" type="line" smooth="yes"/>
      <point x="533" y="393"/>
      <point x="503" y="366"/>
      <point x="483" y="360" type="qcurve"/>
      <point x="483" y="355" type="line"/>
      <point x="507" y="351"/>
      <point x="542" y="325"/>
      <point x="559" y="294" type="qcurve" smooth="yes"/>
      <point x="670" y="100" type="line"/>
      <point x="731" y="100" type="line"/>
      <point x="731" y="0" type="line"/>
    </contour>
  </outline>
</glyph>
<glyph name="kabashkcyr" format="2">
  <advance width="641"/>
  <unicode hex="04A1"/>
  <outline>
    <contour>
      <point x="539" y="0" type="line" smooth="yes"/>
      <point x="507" y="0"/>
      <point x="459" y="30"/>
      <point x="438" y="68" type="qcurve" smooth="yes"/>
      <point x="352" y="222" type="line"/>
      <point x="261" y="222" type="line"/>
      <point x="261" y="0" type="line"/>
      <point x="152" y="0" type="line"/>
      <point x="152" y="431" type="line"/>
      <point x="20" y="431" type="line"/>
      <point x="20" y="520" type="line"/>
      <point x="261" y="520" type="line"/>
      <point x="261" y="310" type="line"/>
      <point x="352" y="310" type="line"/>
      <point x="439" y="455" type="line"/>
      <point x="460" y="493"/>
      <point x="505" y="520"/>
      <point x="538" y="520" type="qcurve" smooth="yes"/>
      <point x="591" y="520" type="line"/>
      <point x="591" y="431" type="line"/>
      <point x="533" y="431" type="line"/>
      <point x="467" y="321" type="line"/>
      <point x="453" y="296"/>
      <point x="428" y="275"/>
      <point x="410" y="270" type="qcurve"/>
      <point x="410" y="266" type="line"/>
      <point x="430" y="263"/>
      <point x="460" y="241"/>
      <point x="474" y="215" type="qcurve" smooth="yes"/>
      <point x="545" y="89" type="line"/>
      <point x="602" y="89" type="line"/>
      <point x="602" y="0" type="line"/>
    </contour>
  </outline>
</glyph>
<glyph name="Enghecyrillic" format="2">
  <advance width="914"/>
  <unicode hex="04A4"/>
  <outline>
    <contour>
      <point x="495" y="0" type="line"/>
      <point x="495" y="304" type="line"/>
      <point x="199" y="304" type="line"/>
      <point x="199" y="0" type="line"/>
      <point x="86" y="0" type="line"/>
      <point x="86" y="698" type="line"/>
      <point x="199" y="698" type="line"/>
      <point x="199" y="404" type="line"/>
      <point x="495" y="404" type="line"/>
      <point x="495" y="698" type="line"/>
      <point x="888" y="698" type="line"/>
      <point x="888" y="598" type="line"/>
      <point x="608" y="598" type="line"/>
      <point x="608" y="0" type="line"/>
    </contour>
  </outline>
</glyph>
<glyph name="Esdescendercyrillic" format="2">
  <advance width="634"/>
  <unicode hex="04AA"/>
  <outline>
    <contour>
      <point x="296" y="-150" type="line"/>
      <point x="296" y="-8" type="line"/>
      <point x="181" y="10"/>
      <point x="55" y="190"/>
      <point x="55" y="349" type="qcurve" smooth="yes"/>
      <point x="55" y="530"/>
      <point x="216" y="710"/>
      <point x="348" y="710" type="qcurve" smooth="yes"/>
      <point x="526" y="710"/>
      <point x="597" y="552" type="qcurve"/>
      <point x="502" y="500" type="line"/>
      <point x="464" y="609"/>
      <point x="348" y="609" type="qcurve" smooth="yes"/>
      <point x="267" y="609"/>
      <point x="175" y="499"/>
      <point x="175" y="402" type="qcurve" smooth="yes"/>
      <point x="175" y="296" type="line" smooth="yes"/>
      <point x="175" y="199"/>
      <point x="267" y="89"/>
      <point x="348" y="89" type="qcurve" smooth="yes"/>
      <point x="411" y="89"/>
      <point x="490" y="153"/>
      <point x="509" y="205" type="qcurve"/>
      <point x="600" y="150" type="line"/>
      <point x="540" y="18"/>
      <point x="401" y="-8" type="qcurve"/>
      <point x="401" y="-150" type="line"/>
    </contour>
  </outline>
</glyph>
<glyph name="esdescendercyrillic" format="2">
  <advance width="510"/>
  <unicode hex="04AB"/>
  <outline>
    <contour>
      <point x="231" y="-140" type="line"/>
      <point x="231" y="-8" type="line"/>
      <point x="140" y="9"/>
      <point x="43" y="149"/>
      <point x="43" y="260" type="qcurve" smooth="yes"/>
      <point x="43" y="340"/>
      <point x="96" y="462"/>
      <point x="201" y="532"/>
      <point x="279" y="532" type="qcurve" smooth="yes"/>
      <point x="357" y="532"/>
      <point x="457" y="463"/>
      <point x="480" y="404" type="qcurve"/>
      <point x="390" y="362" type="line"/>
      <point x="366" y="441"/>
      <point x="279" y="441" type="qcurve" smooth="yes"/>
      <point x="219" y="441"/>
      <point x="158" y="366"/>
      <point x="158" y="306" type="qcurve" smooth="yes"/>
      <point x="158" y="213" type="line" smooth="yes"/>
      <point x="158" y="153"/>
      <point x="219" y="78"/>
      <point x="279" y="78" type="qcurve" smooth="yes"/>
      <point x="327" y="78"/>
      <point x="384" y="125"/>
      <point x="401" y="164" type="qcurve"/>
      <point x="484" y="120" type="line"/>
      <point x="441" y="13"/>
      <point x="330" y="-7" type="qcurve"/>
      <point x="330" y="-140" type="line"/>
    </contour>
  </outline>
</glyph>
<glyph name="u04AE" format="2">
  <advance width="617"/>
  <unicode hex="04AE"/>
  <outline>
    <contour>
      <point x="251" y="0" type="line"/>
      <point x="251" y="275" type="line"/>
      <point x="11" y="698" type="line"/>
      <point x="140" y="698" type="line"/>
      <point x="310" y="387" type="line"/>
      <point x="313" y="387" type="line"/>
      <point x="482" y="698" type="line"/>
      <point x="606" y="698" type="line"/>
      <point x="364" y="277" type="line"/>
      <point x="364" y="0" type="line"/>
    </contour>
  </outline>
</glyph>
<glyph name="ustraightcyrillic" format="2">
  <advance width="513"/>
  <unicode hex="04AF"/>
  <outline>
    <contour>
      <point x="202" y="-200" type="line"/>
      <point x="202" y="0" type="line"/>
      <point x="15" y="520" type="line"/>
      <point x="123" y="520" type="line"/>
      <point x="173" y="379" type="line" smooth="yes"/>
      <point x="196" y="315"/>
      <point x="211" y="266" type="qcurve" smooth="yes"/>
      <point x="256" y="116" type="line"/>
      <point x="262" y="116" type="line"/>
      <point x="310" y="272" type="line" smooth="yes"/>
      <point x="322" y="311"/>
      <point x="343" y="370" type="qcurve" smooth="yes"/>
      <point x="395" y="520" type="line"/>
      <point x="498" y="520" type="line"/>
      <point x="311" y="0" type="line"/>
      <point x="311" y="-200" type="line"/>
    </contour>
  </outline>
</glyph>
<glyph name="u04D1" format="2">
  <advance width="538"/>
  <unicode hex="04D1"/>
  <outline>
    <contour>
      <point x="239" y="71" type="qcurve" smooth="yes"/>
      <point x="290" y="71"/>
      <point x="356" y="116"/>
      <point x="356" y="154" type="qcurve" smooth="yes"/>
      <point x="356" y="229" type="line"/>
      <point x="264" y="229" type="line" smooth="yes"/>
      <point x="152" y="229"/>
      <point x="151" y="159" type="qcurve"/>
      <point x="151" y="141" type="line" smooth="yes"/>
      <point x="151" y="71"/>
    </contour>
    <contour>
      <point x="208" y="-12" type="qcurve" smooth="yes"/>
      <point x="127" y="-12"/>
      <point x="40" y="72"/>
      <point x="40" y="143" type="qcurve" smooth="yes"/>
      <point x="40" y="299"/>
      <point x="262" y="299" type="qcurve" smooth="yes"/>
      <point x="356" y="299" type="line"/>
      <point x="356" y="343" type="line" smooth="yes"/>
      <point x="356" y="443"/>
      <point x="249" y="443" type="qcurve" smooth="yes"/>
      <point x="203" y="443"/>
      <point x="145" y="403"/>
      <point x="125" y="372" type="qcurve"/>
      <point x="60" y="431" type="line"/>
      <point x="118" y="532"/>
      <point x="256" y="532" type="qcurve" smooth="yes"/>
      <point x="357" y="532"/>
      <point x="465" y="438"/>
      <point x="465" y="350" type="qcurve" smooth="yes"/>
      <point x="465" y="0" type="line"/>
      <point x="365" y="0" type="line"/>
      <point x="365" y="87" type="line"/>
      <point x="360" y="87" type="line"/>
      <point x="345" y="38"/>
      <point x="265" y="-12"/>
    </contour>
    <contour>
      <point x="260" y="589" type="qcurve" smooth="yes"/>
      <point x="200" y="589"/>
      <point x="128" y="638"/>
      <point x="108" y="681" type="qcurve" smooth="yes"/>
      <point x="88" y="725" type="line"/>
      <point x="177" y="761" type="line"/>
      <point x="211" y="671" type="line"/>
      <point x="234" y="664"/>
      <point x="260" y="664" type="qcurve" smooth="yes"/>
      <point x="286" y="664"/>
      <point x="309" y="671" type="qcurve"/>
      <point x="343" y="761" type="line"/>
      <point x="432" y="725" type="line"/>
      <point x="412" y="681" type="line" smooth="yes"/>
      <point x="392" y="638"/>
      <point x="320" y="589"/>
    </contour>
  </outline>
</glyph>
<glyph name="Iebrevecyrillic" format="2">
  <advance width="593"/>
  <unicode hex="04D6"/>
  <outline>
    <contour>
      <point x="308" y="755" type="qcurve" smooth="yes"/>
      <point x="248" y="755"/>
      <point x="176" y="804"/>
      <point x="156" y="847" type="qcurve" smooth="yes"/>
      <point x="136" y="891" type="line"/>
      <point x="225" y="927" type="line"/>
      <point x="259" y="837" type="line"/>
      <point x="282" y="830"/>
      <point x="308" y="830" type="qcurve" smooth="yes"/>
      <point x="334" y="830"/>
      <point x="357" y="837" type="qcurve"/>
      <point x="391" y="927" type="line"/>
      <point x="480" y="891" type="line"/>
      <point x="460" y="847" type="line" smooth="yes"/>
      <point x="440" y="804"/>
      <point x="368" y="755"/>
    </contour>
    <contour>
      <point x="86" y="0" type="line"/>
      <point x="86" y="698" type="line"/>
      <point x="533" y="698" type="line"/>
      <point x="533" y="598" type="line"/>
      <point x="199" y="598" type="line"/>
      <point x="199" y="404" type="line"/>
      <point x="502" y="404" type="line"/>
      <point x="502" y="304" type="line"/>
      <point x="199" y="304" type="line"/>
      <point x="199" y="100" type="line"/>
      <point x="533" y="100" type="line"/>
      <point x="533" y="0" type="line"/>
    </contour>
  </outline>
</glyph>
<glyph name="iebrevecyrillic" format="2">
  <advance width="556"/>
  <unicode hex="04D7"/>
  <outline>
    <contour>
      <point x="284" y="589" type="qcurve" smooth="yes"/>
      <point x="224" y="589"/>
      <point x="152" y="638"/>
      <point x="132" y="681" type="qcurve" smooth="yes"/>
      <point x="112" y="725" type="line"/>
      <point x="201" y="761" type="line"/>
      <point x="235" y="671" type="line"/>
      <point x="258" y="664"/>
      <point x="284" y="664" type="qcurve" smooth="yes"/>
      <point x="310" y="664"/>
      <point x="333" y="671" type="qcurve"/>
      <point x="367" y="761" type="line"/>
      <point x="456" y="725" type="line"/>
      <point x="436" y="681" type="line" smooth="yes"/>
      <point x="416" y="638"/>
      <point x="344" y="589"/>
    </contour>
    <contour>
      <point x="282" y="-12" type="qcurve" smooth="yes"/>
      <point x="173" y="-12"/>
      <point x="43" y="133"/>
      <point x="43" y="260" type="qcurve" smooth="yes"/>
      <point x="43" y="379"/>
      <point x="166" y="532"/>
      <point x="282" y="532" type="qcurve" smooth="yes"/>
      <point x="362" y="532"/>
      <point x="464" y="459"/>
      <point x="513" y="341"/>
      <point x="513" y="273" type="qcurve" smooth="yes"/>
      <point x="513" y="232" type="line"/>
      <point x="156" y="232" type="line"/>
      <point x="156" y="215" type="line" smooth="yes"/>
      <point x="156" y="155"/>
      <point x="227" y="78"/>
      <point x="293" y="78" type="qcurve" smooth="yes"/>
      <point x="381" y="78"/>
      <point x="430" y="156" type="qcurve"/>
      <point x="494" y="93" type="line"/>
      <point x="464" y="44"/>
      <point x="355" y="-12"/>
    </contour>
    <contour>
      <point x="398" y="314" type="line" smooth="yes"/>
      <point x="398" y="374"/>
      <point x="336" y="447"/>
      <point x="282" y="447" type="qcurve" smooth="yes"/>
      <point x="227" y="447"/>
      <point x="156" y="371"/>
      <point x="156" y="304" type="qcurve"/>
      <point x="398" y="304" type="line"/>
    </contour>
  </outline>
</glyph>
<glyph name="afii10846" format="2">
  <advance width="556"/>
  <unicode hex="04D9"/>
  <outline>
    <contour>
      <point x="275" y="-12" type="qcurve" smooth="yes"/>
      <point x="200" y="-12"/>
      <point x="96" y="57"/>
      <point x="43" y="174"/>
      <point x="43" y="247" type="qcurve" smooth="yes"/>
      <point x="43" y="288" type="line"/>
      <point x="400" y="288" type="line"/>
      <point x="400" y="305" type="line" smooth="yes"/>
      <point x="400" y="365"/>
      <point x="331" y="442"/>
      <point x="265" y="442" type="qcurve" smooth="yes"/>
      <point x="175" y="442"/>
      <point x="130" y="364" type="qcurve"/>
      <point x="65" y="427" type="line"/>
      <point x="95" y="476"/>
      <point x="203" y="532"/>
      <point x="275" y="532" type="qcurve" smooth="yes"/>
      <point x="387" y="532"/>
      <point x="513" y="385"/>
      <point x="513" y="260" type="qcurve" smooth="yes"/>
      <point x="513" y="130"/>
      <point x="381" y="-12"/>
    </contour>
    <contour>
      <point x="274" y="73" type="qcurve" smooth="yes"/>
      <point x="330" y="73"/>
      <point x="400" y="149"/>
      <point x="400" y="216" type="qcurve"/>
      <point x="157" y="216" type="line"/>
      <point x="157" y="206" type="line" smooth="yes"/>
      <point x="157" y="146"/>
      <point x="219" y="73"/>
    </contour>
  </outline>
</glyph>
<glyph name="Zhedieresiscyr" format="2">
  <advance width="991"/>
  <unicode hex="04DC"/>
  <outline>
    <contour>
      <point x="879" y="0" type="line" smooth="yes"/>
      <point x="844" y="0"/>
      <point x="798" y="34"/>
      <point x="776" y="78" type="qcurve" smooth="yes"/>
      <point x="662" y="305" type="line"/>
      <point x="552" y="305" type="line"/>
      <point x="552" y="0" type="line"/>
      <point x="439" y="0" type="line"/>
      <point x="439" y="305" type="line"/>
      <point x="329" y="305" type="line"/>
      <point x="215" y="78" type="line" smooth="yes"/>
      <point x="193" y="34"/>
      <point x="147" y="0"/>
      <point x="112" y="0" type="qcurve" smooth="yes"/>
      <point x="42" y="0" type="line"/>
      <point x="42" y="100" type="line"/>
      <point x="104" y="100" type="line"/>
      <point x="199" y="288" type="line"/>
      <point x="228" y="349"/>
      <point x="272" y="355" type="qcurve"/>
      <point x="272" y="360" type="line"/>
      <point x="231" y="370"/>
      <point x="203" y="425" type="qcurve"/>
      <point x="122" y="598" type="line"/>
      <point x="60" y="598" type="line"/>
      <point x="60" y="698" type="line"/>
      <point x="115" y="698" type="line" smooth="yes"/>
      <point x="192" y="698"/>
      <point x="226" y="622" type="qcurve"/>
      <point x="329" y="404" type="line"/>
      <point x="439" y="404" type="line"/>
      <point x="439" y="698" type="line"/>
      <point x="552" y="698" type="line"/>
      <point x="552" y="404" type="line"/>
      <point x="662" y="404" type="line"/>
      <point x="765" y="622" type="line" smooth="yes"/>
      <point x="800" y="698"/>
      <point x="876" y="698" type="qcurve" smooth="yes"/>
      <point x="931" y="698" type="line"/>
      <point x="931" y="598" type="line"/>
      <point x="869" y="598" type="line"/>
      <point x="788" y="425" type="line"/>
      <point x="760" y="370"/>
      <point x="719" y="360" type="qcurve"/>
      <point x="719" y="355" type="line"/>
      <point x="763" y="349"/>
      <point x="792" y="288" type="qcurve"/>
      <point x="887" y="100" type="line"/>
      <point x="949" y="100" type="line"/>
      <point x="949" y="0" type="line"/>
    </contour>
    <contour>
      <point x="395" y="776" type="qcurve" smooth="yes"/>
      <point x="361" y="776"/>
      <point x="332" y="807"/>
      <point x="332" y="830" type="qcurve" smooth="yes"/>
      <point x="332" y="848" type="line" smooth="yes"/>
      <point x="332" y="871"/>
      <point x="361" y="902"/>
      <point x="395" y="902" type="qcurve" smooth="yes"/>
      <point x="429" y="902"/>
      <point x="458" y="871"/>
      <point x="458" y="848" type="qcurve" smooth="yes"/>
      <point x="458" y="830" type="line" smooth="yes"/>
      <point x="458" y="807"/>
      <point x="429" y="776"/>
    </contour>
    <contour>
      <point x="595" y="776" type="qcurve" smooth="yes"/>
      <point x="561" y="776"/>
      <point x="532" y="807"/>
      <point x="532" y="830" type="qcurve" smooth="yes"/>
      <point x="532" y="848" type="line" smooth="yes"/>
      <point x="532" y="871"/>
      <point x="561" y="902"/>
      <point x="595" y="902" type="qcurve" smooth="yes"/>
      <point x="629" y="902"/>
      <point x="658" y="871"/>
      <point x="658" y="848" type="qcurve" smooth="yes"/>
      <point x="658" y="830" type="line" smooth="yes"/>
      <point x="658" y="807"/>
      <point x="629" y="776"/>
    </contour>
  </outline>
</glyph>
<glyph name="u04DE" format="2">
  <advance width="599"/>
  <unicode hex="04DE"/>
  <outline>
    <contour>
      <point x="283" y="-12" type="qcurve" smooth="yes"/>
      <point x="126" y="-12"/>
      <point x="34" y="103" type="qcurve"/>
      <point x="111" y="174" type="line"/>
      <point x="143" y="133"/>
      <point x="226" y="89"/>
      <point x="283" y="89" type="qcurve" smooth="yes"/>
      <point x="352" y="89"/>
      <point x="426" y="141"/>
      <point x="426" y="194" type="qcurve" smooth="yes"/>
      <point x="426" y="205" type="line" smooth="yes"/>
      <point x="426" y="305"/>
      <point x="298" y="305" type="qcurve" smooth="yes"/>
      <point x="186" y="305" type="line"/>
      <point x="186" y="405" type="line"/>
      <point x="292" y="405" type="line" smooth="yes"/>
      <point x="412" y="405"/>
      <point x="412" y="507" type="qcurve" smooth="yes"/>
      <point x="412" y="520" type="line" smooth="yes"/>
      <point x="412" y="609"/>
      <point x="289" y="609" type="qcurve" smooth="yes"/>
      <point x="186" y="609"/>
      <point x="131" y="537" type="qcurve"/>
      <point x="54" y="602" type="line"/>
      <point x="141" y="710"/>
      <point x="289" y="710" type="qcurve" smooth="yes"/>
      <point x="407" y="710"/>
      <point x="532" y="608"/>
      <point x="532" y="522" type="qcurve" smooth="yes"/>
      <point x="532" y="450"/>
      <point x="456" y="373"/>
      <point x="394" y="364" type="qcurve"/>
      <point x="394" y="359" type="line"/>
      <point x="435" y="355"/>
      <point x="503" y="319"/>
      <point x="546" y="251"/>
      <point x="546" y="199" type="qcurve" smooth="yes"/>
      <point x="546" y="106"/>
      <point x="409" y="-12"/>
    </contour>
    <contour>
      <point x="190" y="776" type="qcurve" smooth="yes"/>
      <point x="156" y="776"/>
      <point x="127" y="807"/>
      <point x="127" y="830" type="qcurve" smooth="yes"/>
      <point x="127" y="848" type="line" smooth="yes"/>
      <point x="127" y="871"/>
      <point x="156" y="902"/>
      <point x="190" y="902" type="qcurve" smooth="yes"/>
      <point x="224" y="902"/>
      <point x="253" y="871"/>
      <point x="253" y="848" type="qcurve" smooth="yes"/>
      <point x="253" y="830" type="line" smooth="yes"/>
      <point x="253" y="807"/>
      <point x="224" y="776"/>
    </contour>
    <contour>
      <point x="390" y="776" type="qcurve" smooth="yes"/>
      <point x="356" y="776"/>
      <point x="327" y="807"/>
      <point x="327" y="830" type="qcurve" smooth="yes"/>
      <point x="327" y="848" type="line" smooth="yes"/>
      <point x="327" y="871"/>
      <point x="356" y="902"/>
      <point x="390" y="902" type="qcurve" smooth="yes"/>
      <point x="424" y="902"/>
      <point x="453" y="871"/>
      <point x="453" y="848" type="qcurve" smooth="yes"/>
      <point x="453" y="830" type="line" smooth="yes"/>
      <point x="453" y="807"/>
      <point x="424" y="776"/>
    </contour>
  </outline>
</glyph>
<glyph name="u04E7" format="2">
  <advance width="564"/>
  <unicode hex="04E7"/>
  <outline>
    <contour>
      <point x="282" y="78" type="qcurve" smooth="yes"/>
      <point x="338" y="78"/>
      <point x="406" y="147"/>
      <point x="406" y="216" type="qcurve" smooth="yes"/>
      <point x="406" y="304" type="line" smooth="yes"/>
      <point x="406" y="373"/>
      <point x="338" y="442"/>
      <point x="282" y="442" type="qcurve" smooth="yes"/>
      <point x="226" y="442"/>
      <point x="158" y="373"/>
      <point x="158" y="304" type="qcurve" smooth="yes"/>
      <point x="158" y="216" type="line" smooth="yes"/>
      <point x="158" y="147"/>
      <point x="226" y="78"/>
    </contour>
    <contour>
      <point x="282" y="-12" type="qcurve" smooth="yes"/>
      <point x="170" y="-12"/>
      <point x="43" y="140"/>
      <point x="43" y="260" type="qcurve" smooth="yes"/>
      <point x="43" y="388"/>
      <point x="176" y="532"/>
      <point x="282" y="532" type="qcurve" smooth="yes"/>
      <point x="388" y="532"/>
      <point x="521" y="388"/>
      <point x="521" y="260" type="qcurve" smooth="yes"/>
      <point x="521" y="140"/>
      <point x="394" y="-12"/>
    </contour>
    <contour>
      <point x="182" y="610" type="qcurve" smooth="yes"/>
      <point x="120" y="610"/>
      <point x="120" y="663" type="qcurve" smooth="yes"/>
      <point x="120" y="681" type="line" smooth="yes"/>
      <point x="120" y="734"/>
      <point x="182" y="734" type="qcurve" smooth="yes"/>
      <point x="244" y="734"/>
      <point x="244" y="681" type="qcurve" smooth="yes"/>
      <point x="244" y="663" type="line" smooth="yes"/>
      <point x="244" y="610"/>
    </contour>
    <contour>
      <point x="382" y="610" type="qcurve" smooth="yes"/>
      <point x="320" y="610"/>
      <point x="320" y="663" type="qcurve" smooth="yes"/>
      <point x="320" y="681" type="line" smooth="yes"/>
      <point x="320" y="734"/>
      <point x="382" y="734" type="qcurve" smooth="yes"/>
      <point x="444" y="734"/>
      <point x="444" y="681" type="qcurve" smooth="yes"/>
      <point x="444" y="663" type="line" smooth="yes"/>
      <point x="444" y="610"/>
    </contour>
  </outline>
</glyph>
<glyph name="u04EE" format="2">
  <advance width="610"/>
  <unicode hex="04EE"/>
  <outline>
    <contour>
      <point x="133" y="0" type="line"/>
      <point x="133" y="100" type="line"/>
      <point x="243" y="100" type="line"/>
      <point x="269" y="164" type="line"/>
      <point x="17" y="698" type="line"/>
      <point x="137" y="698" type="line"/>
      <point x="265" y="423" type="line"/>
      <point x="320" y="294" type="line"/>
      <point x="324" y="294" type="line"/>
      <point x="371" y="425" type="line"/>
      <point x="480" y="698" type="line"/>
      <point x="593" y="698" type="line"/>
      <point x="348" y="93" type="line" smooth="yes"/>
      <point x="328" y="42"/>
      <point x="269" y="0"/>
      <point x="208" y="0" type="qcurve" smooth="yes"/>
    </contour>
    <contour>
      <point x="166" y="798" type="line"/>
      <point x="166" y="881" type="line"/>
      <point x="458" y="881" type="line"/>
      <point x="458" y="798" type="line"/>
    </contour>
  </outline>
</glyph>
<glyph name="Udieresiscyr" format="2">
  <advance width="610"/>
  <unicode hex="04F0"/>
  <outline>
    <contour>
      <point x="133" y="0" type="line"/>
      <point x="133" y="100" type="line"/>
      <point x="243" y="100" type="line"/>
      <point x="269" y="164" type="line"/>
      <point x="17" y="698" type="line"/>
      <point x="137" y="698" type="line"/>
      <point x="265" y="423" type="line"/>
      <point x="320" y="294" type="line"/>
      <point x="324" y="294" type="line"/>
      <point x="371" y="425" type="line"/>
      <point x="480" y="698" type="line"/>
      <point x="593" y="698" type="line"/>
      <point x="348" y="93" type="line" smooth="yes"/>
      <point x="328" y="42"/>
      <point x="269" y="0"/>
      <point x="208" y="0" type="qcurve" smooth="yes"/>
    </contour>
    <contour>
      <point x="212" y="776" type="qcurve" smooth="yes"/>
      <point x="178" y="776"/>
      <point x="149" y="807"/>
      <point x="149" y="830" type="qcurve" smooth="yes"/>
      <point x="149" y="848" type="line" smooth="yes"/>
      <point x="149" y="871"/>
      <point x="178" y="902"/>
      <point x="212" y="902" type="qcurve" smooth="yes"/>
      <point x="246" y="902"/>
      <point x="275" y="871"/>
      <point x="275" y="848" type="qcurve" smooth="yes"/>
      <point x="275" y="830" type="line" smooth="yes"/>
      <point x="275" y="807"/>
      <point x="246" y="776"/>
    </contour>
    <contour>
      <point x="412" y="776" type="qcurve" smooth="yes"/>
      <point x="378" y="776"/>
      <point x="349" y="807"/>
      <point x="349" y="830" type="qcurve" smooth="yes"/>
      <point x="349" y="848" type="line" smooth="yes"/>
      <point x="349" y="871"/>
      <point x="378" y="902"/>
      <point x="412" y="902" type="qcurve" smooth="yes"/>
      <point x="446" y="902"/>
      <point x="475" y="871"/>
      <point x="475" y="848" type="qcurve" smooth="yes"/>
      <point x="475" y="830" type="line" smooth="yes"/>
      <point x="475" y="807"/>
      <point x="446" y="776"/>
    </contour>
  </outline>
</glyph>
<glyph name="u04F2" format="2">
  <advance width="610"/>
  <unicode hex="04F2"/>
  <outline>
    <contour>
      <point x="133" y="0" type="line"/>
      <point x="133" y="100" type="line"/>
      <point x="243" y="100" type="line"/>
      <point x="269" y="164" type="line"/>
      <point x="17" y="698" type="line"/>
      <point x="137" y="698" type="line"/>
      <point x="265" y="423" type="line"/>
      <point x="320" y="294" type="line"/>
      <point x="324" y="294" type="line"/>
      <point x="371" y="425" type="line"/>
      <point x="480" y="698" type="line"/>
      <point x="593" y="698" type="line"/>
      <point x="348" y="93" type="line" smooth="yes"/>
      <point x="328" y="42"/>
      <point x="269" y="0"/>
      <point x="208" y="0" type="qcurve" smooth="yes"/>
    </contour>
    <contour>
      <point x="170" y="778" type="line"/>
      <point x="261" y="959" type="line"/>
      <point x="350" y="915" type="line"/>
      <point x="232" y="749" type="line"/>
    </contour>
    <contour>
      <point x="349" y="778" type="line"/>
      <point x="440" y="959" type="line"/>
      <point x="529" y="915" type="line"/>
      <point x="411" y="749" type="line"/>
    </contour>
  </outline>
</glyph>
<glyph name="u04F4" format="2">
  <advance width="659"/>
  <unicode hex="04F4"/>
  <outline>
    <contour>
      <point x="460" y="0" type="line"/>
      <point x="460" y="263" type="line"/>
      <point x="455" y="263" type="line"/>
      <point x="402" y="240"/>
      <point x="302" y="240" type="qcurve" smooth="yes"/>
      <point x="56" y="240"/>
      <point x="56" y="492" type="qcurve" smooth="yes"/>
      <point x="56" y="698" type="line"/>
      <point x="169" y="698" type="line"/>
      <point x="169" y="487" type="line" smooth="yes"/>
      <point x="169" y="339"/>
      <point x="318" y="339" type="qcurve" smooth="yes"/>
      <point x="413" y="339"/>
      <point x="460" y="360" type="qcurve"/>
      <point x="460" y="698" type="line"/>
      <point x="573" y="698" type="line"/>
      <point x="573" y="0" type="line"/>
    </contour>
    <contour>
      <point x="214" y="776" type="qcurve" smooth="yes"/>
      <point x="180" y="776"/>
      <point x="151" y="807"/>
      <point x="151" y="830" type="qcurve" smooth="yes"/>
      <point x="151" y="848" type="line" smooth="yes"/>
      <point x="151" y="871"/>
      <point x="180" y="902"/>
      <point x="214" y="902" type="qcurve" smooth="yes"/>
      <point x="248" y="902"/>
      <point x="277" y="871"/>
      <point x="277" y="848" type="qcurve" smooth="yes"/>
      <point x="277" y="830" type="line" smooth="yes"/>
      <point x="277" y="807"/>
      <point x="248" y="776"/>
    </contour>
    <contour>
      <point x="414" y="776" type="qcurve" smooth="yes"/>
      <point x="380" y="776"/>
      <point x="351" y="807"/>
      <point x="351" y="830" type="qcurve" smooth="yes"/>
      <point x="351" y="848" type="line" smooth="yes"/>
      <point x="351" y="871"/>
      <point x="380" y="902"/>
      <point x="414" y="902" type="qcurve" smooth="yes"/>
      <point x="448" y="902"/>
      <point x="477" y="871"/>
      <point x="477" y="848" type="qcurve" smooth="yes"/>
      <point x="477" y="830" type="line" smooth="yes"/>
      <point x="477" y="807"/>
      <point x="448" y="776"/>
    </contour>
  </outline>
</glyph>
<glyph name="chedieresiscyr" format="2">
  <advance width="555"/>
  <unicode hex="04F5"/>
  <outline>
    <contour>
      <point x="368" y="0" type="line"/>
      <point x="368" y="231" type="line"/>
      <point x="363" y="231" type="line"/>
      <point x="318" y="166"/>
      <point x="218" y="166" type="qcurve" smooth="yes"/>
      <point x="212" y="166" type="line" smooth="yes"/>
      <point x="50" y="166"/>
      <point x="50" y="337" type="qcurve" smooth="yes"/>
      <point x="50" y="520" type="line"/>
      <point x="159" y="520" type="line"/>
      <point x="159" y="344" type="line" smooth="yes"/>
      <point x="159" y="300"/>
      <point x="205" y="259"/>
      <point x="256" y="259" type="qcurve"/>
      <point x="368" y="262"/>
      <point x="368" y="317" type="qcurve" smooth="yes"/>
      <point x="368" y="520" type="line"/>
      <point x="477" y="520" type="line"/>
      <point x="477" y="0" type="line"/>
    </contour>
    <contour>
      <point x="164" y="610" type="qcurve" smooth="yes"/>
      <point x="102" y="610"/>
      <point x="102" y="663" type="qcurve" smooth="yes"/>
      <point x="102" y="681" type="line" smooth="yes"/>
      <point x="102" y="734"/>
      <point x="164" y="734" type="qcurve" smooth="yes"/>
      <point x="226" y="734"/>
      <point x="226" y="681" type="qcurve" smooth="yes"/>
      <point x="226" y="663" type="line" smooth="yes"/>
      <point x="226" y="610"/>
    </contour>
    <contour>
      <point x="364" y="610" type="qcurve" smooth="yes"/>
      <point x="302" y="610"/>
      <point x="302" y="663" type="qcurve" smooth="yes"/>
      <point x="302" y="681" type="line" smooth="yes"/>
      <point x="302" y="734"/>
      <point x="364" y="734" type="qcurve" smooth="yes"/>
      <point x="426" y="734"/>
      <point x="426" y="681" type="qcurve" smooth="yes"/>
      <point x="426" y="663" type="line" smooth="yes"/>
      <point x="426" y="610"/>
    </contour>
  </outline>
</glyph>
<glyph name="wacute" format="2">
  <advance width="799"/>
  <unicode hex="1E83"/>
  <outline>
    <contour>
      <point x="510" y="0" type="line"/>
      <point x="400" y="383" type="line"/>
      <point x="398" y="383" type="line"/>
      <point x="367" y="272"/>
      <point x="354" y="226"/>
      <point x="288" y="0" type="qcurve"/>
      <point x="168" y="0" type="line"/>
      <point x="26" y="520" type="line"/>
      <point x="132" y="520" type="line"/>
      <point x="232" y="105" type="line"/>
      <point x="235" y="105" type="line"/>
      <point x="265" y="216" type="line"/>
      <point x="312" y="383" type="line"/>
      <point x="352" y="520" type="line"/>
      <point x="450" y="520" type="line"/>
      <point x="490" y="383" type="line" smooth="yes"/>
      <point x="511" y="314"/>
      <point x="538" y="216" type="qcurve" smooth="yes"/>
      <point x="569" y="105" type="line"/>
      <point x="572" y="105" type="line"/>
      <point x="597" y="211" type="line" smooth="yes"/>
      <point x="619" y="307"/>
      <point x="640" y="392" type="qcurve" smooth="yes"/>
      <point x="672" y="520" type="line"/>
      <point x="773" y="520" type="line"/>
      <point x="633" y="0" type="line"/>
    </contour>
    <contour>
      <point x="343" y="615" type="line"/>
      <point x="434" y="795" type="line"/>
      <point x="529" y="749" type="line"/>
      <point x="411" y="582" type="line"/>
    </contour>
  </outline>
</glyph>
<glyph name="u1E9E" format="2">
  <advance width="713"/>
  <unicode hex="1E9E"/>
  <outline>
    <contour>
      <point x="447" y="-12" type="qcurve" smooth="yes"/>
      <point x="315" y="-12"/>
      <point x="248" y="75" type="qcurve"/>
      <point x="322" y="145" type="line"/>
      <point x="371" y="82"/>
      <point x="447" y="82" type="qcurve" smooth="yes"/>
      <point x="498" y="82"/>
      <point x="554" y="140"/>
      <point x="554" y="186" type="qcurve" smooth="yes"/>
      <point x="554" y="218" type="line" smooth="yes"/>
      <point x="554" y="264"/>
      <point x="497" y="319"/>
      <point x="438" y="319" type="qcurve" smooth="yes"/>
      <point x="343" y="319" type="line"/>
      <point x="343" y="413" type="line"/>
      <point x="505" y="601" type="line"/>
      <point x="199" y="601" type="line"/>
      <point x="199" y="0" type="line"/>
      <point x="86" y="0" type="line"/>
      <point x="86" y="698" type="line"/>
      <point x="618" y="698" type="line"/>
      <point x="618" y="592" type="line"/>
      <point x="461" y="409" type="line"/>
      <point x="461" y="405" type="line"/>
      <point x="518" y="404"/>
      <point x="613" y="360"/>
      <point x="671" y="272"/>
      <point x="671" y="205" type="qcurve" smooth="yes"/>
      <point x="671" y="110"/>
      <point x="553" y="-12"/>
    </contour>
  </outline>
</glyph>
<glyph name="u1EA0" format="2">
  <advance width="662"/>
  <unicode hex="1EA0"/>
  <outline>
    <contour>
      <point x="331" y="594" type="line"/>
      <point x="326" y="594" type="line"/>
      <point x="225" y="286" type="line"/>
      <point x="431" y="286" type="line"/>
    </contour>
    <contour>
      <point x="330" y="-184" type="qcurve" smooth="yes"/>
      <point x="296" y="-184"/>
      <point x="266" y="-154"/>
      <point x="266" y="-131" type="qcurve" smooth="yes"/>
      <point x="266" y="-113" type="line" smooth="yes"/>
      <point x="266" y="-90"/>
      <point x="296" y="-60"/>
      <point x="330" y="-60" type="qcurve" smooth="yes"/>
      <point x="364" y="-60"/>
      <point x="394" y="-90"/>
      <point x="394" y="-113" type="qcurve" smooth="yes"/>
      <point x="394" y="-131" type="line" smooth="yes"/>
      <point x="394" y="-154"/>
      <point x="364" y="-184"/>
    </contour>
    <contour>
      <point x="522" y="0" type="line"/>
      <point x="459" y="189" type="line"/>
      <point x="198" y="189" type="line"/>
      <point x="137" y="0" type="line"/>
      <point x="22" y="0" type="line"/>
      <point x="260" y="698" type="line"/>
      <point x="402" y="698" type="line"/>
      <point x="640" y="0" type="line"/>
    </contour>
  </outline>
</glyph>
<glyph name="Acircumflexhookabove" format="2">
  <advance width="662"/>
  <unicode hex="1EA8"/>
  <outline>
    <contour>
      <point x="443" y="898" type="line"/>
      <point x="496" y="1001" type="line"/>
      <point x="375" y="1001" type="line"/>
      <point x="375" y="1077" type="line"/>
      <point x="495" y="1077" type="line" smooth="yes"/>
      <point x="540" y="1077"/>
      <point x="577" y="1040"/>
      <point x="577" y="1015" type="qcurve" smooth="yes"/>
      <point x="577" y="971"/>
      <point x="522" y="901" type="qcurve"/>
      <point x="496" y="870" type="line"/>
    </contour>
    <contour>
      <point x="330" y="851" type="line"/>
      <point x="209" y="742" type="line"/>
      <point x="156" y="787" type="line"/>
      <point x="281" y="927" type="line"/>
      <point x="379" y="927" type="line"/>
      <point x="504" y="787" type="line"/>
      <point x="451" y="742" type="line"/>
    </contour>
    <contour>
      <point x="522" y="0" type="line"/>
      <point x="459" y="189" type="line"/>
      <point x="198" y="189" type="line"/>
      <point x="137" y="0" type="line"/>
      <point x="22" y="0" type="line"/>
      <point x="260" y="698" type="line"/>
      <point x="402" y="698" type="line"/>
      <point x="640" y="0" type="line"/>
    </contour>
    <contour>
      <point x="331" y="594" type="line"/>
      <point x="326" y="594" type="line"/>
      <point x="225" y="286" type="line"/>
      <point x="431" y="286" type="line"/>
    </contour>
  </outline>
</glyph>
<glyph name="Acircumflextilde" format="2">
  <advance width="662"/>
  <unicode hex="1EAA"/>
  <outline>
    <contour>
      <point x="403" y="949" type="qcurve" smooth="yes"/>
      <point x="380" y="949"/>
      <point x="346" y="961"/>
      <point x="330" y="969" type="qcurve"/>
      <point x="325" y="972" type="line"/>
      <point x="283" y="995"/>
      <point x="251" y="995" type="qcurve" smooth="yes"/>
      <point x="234" y="995"/>
      <point x="208" y="982"/>
      <point x="193" y="969" type="qcurve"/>
      <point x="154" y="1017" type="line"/>
      <point x="190" y="1075"/>
      <point x="257" y="1075" type="qcurve" smooth="yes"/>
      <point x="279" y="1075"/>
      <point x="312" y="1063"/>
      <point x="327" y="1055" type="qcurve"/>
      <point x="335" y="1051" type="line"/>
      <point x="378" y="1028"/>
      <point x="409" y="1028" type="qcurve" smooth="yes"/>
      <point x="426" y="1028"/>
      <point x="452" y="1041"/>
      <point x="467" y="1054" type="qcurve"/>
      <point x="506" y="1007" type="line"/>
      <point x="470" y="949"/>
    </contour>
    <contour>
      <point x="330" y="847" type="line"/>
      <point x="209" y="742" type="line"/>
      <point x="157" y="787" type="line"/>
      <point x="281" y="921" type="line"/>
      <point x="379" y="921" type="line"/>
      <point x="503" y="787" type="line"/>
      <point x="451" y="742" type="line"/>
    </contour>
    <contour>
      <point x="522" y="0" type="line"/>
      <point x="459" y="189" type="line"/>
      <point x="198" y="189" type="line"/>
      <point x="137" y="0" type="line"/>
      <point x="22" y="0" type="line"/>
      <point x="260" y="698" type="line"/>
      <point x="402" y="698" type="line"/>
      <point x="640" y="0" type="line"/>
    </contour>
    <contour>
      <point x="331" y="594" type="line"/>
      <point x="326" y="594" type="line"/>
      <point x="225" y="286" type="line"/>
      <point x="431" y="286" type="line"/>
    </contour>
  </outline>
</glyph>
